<?xml version="1.0" encoding="utf-8"?>
<!-- Generator: Adobe Illustrator 19.2.1, SVG Export Plug-In . SVG Version: 6.00 Build 0)  -->
<svg version="1.1" id="Layer_1" xmlns="http://www.w3.org/2000/svg" xmlns:xlink="http://www.w3.org/1999/xlink" x="0px" y="0px"
	 viewBox="0 0 185.2 76.8" style="enable-background:new 0 0 185.2 76.8;" xml:space="preserve">
<style type="text/css">
	.st0{display:none;}
	.st1{display:inline;}
	.st2{fill:#2B8EE5;}
	.st3{clip-path:url(#SVGID_2_);}
	.st4{fill:#222222;}
	.st5{display:none;fill:#222222;}
	.st6{display:inline;fill:#222222;}
	.st7{display:inline;fill:#008DB1;}
	.st8{display:none;fill:#008DB1;enable-background:new    ;}
	.st9{font-family:'Ailerons';}
	.st10{font-size:93.0717px;}
	.st11{fill:#333333;}
	.st12{clip-path:url(#SVGID_5_);}
	.st13{fill:#008DB1;}
</style>
<g>
	<title>Layer 1</title>
	<g id="g10" transform="matrix(3.2289142891555582,0,0,-3.2082611676707145,-174.48642021207417,204.31538854683444) " class="st0">
		<g id="g12" class="st1">
			<path id="path14" class="st2" d="M68.2,27.9L54,52.5L68.2,77h28.3l14.2-24.5L96.6,27.9C96.6,27.9,68.2,27.9,68.2,27.9z"/>
		</g>
		<g id="g16" class="st1">
			<g>
				<g>
					<g>
						<defs>
							<rect id="SVGID_1_" x="-286.2" y="-272.3" width="737.2" height="649.4"/>
						</defs>
						<clipPath id="SVGID_2_">
							<use xlink:href="#SVGID_1_"  style="overflow:visible;"/>
						</clipPath>
						<g id="g18" class="st3">
							<g id="g24">
								<path id="path26" class="st2" d="M72.3,34.9h20.3l10.1,17.5L92.6,69.9H72.3L62.1,52.5L72.3,34.9z M96.6,20.9H68.2
									c-2.5,0-4.8,1.3-6.1,3.5L48,49c-1.3,2.2-1.3,4.8,0,7l14.2,24.5c1.3,2.2,3.6,3.5,6.1,3.5h28.3c2.5,0,4.8-1.3,6.1-3.5
									L116.9,56c1.3-2.2,1.3-4.8,0-7l-14.3-24.6C101.4,22.3,99.1,20.9,96.6,20.9"/>
							</g>
						</g>
					</g>
				</g>
			</g>
		</g>
	</g>
	<g id="svg_18">
		<path id="svg_6" class="st4" d="M14.4,10.7h2.5c1.3,0,2.4,0.9,3.3,2.9c0.1,0.3,0.4,0.5,0.8,0.3l4.9-2.4c0.3-0.2,0.3-0.6,0.2-0.9
			c-0.7-1.3-1.3-2.4-2.1-3.3c-1.6-1.8-3.7-2.7-6.8-2.7h-2.7C8.6,4.6,5,8.3,5,13.6v14.5c0,5.4,3.6,9.1,9.4,9.1h2.7
			c2.6,0,4.6-0.8,6.2-2.1c1.1-1.1,2.1-2.4,2.8-4.1c0.1-0.3,0.1-0.6-0.2-0.8L21,27.7c-0.3-0.2-0.6,0-0.8,0.3c-0.9,2-2.1,2.9-3.3,2.9
			h-2.5c-1.7,0-2.9-1.3-2.9-2.9V13.5C11.4,12,12.7,10.7,14.4,10.7z"/>
		<path id="svg_7" class="st4" d="M39.5,37.2h2.7c5.6,0,9.4-3.7,9.4-9.1V13.6c0-5.5-3.7-9.1-9.4-9.1h-2.7c-5.7,0-9.4,3.7-9.4,9.1
			v14.5C30.1,33.5,33.7,37.2,39.5,37.2z M36.6,13.6c0-1.6,1.4-2.9,2.9-2.9h2.7c1.7,0,2.8,1.3,2.8,2.9v14.5c0,1.6-1.2,2.9-2.8,2.9
			h-2.7c-1.7,0-2.9-1.4-2.9-2.9V13.6z"/>
		<path id="svg_8" class="st4" d="M78,27.2V14.5c0-6.1-3.7-9.9-9.7-9.9H56.1c-0.3,0-0.5,0.2-0.5,0.5v31.6c0,0.4,0.2,0.5,0.5,0.5
			h12.1C74.2,37.1,78,33.3,78,27.2z M71.3,27.7c0,1.6-1.3,2.9-3,2.9H63c-0.4,0-0.5-0.2-0.5-0.5V11.5c0-0.4,0.1-0.6,0.5-0.6h5.3
			c1.6,0,3,1.4,3,3V27.7z"/>
		<path id="svg_9" class="st5" d="M80.2,5.9C80,6.2,80,6.6,80.1,7l13.8,29.4c0.1,0.3,0.5,0.8,1.3,0.8H99c0.5,0,1-0.2,1.2-0.5
			s0.2-0.7,0.1-1.1L86.6,6.2c-0.2-0.5-0.7-0.8-1.3-0.8h-3.9C80.7,5.4,80.4,5.7,80.2,5.9z"/>
		<path id="svg_10" class="st4" d="M108.9,37.2c0.3,0,0.5-0.2,0.5-0.5v-7.2c0-4.8-0.1-8.8-0.3-10.8l0.2-0.1c0.2,0.6,0.6,1.7,1,2.5
			l8,15.6c0.1,0.2,0.3,0.4,0.5,0.4h5c0.3,0,0.5-0.2,0.5-0.5V5c0-0.4-0.2-0.5-0.5-0.5h-5.7c-0.3,0-0.4,0.2-0.4,0.5v7.4
			c0,4.4,0.1,8.7,0.2,10.9l-0.2,0.1c-0.1-0.5-0.6-1.7-1-2.5l-8-15.9c-0.1-0.2-0.3-0.3-0.5-0.3h-5.1c-0.3,0-0.5,0.2-0.5,0.5v31.6
			c0,0.4,0.2,0.5,0.5,0.5L108.9,37.2L108.9,37.2z"/>
		<path id="svg_11" class="st4" d="M147.5,6.8c-1.6-1.5-3.5-2.2-6.4-2.2h-3.4c-5.8,0-9.4,3.7-9.4,9.1v14.5c0,5.5,3.4,9.1,9.4,9.1
			h2.7c5.8,0,9.4-3.5,9.4-9.1v-7.9c0-0.4-0.1-0.5-0.5-0.5h-10.6c-0.3,0-0.5,0.2-0.5,0.5V25c0,0.4,0.2,0.5,0.5,0.5h4
			c0.3,0,0.5,0.2,0.5,0.5v2.2c0,1.7-1.2,2.9-2.8,2.9h-2.7c-1.7,0-2.9-1.3-2.9-2.9V13.7c0-1.6,1.3-2.9,2.9-2.9h3.2
			c1.3,0,2.4,0.9,3.3,2.9c0.1,0.3,0.4,0.5,0.8,0.3l4.9-2.4c0.3-0.2,0.3-0.5,0.2-0.8C149.3,9.2,148.5,7.9,147.5,6.8z"/>
		<path id="svg_12" class="st4" d="M69.8,53.4c-2.6-1.1-5.4-1.8-5.4-4c0-1.8,1.3-3,2.9-3H68c1.6,0,2.6,0.8,3.3,2.6
			c0.1,0.5,0.4,0.6,0.7,0.4l4.6-2.6c0.3-0.2,0.4-0.7,0.1-1.2c-0.4-0.8-0.9-1.5-1.4-2.2c-1.7-2-4-3.3-7.5-3.3h-0.7
			c-5.9,0-9.5,3.7-9.5,9.4c0,5.8,3.4,7.9,7.8,9.8c2.8,1.2,5.3,1.9,5.3,4.3c0,2.1-1.5,2.9-3.2,2.9h-1.2c-1.6,0-2.6-0.8-3.3-2.6
			c-0.1-0.5-0.4-0.6-0.7-0.4l-4.6,2.6c-0.3,0.2-0.4,0.7-0.1,1.2c0.4,0.8,1,1.6,1.6,2.3c1.6,1.9,3.9,3.2,7.3,3.2H68
			c6,0,9.4-3.6,9.4-9.3C77.5,57.6,74.2,55.3,69.8,53.4z"/>
		<path id="svg_13" class="st5" d="M98.3,40.8c-0.1-0.3-0.3-0.4-0.6-0.4h-5.2c-0.3,0-0.5,0.1-0.6,0.4L80.4,72
			c-0.2,0.4,0.1,0.7,0.6,0.7h5.7l8-21.7l8,21.7h6.3c0.6,0,0.8-0.3,0.6-0.7L98.3,40.8z"/>
		<g class="st0">
			<path id="svg_13_1_" class="st6" d="M86.3,5.4C86.2,5.1,86,5,85.7,5c-1.6,0-3.2,0-4.8,0c3.6,10.7,7.3,21.4,10.9,32.1
				c1.8,0,3.6,0,5.4,0c0.6,0,0.8-0.3,0.6-0.7L86.3,5.4z"/>
			<path id="svg_13_2_" class="st6" d="M90.8,36.7c0.1,0.3,0.3,0.4,0.6,0.4c1.4,0,2.8,0,4.2,0c-3.7-10.7-7.3-21.3-11-32.1
				c-1.6,0-3.1,0-4.7,0c-0.6,0-0.8,0.3-0.6,0.7L90.8,36.7z"/>
		</g>
		<path id="svg_14" class="st4" d="M133.7,40.1H128c-0.3,0-0.4,0.2-0.4,0.5V48c0,4.4,0.1,8.8,0.2,10.9l-0.2,0.1
			c-0.1-0.5-0.6-1.7-1-2.5l-8.1-16c-0.1-0.2-0.3-0.3-0.5-0.3h-5.1c-0.3,0-0.5,0.2-0.5,0.5v31.7c0,0.4,0.2,0.5,0.5,0.5h5.8
			c0.3,0,0.5-0.2,0.5-0.5V65c0-4.9-0.1-8.9-0.3-10.8l0.2-0.1c0.2,0.6,0.6,1.7,1,2.5l8.1,15.7c0.1,0.2,0.3,0.4,0.5,0.4h5
			c0.3,0,0.5-0.2,0.5-0.5V40.5C134.2,40.2,134,40.1,133.7,40.1z"/>
		<path id="svg_15" class="st4" d="M150.4,53.4c-2.5-1.1-5.4-1.8-5.4-4c0-1.8,1.3-3,2.9-3h0.7c1.6,0,2.6,0.8,3.3,2.5
			c0.1,0.5,0.4,0.6,0.7,0.4l4.6-2.5c0.3-0.2,0.4-0.7,0.1-1.2c-0.4-0.8-0.9-1.5-1.4-2.2c-1.7-2-4-3.3-7.4-3.3h-0.7
			c-5.9,0-9.5,3.7-9.5,9.4c0,5.8,3.4,7.9,7.8,9.8c2.8,1.2,5.3,1.9,5.3,4.3c0,2.1-1.5,2.9-3.2,2.9h-1.2c-1.6,0-2.6-0.8-3.3-2.5
			c-0.1-0.5-0.4-0.6-0.7-0.4l-4.6,2.5c-0.3,0.2-0.4,0.7-0.1,1.2c0.4,0.8,1,1.6,1.6,2.3c1.6,1.9,3.9,3.2,7.2,3.2h1.5
			c6,0,9.4-3.6,9.4-9.3C158.1,57.6,154.8,55.3,150.4,53.4z"/>
		<path id="svg_16" class="st4" d="M41.5,55.9l11.9-8.8c0.2-0.1,0.3-0.3,0.3-0.5s-0.1-0.5-0.3-0.8l-1.4-3c-0.1-0.2-0.2-0.4-0.4-0.4
			s-0.3,0.1-0.7,0.4l-14.7,11C36.1,53.9,36,54,36,54.4v4.2c0,0.2,0.1,0.4,0.2,0.6L50.6,70c0.4,0.3,0.8,0.6,1,0.6
			c0.1,0,0.3-0.1,0.4-0.4l1.4-3.2c0.1-0.4,0.3-0.6,0.3-0.8s-0.1-0.4-0.3-0.5L41.6,57c-0.2-0.2-0.3-0.4-0.3-0.6S41.3,56.1,41.5,55.9z
			"/>
		<path id="svg_17" class="st4" d="M180.6,53.7l-14.4-10.8c-0.4-0.3-0.8-0.6-1-0.6s-0.3,0.1-0.4,0.4l-1.4,3.2
			c-0.1,0.4-0.3,0.6-0.3,0.8c0,0.2,0.1,0.4,0.3,0.5l11.8,8.7c0.2,0.2,0.3,0.4,0.3,0.6s-0.1,0.4-0.3,0.6l-11.9,8.8
			c-0.2,0.1-0.3,0.3-0.3,0.5s0.1,0.5,0.3,0.8l1.4,3c0.1,0.2,0.2,0.4,0.4,0.4s0.3-0.1,0.7-0.4l14.7-11c0.1-0.1,0.2-0.2,0.2-0.6v-4.2
			C180.8,54,180.8,53.8,180.6,53.7z"/>
		
			<text transform="matrix(1 0 0 1 3.0103 87.7286)" style="display:none;fill:#222222;enable-background:new    ; font-family:'Bender-Bold'; font-size:10px; letter-spacing:1;">quality focused devlopement</text>
	</g>
</g>
<g class="st0">
	<path class="st7" d="M82.9-21.1H89c0.2,0,0.6,0.1,1.2,0.3c0.6,0.2,1.1,0.8,1.4,1.9l20.1,65.6h-5.9c-0.2,0-0.6-0.1-1.2-0.3
		c-0.6-0.2-1.2-0.8-1.5-1.9L82.9-21.1z"/>
</g>
<g class="st0">
	<path class="st7" d="M91.5,44.5c-0.4,1.1-0.9,1.7-1.5,1.9c-0.6,0.2-1,0.3-1.2,0.3h-5.9c3.6-11.8,7.3-23.7,10.9-35.5
		c0.1-0.2,0.2-0.7,0.2-0.7c2,2.2,4,4.3,6.1,6.5c0,0-0.3,0.9-0.4,1.4C96.9,27.1,94.2,35.8,91.5,44.5z"/>
</g>
<text transform="matrix(-1.2272 0 0 1 124.5365 96.1008)" class="st8 st9 st10">/</text>
<g>
	<g>
		<title>Layer 1</title>
		
			<g id="g10_1_" transform="matrix(3.2289142891555582,0,0,-3.2082611676707145,-174.48642021207417,204.31538854683444) " class="st0">
			<g id="g12_1_" class="st1">
				<path id="path14_1_" class="st11" d="M61.4,5.1l-9.5,16.4l9.5,16.4h18.9l9.5-16.4L80.4,5.1H61.4z"/>
			</g>
			<g id="g16_1_" class="st1">
				<g>
					<g>
						<g>
							<rect id="SVGID_3_" x="-5.4" y="89.1" class="st11" width="152.6" height="-135.3"/>
						</g>
						<g>
							<defs>
								<rect id="SVGID_4_" x="-175.5" y="-195.6" width="492.7" height="434.1"/>
							</defs>
							<clipPath id="SVGID_5_">
								<use xlink:href="#SVGID_4_"  style="overflow:visible;"/>
							</clipPath>
							<g id="g18_1_" class="st12">
								<g id="g24_1_">
									<path id="path26_1_" class="st11" d="M64.1,9.7h13.6l6.8,11.7l-6.8,11.7H64.1l-6.8-11.6L64.1,9.7z M80.4,0.4h-19
										c-1.7,0-3.2,0.9-4.1,2.3l-9.4,16.5c-0.9,1.5-0.9,3.2,0,4.7l9.5,16.4c0.9,1.5,2.4,2.3,4.1,2.3h18.9c1.7,0,3.2-0.9,4.1-2.3
										L94,23.9c0.9-1.5,0.9-3.2,0-4.7L84.4,2.8C83.6,1.3,82.1,0.4,80.4,0.4"/>
								</g>
							</g>
						</g>
					</g>
				</g>
			</g>
		</g>
		<g id="svg_18_1_">
			<path id="svg_9_1_" class="st5" d="M46.3,115.2c-0.1,0.2-0.1,0.5-0.1,0.7l9.2,19.7c0.1,0.2,0.3,0.5,0.9,0.5h2.5
				c0.3,0,0.7-0.1,0.8-0.3c0.1-0.2,0.1-0.5,0.1-0.7l-9.2-19.7c-0.1-0.3-0.5-0.5-0.9-0.5H47C46.7,114.8,46.5,115,46.3,115.2z"/>
			<path id="svg_13_5_" class="st5" d="M58.4,138.5c-0.1-0.2-0.2-0.3-0.4-0.3h-3.5c-0.2,0-0.3,0.1-0.4,0.3l-7.7,20.9
				c-0.1,0.3,0.1,0.5,0.4,0.5h3.8l5.3-14.5l5.3,14.5h4.2c0.4,0,0.5-0.2,0.4-0.5L58.4,138.5z"/>
			<g class="st0">
				<path id="svg_13_4_" class="st6" d="M50.4,114.8c-0.1-0.2-0.2-0.3-0.4-0.3c-1.1,0-2.1,0-3.2,0c2.4,7.2,4.9,14.3,7.3,21.5
					c1.2,0,2.4,0,3.6,0c0.4,0,0.5-0.2,0.4-0.5L50.4,114.8z"/>
				<path id="svg_13_3_" class="st6" d="M53.4,135.8c0.1,0.2,0.2,0.3,0.4,0.3c0.9,0,1.9,0,2.8,0c-2.5-7.1-4.9-14.3-7.4-21.5
					c-1.1,0-2.1,0-3.1,0c-0.4,0-0.5,0.2-0.4,0.5L53.4,135.8z"/>
			</g>
			
				<text transform="matrix(1 0 0 1 -210.8795 458.9748)" style="display:none;fill:#222222;enable-background:new    ; font-family:'Bender-Bold'; font-size:6.6841px;">quality focused devlopement</text>
		</g>
	</g>
</g>
<g>
	<g>
		<path class="st13" d="M90.1,9.8c0,0,2.9,9.1,8.5,27.4c-2,0-3.9,0-5.9,0c-0.1,0-0.5-0.1-1.2-0.3c-1-0.3-1.3-1.4-1.5-1.8
			c-1.5-3.7-7.2-23.5-7.2-23.5L90.1,9.8z"/>
	</g>
	<g>
		<path class="st13" d="M83.5,14.1c0,0-1.7-5.5-3-9.6c2,0,3.9,0,5.9,0c0.1,0,0.5,0.1,1.2,0.3c1,0.3,1.5,1.8,1.5,1.8l1.8,5.9
			C88.4,13,86,13.5,83.5,14.1z"/>
	</g>
</g>
<g>
	<g>
		<path class="st13" d="M99.9,45.4c0.7,2.3,1.4,4.6,2.1,6.8c2.2,6.9,4.3,13.8,6.3,20.6c-0.7,0-6.4,0-5.9,0s-0.7-0.1-1.2-0.3
			c-0.9-0.5-1.3-1.3-1.5-1.8c-3.2-7.5-7.2-23.5-7.2-23.5l0,0L99.9,45.4z"/>
	</g>
	<g>
		<path class="st13" d="M93.3,49.7c0.5-3.2,1-6.5,1.6-9.7c0.3,0,0.8,0,1.4,0c0.6,0.1,0.9,0.2,1.2,0.3c1,0.6,1.5,1.9,1.5,1.9
			c0.3,1.1,0.7,2.1,1,3.2c0.3,0.9,0.5,1.8,0.8,2.7c-1.2,0.2-2.4,0.5-3.7,0.8C95.8,49.1,94.6,49.4,93.3,49.7z"/>
	</g>
</g>
<g>
	<g>
		<path class="st13" d="M96.1,47.2c0,0-5.7,19.7-7.2,23.5c-0.2,0.5-0.5,1.6-1.5,1.8c-0.6,0.2-1,0.3-1.2,0.3c-2,0-3.9,0-5.9,0
			c5.6-18.3,8.5-27.4,8.5-27.4L96.1,47.2z"/>
	</g>
	<g>
		<path class="st13" d="M88,48.1c0.6-2,1.2-3.9,1.7-5.9c0.1-0.3,0.5-1.2,1.5-1.8c0.5-0.3,1-0.4,1.3-0.4c0.8,0,1.6,0,2.4,0
			c0.1,3.3,0.3,6.6,0.4,9.8c-1.2-0.3-2.4-0.6-3.7-0.9C90.4,48.6,89.2,48.3,88,48.1z"/>
	</g>
</g>
</svg>
