<svg data-v-423bf9ae="" xmlns="http://www.w3.org/2000/svg" viewBox="0 0 358.78952584693985 60" class="font"><!----><!----><!----><g data-v-423bf9ae="" id="b40c7416-9d69-4a35-86a6-9d4d09ef8671" fill="white" transform="matrix(4.966871738433838,0,0,4.966871738433838,-4.13979434967041,-18.575908660888672)"><path d="M9.35 15.29C9.72 15.12 10.07 14.92 10.40 14.69L10.40 14.67L10.42 14.67C10.42 14.66 10.42 14.66 10.43 14.66C10.54 14.56 10.56 14.38 10.44 14.27L9.39 13.02C9.31 12.91 9.14 12.88 9.03 12.95C9.03 12.96 9.02 12.96 9.02 12.96C7.42 14.04 5.22 13.76 3.95 12.26C2.58 10.64 2.77 8.22 4.38 6.85C5.66 5.77 7.45 5.66 8.81 6.45C8.92 6.51 9.03 6.50 9.11 6.43L10.43 5.32C10.54 5.22 10.56 5.04 10.44 4.91L10.42 4.89L10.37 4.86C8.18 3.29 5.11 3.35 2.97 5.17C0.42 7.32 0.11 11.14 2.27 13.68C4.05 15.78 6.96 16.35 9.35 15.29ZM20.06 15.37L17.84 11.42L17.53 10.89L17.46 10.77C19.49 10.32 20.54 8.82 20.54 7.35C20.54 6.38 20.09 5.46 19.32 4.82C18.54 4.14 17.43 3.79 16.16 3.79L12.07 3.79C11.91 3.79 11.79 3.92 11.79 4.06L11.79 5.17L11.93 5.42L11.93 5.43L13.79 8.71L11.79 8.71L11.79 15.54C11.79 15.69 11.91 15.82 12.07 15.82L13.71 15.82C13.85 15.82 13.97 15.69 13.97 15.54L13.97 10.89L15.02 10.89L15.32 11.42L17.71 15.65L17.74 15.69C17.78 15.76 17.86 15.82 17.96 15.82L19.84 15.82C19.99 15.82 20.10 15.69 20.10 15.53C20.10 15.48 20.10 15.44 20.08 15.40ZM16.00 8.19L14.76 5.98L16.16 5.98C17.67 5.98 18.34 6.69 18.34 7.35C18.34 7.91 17.84 8.53 16.70 8.68C16.58 8.69 16.44 8.71 16.30 8.71ZM29.88 4.06C29.88 4.10 29.88 4.13 29.86 4.17L29.83 4.21L26.80 10.05L26.33 10.96L23.90 15.62L23.88 15.67C23.88 15.68 23.88 15.68 23.87 15.68C23.83 15.75 23.74 15.81 23.65 15.81L21.80 15.81C21.64 15.81 21.53 15.68 21.53 15.51C21.53 15.48 21.53 15.46 21.55 15.43L21.59 15.34L24.42 9.91L21.55 4.20C21.53 4.14 21.52 4.10 21.52 4.06C21.52 4.03 21.52 3.99 21.53 3.96L21.57 3.88C21.63 3.81 21.70 3.77 21.80 3.77L23.62 3.77C23.72 3.77 23.81 3.82 23.86 3.91L25.66 7.52L27.51 3.95C27.52 3.93 27.52 3.92 27.52 3.92L27.55 3.88C27.59 3.81 27.68 3.77 27.76 3.77L29.61 3.77C29.76 3.77 29.88 3.91 29.88 4.06ZM38.25 4.79C37.42 4.13 36.29 3.78 34.96 3.78L31.14 3.78C30.98 3.78 30.86 3.91 30.86 4.06L30.86 5.18L33.01 8.69L30.86 8.69L30.86 15.53C30.86 15.68 30.98 15.81 31.14 15.81L32.77 15.81C32.93 15.81 33.04 15.68 33.04 15.53L33.04 10.89L34.99 10.89C36.30 10.88 37.44 10.54 38.25 9.88C39.07 9.23 39.54 8.30 39.54 7.34C39.54 6.36 39.07 5.43 38.25 4.79ZM33.91 5.96L34.96 5.96C36.53 5.96 37.35 6.65 37.35 7.34C37.35 7.92 36.74 8.51 35.55 8.67ZM48.37 5.68C48.37 5.84 48.22 5.96 48.03 5.96L45.36 5.96L45.36 15.47C45.36 15.65 45.23 15.81 45.09 15.81L43.44 15.81C43.30 15.81 43.18 15.65 43.18 15.47L43.18 5.96L40.45 5.96C40.29 5.96 40.17 5.84 40.17 5.68L40.17 4.05C40.17 3.89 40.29 3.78 40.45 3.78L48.03 3.78C48.22 3.78 48.37 3.89 48.37 4.05ZM56.57 11.16C56.57 11.00 56.45 10.89 56.29 10.89L55.37 10.89L53.66 4.05L53.65 3.98C53.61 3.88 53.51 3.81 53.40 3.81L51.56 3.81C51.45 3.81 51.35 3.88 51.31 3.98L51.30 4.06L48.45 15.41C48.45 15.43 48.45 15.44 48.44 15.44L48.44 15.50C48.44 15.67 48.57 15.79 48.71 15.79L50.40 15.79C50.51 15.79 50.62 15.71 50.65 15.60C50.65 15.58 50.67 15.57 50.67 15.57L51.28 13.06L53.68 13.06L54.29 15.55L54.31 15.60C54.35 15.71 54.45 15.79 54.56 15.79L56.25 15.79C56.41 15.79 56.52 15.67 56.52 15.50L56.52 15.47L56.50 15.40L55.92 13.06L56.29 13.06C56.45 13.06 56.57 12.95 56.57 12.80ZM51.83 10.89L52.49 8.30L53.13 10.89ZM64.96 15.54C64.96 15.69 64.81 15.81 64.61 15.81L58.67 15.81C58.52 15.81 58.39 15.69 58.39 15.54L58.39 4.12C58.39 3.93 58.52 3.78 58.67 3.78L60.31 3.78C60.47 3.78 60.58 3.93 60.58 4.12L60.58 13.62L64.61 13.62C64.81 13.62 64.96 13.75 64.96 13.90ZM73.07 15.54C73.07 15.69 72.91 15.81 72.72 15.81L66.78 15.81C66.63 15.81 66.50 15.69 66.50 15.54L66.50 4.12C66.50 3.93 66.63 3.78 66.78 3.78L68.42 3.78C68.57 3.78 68.68 3.93 68.68 4.12L68.68 13.62L72.72 13.62C72.91 13.62 73.07 13.75 73.07 13.90Z"></path></g><!----><!----></svg>