<svg data-v-fde0c5aa="" xmlns="http://www.w3.org/2000/svg" viewBox="0 0 300 300" class="iconLeftSlogan"><!----><defs data-v-fde0c5aa=""><!----></defs><rect data-v-fde0c5aa="" fill="transparent" x="0" y="0" width="300px" height="300px" class="logo-background-square"></rect><defs data-v-fde0c5aa=""><!----></defs><g data-v-fde0c5aa="" id="e93be881-3561-40dd-9649-bd5593e9d6a7" fill="#000000" transform="matrix(2.1594395637512207,0,0,2.1594395637512207,102.20974427311253,118.88072241612336)"><path d="M9.35 15.29C9.72 15.12 10.07 14.92 10.40 14.69L10.40 14.67L10.42 14.67C10.42 14.66 10.42 14.66 10.43 14.66C10.54 14.56 10.56 14.38 10.44 14.27L9.39 13.02C9.31 12.91 9.14 12.88 9.03 12.95C9.03 12.96 9.02 12.96 9.02 12.96C7.42 14.04 5.22 13.76 3.95 12.26C2.58 10.64 2.77 8.22 4.38 6.85C5.66 5.77 7.45 5.66 8.81 6.45C8.92 6.51 9.03 6.50 9.11 6.43L10.43 5.32C10.54 5.22 10.56 5.04 10.44 4.91L10.42 4.89L10.37 4.86C8.18 3.29 5.11 3.35 2.97 5.17C0.42 7.32 0.11 11.14 2.27 13.68C4.05 15.78 6.96 16.35 9.35 15.29ZM20.06 15.37L17.84 11.42L17.53 10.89L17.46 10.77C19.49 10.32 20.54 8.82 20.54 7.35C20.54 6.38 20.09 5.46 19.32 4.82C18.54 4.14 17.43 3.79 16.16 3.79L12.07 3.79C11.91 3.79 11.79 3.92 11.79 4.06L11.79 5.17L11.93 5.42L11.93 5.43L13.79 8.71L11.79 8.71L11.79 15.54C11.79 15.69 11.91 15.82 12.07 15.82L13.71 15.82C13.85 15.82 13.97 15.69 13.97 15.54L13.97 10.89L15.02 10.89L15.32 11.42L17.71 15.65L17.74 15.69C17.78 15.76 17.86 15.82 17.96 15.82L19.84 15.82C19.99 15.82 20.10 15.69 20.10 15.53C20.10 15.48 20.10 15.44 20.08 15.40ZM16.00 8.19L14.76 5.98L16.16 5.98C17.67 5.98 18.34 6.69 18.34 7.35C18.34 7.91 17.84 8.53 16.70 8.68C16.58 8.69 16.44 8.71 16.30 8.71ZM29.88 4.06C29.88 4.10 29.88 4.13 29.86 4.17L29.83 4.21L26.80 10.05L26.33 10.96L23.90 15.62L23.88 15.67C23.88 15.68 23.88 15.68 23.87 15.68C23.83 15.75 23.74 15.81 23.65 15.81L21.80 15.81C21.64 15.81 21.53 15.68 21.53 15.51C21.53 15.48 21.53 15.46 21.55 15.43L21.59 15.34L24.42 9.91L21.55 4.20C21.53 4.14 21.52 4.10 21.52 4.06C21.52 4.03 21.52 3.99 21.53 3.96L21.57 3.88C21.63 3.81 21.70 3.77 21.80 3.77L23.62 3.77C23.72 3.77 23.81 3.82 23.86 3.91L25.66 7.52L27.51 3.95C27.52 3.93 27.52 3.92 27.52 3.92L27.55 3.88C27.59 3.81 27.68 3.77 27.76 3.77L29.61 3.77C29.76 3.77 29.88 3.91 29.88 4.06ZM38.25 4.79C37.42 4.13 36.29 3.78 34.96 3.78L31.14 3.78C30.98 3.78 30.86 3.91 30.86 4.06L30.86 5.18L33.01 8.69L30.86 8.69L30.86 15.53C30.86 15.68 30.98 15.81 31.14 15.81L32.77 15.81C32.93 15.81 33.04 15.68 33.04 15.53L33.04 10.89L34.99 10.89C36.30 10.88 37.44 10.54 38.25 9.88C39.07 9.23 39.54 8.30 39.54 7.34C39.54 6.36 39.07 5.43 38.25 4.79ZM33.91 5.96L34.96 5.96C36.53 5.96 37.35 6.65 37.35 7.34C37.35 7.92 36.74 8.51 35.55 8.67ZM48.37 5.68C48.37 5.84 48.22 5.96 48.03 5.96L45.36 5.96L45.36 15.47C45.36 15.65 45.23 15.81 45.09 15.81L43.44 15.81C43.30 15.81 43.18 15.65 43.18 15.47L43.18 5.96L40.45 5.96C40.29 5.96 40.17 5.84 40.17 5.68L40.17 4.05C40.17 3.89 40.29 3.78 40.45 3.78L48.03 3.78C48.22 3.78 48.37 3.89 48.37 4.05ZM56.57 11.16C56.57 11.00 56.45 10.89 56.29 10.89L55.37 10.89L53.66 4.05L53.65 3.98C53.61 3.88 53.51 3.81 53.40 3.81L51.56 3.81C51.45 3.81 51.35 3.88 51.31 3.98L51.30 4.06L48.45 15.41C48.45 15.43 48.45 15.44 48.44 15.44L48.44 15.50C48.44 15.67 48.57 15.79 48.71 15.79L50.40 15.79C50.51 15.79 50.62 15.71 50.65 15.60C50.65 15.58 50.67 15.57 50.67 15.57L51.28 13.06L53.68 13.06L54.29 15.55L54.31 15.60C54.35 15.71 54.45 15.79 54.56 15.79L56.25 15.79C56.41 15.79 56.52 15.67 56.52 15.50L56.52 15.47L56.50 15.40L55.92 13.06L56.29 13.06C56.45 13.06 56.57 12.95 56.57 12.80ZM51.83 10.89L52.49 8.30L53.13 10.89ZM64.96 15.54C64.96 15.69 64.81 15.81 64.61 15.81L58.67 15.81C58.52 15.81 58.39 15.69 58.39 15.54L58.39 4.12C58.39 3.93 58.52 3.78 58.67 3.78L60.31 3.78C60.47 3.78 60.58 3.93 60.58 4.12L60.58 13.62L64.61 13.62C64.81 13.62 64.96 13.75 64.96 13.90ZM73.07 15.54C73.07 15.69 72.91 15.81 72.72 15.81L66.78 15.81C66.63 15.81 66.50 15.69 66.50 15.54L66.50 4.12C66.50 3.93 66.63 3.78 66.78 3.78L68.42 3.78C68.57 3.78 68.68 3.93 68.68 4.12L68.68 13.62L72.72 13.62C72.91 13.62 73.07 13.75 73.07 13.90Z"></path></g><defs data-v-fde0c5aa=""><linearGradient data-v-fde0c5aa="" gradientTransform="rotate(25)" id="21ad3537-ed15-437b-8916-f07488fcbf3a" x1="0%" y1="0%" x2="100%" y2="0%"><stop data-v-fde0c5aa="" offset="0%" stop-color="#8E42D3" stop-opacity="1"></stop><stop data-v-fde0c5aa="" offset="100%" stop-color="#D46975" stop-opacity="1"></stop></linearGradient></defs><g data-v-fde0c5aa="" id="ca61cc5e-95e4-4b1c-91bb-0a5beedb7ccb" stroke="none" fill="url(#21ad3537-ed15-437b-8916-f07488fcbf3a)" transform="matrix(0.5139999389648438,0,0,0.5139999389648438,40.0010384950674,124.42223608442974)"><path d="M98.891 31.017a2.172 2.172 0 0 0-2.112-2.127l-18.492-.527a2.184 2.184 0 0 0-1.398.458l-8.403 6.545-1.024-7.76a2.174 2.174 0 0 0-2.832-1.783l-9.507 3.108-9.606-19.606a2.171 2.171 0 0 0-1.08-1.035L25.932.183a2.175 2.175 0 0 0-3.041 1.83l-1.496 20.064a2.177 2.177 0 0 0 .391 1.414l21.965 31.168-19.053 25.229a2.176 2.176 0 0 0-.342 1.952l4.983 16.149a2.173 2.173 0 0 0 2.994 1.332l19.136-8.891a2.189 2.189 0 0 0 1.06-1.064l7.317-15.927 14.163 1.328c1.088.1 2.08-.616 2.324-1.68l2.043-8.929 19.99-14.965a2.177 2.177 0 0 0 .872-1.787l-.347-16.389zM41.962 11.953l10.084 20.59a2.175 2.175 0 0 0 2.628 1.11l6.088-1.991L56.43 45.35a2.176 2.176 0 0 0 3.454 2.336l7.502-6.173c.278-.074.541-.203.775-.385l10.782-8.397 14.512.413-22.15 22.809a2.182 2.182 0 0 0-.615 1.605c.025.597.295 1.156.746 1.549l3.117 2.716a2.07 2.07 0 0 0-.236.587l-1.372 5.989-18.223-14.587a2.147 2.147 0 0 0-.107-.271L38.409 19.866a2.175 2.175 0 0 0-2.118-1.226l-10.335.759 1.043-14.001 14.963 6.555zM28.838 81.62l18.696-24.756 3.568.178 2.034 5.62a2.157 2.157 0 0 0-.445.478L32.394 93.145 28.838 81.62z"></path><path d="M36.481 54.049a2.172 2.172 0 0 0-1.493-1.816L13.556 45.33a2.175 2.175 0 0 0-2.229.558L.611 56.968a2.17 2.17 0 0 0 .631 3.474l14.167 6.722a2.177 2.177 0 0 0 2.058-.105l17.981-10.897a2.173 2.173 0 0 0 1.033-2.113zm-22.969-4.165l14.806 4.768c-.085.001-.171-.001-.258.01L6.62 57.367c-.16.021-.311.063-.458.116l7.35-7.599z"></path></g><defs data-v-fde0c5aa=""><!----></defs><g data-v-fde0c5aa="" id="5702d8d4-8fcd-43d1-b7e4-2030abaf5089" fill="#000000" transform="matrix(0.3290242552757263,0,0,0.3290242552757263,103.91746956468302,161.95727660294008)"><path d="M0.28 3.81L0.28 3.81L0.28 3.81Q0.28 3.65 0.44 3.61L0.44 3.61L0.44 3.61Q0.60 3.57 1.15 3.57L1.15 3.57L1.15 3.57Q1.23 3.57 1.53 3.58L1.53 3.58L1.53 3.58Q1.83 3.60 1.96 3.60L1.96 3.60L1.96 3.60Q2.11 3.60 2.53 3.59L2.53 3.59L2.53 3.59Q2.94 3.58 3.15 3.58L3.15 3.58L3.15 3.58Q3.85 3.58 3.85 3.75L3.85 3.75L3.85 3.75Q3.85 3.91 3.56 4.01L3.56 4.01L3.56 4.01Q3.26 4.12 3.26 4.24L3.26 4.24L3.26 4.24Q3.26 4.38 3.35 4.61L3.35 4.61L3.35 4.61Q3.44 4.83 3.54 4.97L3.54 4.97L3.54 4.97Q3.63 5.11 3.81 5.38L3.81 5.38L3.81 5.38Q3.99 5.64 4.02 5.70L4.02 5.70L4.02 5.70Q4.49 6.45 5.00 7.14L5.00 7.14L5.00 7.14Q5.52 7.83 5.59 7.83L5.59 7.83L5.59 7.83Q5.67 7.83 5.80 7.66L5.80 7.66L5.80 7.66Q5.92 7.50 6.15 7.13L6.15 7.13L6.15 7.13Q6.37 6.75 6.52 6.52L6.52 6.52L6.52 6.52Q6.57 6.45 6.73 6.22L6.73 6.22L6.73 6.22Q6.89 5.98 6.95 5.88L6.95 5.88L6.95 5.88Q7.01 5.78 7.14 5.58L7.14 5.58L7.14 5.58Q7.27 5.38 7.32 5.27L7.32 5.27L7.32 5.27Q7.38 5.17 7.46 5.02L7.46 5.02L7.46 5.02Q7.53 4.87 7.56 4.77L7.56 4.77L7.56 4.77Q7.59 4.68 7.59 4.59L7.59 4.59L7.59 4.59Q7.59 4.14 7.11 4.03L7.11 4.03L7.11 4.03Q7.06 4.02 6.95 4.00L6.95 4.00L6.95 4.00Q6.85 3.99 6.80 3.98L6.80 3.98L6.80 3.98Q6.75 3.96 6.68 3.93L6.68 3.93L6.68 3.93Q6.61 3.91 6.58 3.86L6.58 3.86L6.58 3.86Q6.55 3.81 6.55 3.74L6.55 3.74L6.55 3.74Q6.55 3.57 6.94 3.57L6.94 3.57L6.94 3.57Q7.01 3.57 7.20 3.58L7.20 3.58L7.20 3.58Q7.39 3.58 7.52 3.58L7.52 3.58L7.52 3.58Q7.84 3.58 8.29 3.59L8.29 3.59L8.29 3.59Q8.75 3.60 9.00 3.60L9.00 3.60L9.00 3.60Q9.69 3.60 9.69 3.81L9.69 3.81L9.69 3.81Q9.69 3.86 9.60 3.91L9.60 3.91L9.60 3.91Q9.52 3.95 9.37 4.02L9.37 4.02L9.37 4.02Q9.21 4.09 9.09 4.19L9.09 4.19L9.09 4.19Q8.51 4.63 7.40 6.31L7.40 6.31L7.40 6.31Q6.29 7.99 6.13 8.19L6.13 8.19L6.13 8.19Q5.91 8.47 5.85 8.81L5.85 8.81L5.85 8.81Q5.80 9.14 5.80 9.95L5.80 9.95L5.80 9.95Q5.80 10.14 5.80 10.73L5.80 10.73L5.80 10.73Q5.81 11.33 5.81 11.58L5.81 11.58L5.81 11.91L5.81 11.91Q5.81 12.38 5.97 12.64L5.97 12.64L5.97 12.64Q6.13 12.91 6.27 12.96L6.27 12.96L6.27 12.96Q6.41 13.01 6.55 13.01L6.55 13.01L6.55 13.01Q6.58 13.01 6.69 13.01L6.69 13.01L6.69 13.01Q6.80 13.02 6.83 13.02L6.83 13.02L6.83 13.02Q6.93 13.02 6.99 13.08L6.99 13.08L6.99 13.08Q7.04 13.15 7.04 13.22L7.04 13.22L7.04 13.22Q7.04 13.36 6.97 13.40L6.97 13.40L6.97 13.40Q6.90 13.44 6.71 13.44L6.71 13.44L6.71 13.44Q6.64 13.44 6.10 13.43L6.10 13.43L6.10 13.43Q5.56 13.43 5.31 13.43L5.31 13.43L5.31 13.43Q4.82 13.43 4.41 13.45L4.41 13.45L4.41 13.45Q4.00 13.48 3.77 13.48L3.77 13.48L3.77 13.48Q3.37 13.48 3.37 13.33L3.37 13.33L3.37 13.33Q3.37 13.20 3.45 13.15L3.45 13.15L3.45 13.15Q3.53 13.10 3.71 13.09L3.71 13.09L3.71 13.09Q3.89 13.08 3.98 13.05L3.98 13.05L3.98 13.05Q4.56 12.87 4.56 12.19L4.56 12.19L4.56 12.19Q4.56 12.11 4.57 11.92L4.57 11.92L4.57 11.92Q4.58 11.73 4.58 11.12L4.58 11.12L4.58 11.12Q4.59 10.50 4.59 9.35L4.59 9.35L4.59 9.35Q4.59 9.13 4.56 8.97L4.56 8.97L4.56 8.97Q4.52 8.81 4.47 8.65L4.47 8.65L4.47 8.65Q4.42 8.50 4.24 8.20L4.24 8.20L4.24 8.20Q4.05 7.91 3.86 7.64L3.86 7.64L3.86 7.64Q3.68 7.36 3.24 6.72L3.24 6.72L3.24 6.72Q2.80 6.08 2.39 5.46L2.39 5.46L2.39 5.46Q1.96 4.80 1.61 4.46L1.61 4.46L1.61 4.46Q1.26 4.12 1.07 4.05L1.07 4.05L1.07 4.05Q0.88 3.99 0.63 3.99L0.63 3.99L0.63 3.99Q0.28 3.99 0.28 3.81ZM17.18 8.69L17.18 8.69L17.18 8.69Q17.18 6.34 18.59 4.84L18.59 4.84L18.59 4.84Q20.01 3.33 22.60 3.33L22.60 3.33L22.60 3.33Q23.80 3.33 24.77 3.68L24.77 3.68L24.77 3.68Q25.73 4.03 26.29 4.54L26.29 4.54L26.29 4.54Q26.85 5.05 27.23 5.71L27.23 5.71L27.23 5.71Q27.61 6.37 27.75 6.92L27.75 6.92L27.75 6.92Q27.89 7.48 27.89 7.95L27.89 7.95L27.89 7.95Q27.89 9.86 27.15 11.16L27.15 11.16L27.15 11.16Q26.40 12.47 25.19 13.07L25.19 13.07L25.19 13.07Q23.98 13.66 22.40 13.66L22.40 13.66L22.40 13.66Q20.73 13.66 19.52 12.94L19.52 12.94L19.52 12.94Q18.31 12.21 17.74 11.10L17.74 11.10L17.74 11.10Q17.18 10.00 17.18 8.69ZM18.41 7.98L18.41 7.98L18.41 7.98Q18.41 8.54 18.56 9.19L18.56 9.19L18.56 9.19Q18.72 9.84 19.07 10.54L19.07 10.54L19.07 10.54Q19.42 11.23 19.91 11.78L19.91 11.78L19.91 11.78Q20.41 12.33 21.17 12.69L21.17 12.69L21.17 12.69Q21.94 13.05 22.85 13.05L22.85 13.05L22.85 13.05Q23.32 13.05 23.85 12.90L23.85 12.90L23.85 12.90Q24.37 12.75 24.89 12.45L24.89 12.45L24.89 12.45Q25.41 12.14 25.82 11.70L25.82 11.70L25.82 11.70Q26.22 11.26 26.48 10.62L26.48 10.62L26.48 10.62Q26.74 9.98 26.74 9.24L26.74 9.24L26.74 9.24Q26.74 6.71 25.41 5.30L25.41 5.30L25.41 5.30Q24.08 3.89 22.12 3.89L22.12 3.89L22.12 3.89Q20.58 3.89 19.49 4.93L19.49 4.93L19.49 4.93Q18.41 5.96 18.41 7.98ZM35.78 3.68L35.78 3.68L35.78 3.68Q35.78 3.61 35.80 3.58L35.80 3.58L35.80 3.58Q35.81 3.56 35.88 3.53L35.88 3.53L35.88 3.53Q35.95 3.50 36.11 3.50L36.11 3.50L36.11 3.50Q36.26 3.50 36.75 3.53L36.75 3.53L36.75 3.53Q37.24 3.56 37.69 3.56L37.69 3.56L37.69 3.56Q37.97 3.56 38.20 3.54L38.20 3.54L38.20 3.54Q38.43 3.53 39.00 3.53L39.00 3.53L39.00 3.53Q39.30 3.53 39.30 3.72L39.30 3.72L39.30 3.72Q39.30 3.85 39.20 3.88L39.20 3.88L39.20 3.88Q39.10 3.91 38.95 3.92L38.95 3.92L38.95 3.92Q38.81 3.93 38.66 4.02L38.66 4.02L38.66 4.02Q38.51 4.10 38.42 4.43L38.42 4.43L38.42 4.43Q38.32 4.76 38.32 5.32L38.32 5.32L38.32 5.71L38.32 5.71Q38.32 6.37 38.31 7.37L38.31 7.37L38.31 7.37Q38.30 8.37 38.30 8.74L38.30 8.74L38.30 8.74Q38.30 9.17 38.31 9.39L38.31 9.39L38.31 9.39Q38.32 9.62 38.35 10.04L38.35 10.04L38.35 10.04Q38.37 10.47 38.42 10.72L38.42 10.72L38.42 10.72Q38.47 10.96 38.58 11.32L38.58 11.32L38.58 11.32Q38.70 11.68 38.86 11.89L38.86 11.89L38.86 11.89Q39.02 12.10 39.26 12.35L39.26 12.35L39.26 12.35Q39.51 12.60 39.83 12.73L39.83 12.73L39.83 12.73Q40.15 12.87 40.59 12.96L40.59 12.96L40.59 12.96Q41.02 13.05 41.55 13.05L41.55 13.05L41.55 13.05Q42 13.05 42.25 13.03L42.25 13.03L42.25 13.03Q42.50 13.02 42.95 12.94L42.95 12.94L42.95 12.94Q43.39 12.87 43.64 12.72L43.64 12.72L43.64 12.72Q43.90 12.57 44.23 12.27L44.23 12.27L44.23 12.27Q44.56 11.97 44.74 11.54L44.74 11.54L44.74 11.54Q44.93 11.10 45.05 10.43L45.05 10.43L45.05 10.43Q45.18 9.76 45.18 8.90L45.18 8.90L45.18 8.90Q45.18 7.49 45.17 6.75L45.17 6.75L45.17 6.75Q45.16 6.01 45.16 5.94L45.16 5.94L45.16 5.94Q45.16 5.45 45.14 5.17L45.14 5.17L45.14 5.17Q45.12 4.89 45.00 4.55L45.00 4.55L45.00 4.55Q44.88 4.21 44.66 4.06L44.66 4.06L44.66 4.06Q44.52 3.96 44.30 3.93L44.30 3.93L44.30 3.93Q44.07 3.89 43.93 3.87L43.93 3.87L43.93 3.87Q43.79 3.85 43.79 3.75L43.79 3.75L43.79 3.75Q43.79 3.53 44.07 3.53L44.07 3.53L44.07 3.53Q44.16 3.53 44.62 3.54L44.62 3.54L44.62 3.54Q45.08 3.56 45.15 3.56L45.15 3.56L45.15 3.56Q45.49 3.56 45.86 3.54L45.86 3.54L45.86 3.54Q46.24 3.51 46.34 3.51L46.34 3.51L46.34 3.51Q46.63 3.51 46.63 3.70L46.63 3.70L46.63 3.70Q46.63 3.81 46.33 3.98L46.33 3.98L46.33 3.98Q46.03 4.16 45.96 4.30L45.96 4.30L45.96 4.30Q45.81 4.59 45.81 5.22L45.81 5.22L45.81 5.22Q45.81 5.32 45.81 5.62L45.81 5.62L45.81 5.62Q45.82 5.92 45.82 6.16L45.82 6.16L45.82 6.16Q45.82 8.85 45.60 10.28L45.60 10.28L45.60 10.28Q45.37 11.70 44.92 12.36L44.92 12.36L44.92 12.36Q44.46 13.01 43.55 13.40L43.55 13.40L43.55 13.40Q42.81 13.71 41.55 13.71L41.55 13.71L41.55 13.71Q39.21 13.71 38.23 12.81L38.23 12.81L38.23 12.81Q37.46 12.10 37.28 11.09L37.28 11.09L37.28 11.09Q37.10 10.09 37.10 7.64L37.10 7.64L37.10 7.41L37.10 7.41Q37.10 6.86 37.11 6.20L37.11 6.20L37.11 6.20Q37.13 5.54 37.13 5.39L37.13 5.39L37.13 5.39Q37.13 4.62 36.95 4.33L36.95 4.33L36.95 4.33Q36.76 4.05 36.09 3.95L36.09 3.95L36.09 3.95Q35.78 3.91 35.78 3.68ZM54.19 3.70L54.19 3.70L54.19 3.70Q54.19 3.47 54.60 3.47L54.60 3.47L56.92 3.47L56.92 3.47Q57.25 3.47 57.67 3.45L57.67 3.45L57.67 3.45Q58.09 3.43 58.32 3.43L58.32 3.43L58.32 3.43Q59.58 3.43 60.48 4.07L60.48 4.07L60.48 4.07Q61.38 4.70 61.38 5.78L61.38 5.78L61.38 5.78Q61.38 6.50 61.10 7.03L61.10 7.03L61.10 7.03Q60.83 7.57 60.50 7.81L60.50 7.81L60.50 7.81Q60.17 8.05 59.90 8.22L59.90 8.22L59.90 8.22Q59.63 8.40 59.63 8.46L59.63 8.46L59.63 8.46Q59.63 8.62 60.80 10.27L60.80 10.27L60.80 10.27Q61.98 11.91 62.41 12.38L62.41 12.38L62.41 12.38Q62.94 13.03 63.70 13.03L63.70 13.03L63.70 13.03Q63.90 13.03 63.90 13.20L63.90 13.20L63.90 13.20Q63.90 13.41 63.73 13.48L63.73 13.48L63.73 13.48Q63.56 13.55 62.86 13.55L62.86 13.55L62.86 13.55Q62.20 13.55 61.66 13.23L61.66 13.23L61.66 13.23Q60.96 12.82 59.29 10.09L59.29 10.09L59.29 10.09Q59.19 9.94 59.15 9.87L59.15 9.87L59.15 9.87Q58.48 8.78 58.11 8.78L58.11 8.78L57.82 8.78L56.97 8.78L56.97 8.78Q56.80 8.78 56.76 8.92L56.76 8.92L56.76 8.92Q56.73 9.06 56.73 9.77L56.73 9.77L56.73 9.77Q56.73 10.44 56.73 10.88L56.73 10.88L56.73 10.88Q56.73 11.31 56.73 11.43L56.73 11.43L56.73 11.43Q56.74 11.55 56.74 11.63L56.74 11.63L56.74 11.63Q56.74 11.70 56.74 11.75L56.74 11.75L56.74 11.75Q56.74 12.32 57.01 12.63L57.01 12.63L57.01 12.63Q57.27 12.95 57.60 13.00L57.60 13.00L57.60 13.00Q57.93 13.05 58.20 13.11L58.20 13.11L58.20 13.11Q58.46 13.17 58.46 13.31L58.46 13.31L58.46 13.31Q58.46 13.54 58.21 13.54L58.21 13.54L58.21 13.54Q58.20 13.54 57.25 13.49L57.25 13.49L57.25 13.49Q56.29 13.44 56.21 13.44L56.21 13.44L56.21 13.44Q55.80 13.44 55.24 13.47L55.24 13.47L55.24 13.47Q54.68 13.50 54.67 13.50L54.67 13.50L54.67 13.50Q54.38 13.50 54.38 13.27L54.38 13.27L54.38 13.27Q54.38 13.12 54.56 13.05L54.56 13.05L54.56 13.05Q54.74 12.99 54.96 12.96L54.96 12.96L54.96 12.96Q55.19 12.94 55.37 12.66L55.37 12.66L55.37 12.66Q55.55 12.38 55.55 11.86L55.55 11.86L55.55 11.86Q55.55 11.49 55.56 9.90L55.56 9.90L55.56 9.90Q55.57 8.30 55.57 7.45L55.57 7.45L55.57 7.45Q55.57 6.58 55.56 5.86L55.56 5.86L55.56 5.86Q55.55 5.14 55.55 5.08L55.55 5.08L55.55 5.08Q55.55 4.56 55.34 4.29L55.34 4.29L55.34 4.29Q55.13 4.02 54.87 3.98L54.87 3.98L54.87 3.98Q54.61 3.95 54.40 3.89L54.40 3.89L54.40 3.89Q54.19 3.84 54.19 3.70ZM56.73 5.54L56.73 5.94L56.73 5.94Q56.73 7.38 56.74 7.72L56.74 7.72L56.74 7.72Q56.76 8.06 56.84 8.12L56.84 8.12L56.84 8.12Q57.05 8.25 57.44 8.25L57.44 8.25L57.58 8.25L57.99 8.25L57.99 8.25Q59.18 8.25 59.69 7.70L59.69 7.70L59.69 7.70Q60.20 7.15 60.20 6.30L60.20 6.30L60.20 6.30Q60.20 5.43 59.52 4.72L59.52 4.72L59.52 4.72Q58.84 4.00 57.47 4.00L57.47 4.00L57.47 4.00Q56.95 4.00 56.84 4.28L56.84 4.28L56.84 4.28Q56.73 4.55 56.73 5.54L56.73 5.54ZM81.56 8.69L81.56 8.69L81.56 8.69Q81.56 6.34 82.98 4.84L82.98 4.84L82.98 4.84Q84.39 3.33 86.98 3.33L86.98 3.33L86.98 3.33Q88.19 3.33 89.15 3.68L89.15 3.68L89.15 3.68Q90.12 4.03 90.68 4.54L90.68 4.54L90.68 4.54Q91.24 5.05 91.62 5.71L91.62 5.71L91.62 5.71Q91.99 6.37 92.13 6.92L92.13 6.92L92.13 6.92Q92.27 7.48 92.27 7.95L92.27 7.95L92.27 7.95Q92.27 9.86 91.53 11.16L91.53 11.16L91.53 11.16Q90.79 12.47 89.58 13.07L89.58 13.07L89.58 13.07Q88.37 13.66 86.79 13.66L86.79 13.66L86.79 13.66Q85.12 13.66 83.91 12.94L83.91 12.94L83.91 12.94Q82.70 12.21 82.13 11.10L82.13 11.10L82.13 11.10Q81.56 10.00 81.56 8.69ZM82.80 7.98L82.80 7.98L82.80 7.98Q82.80 8.54 82.95 9.19L82.95 9.19L82.95 9.19Q83.10 9.84 83.45 10.54L83.45 10.54L83.45 10.54Q83.80 11.23 84.30 11.78L84.30 11.78L84.30 11.78Q84.80 12.33 85.56 12.69L85.56 12.69L85.56 12.69Q86.32 13.05 87.23 13.05L87.23 13.05L87.23 13.05Q87.71 13.05 88.24 12.90L88.24 12.90L88.24 12.90Q88.76 12.75 89.28 12.45L89.28 12.45L89.28 12.45Q89.80 12.14 90.20 11.70L90.20 11.70L90.20 11.70Q90.61 11.26 90.87 10.62L90.87 10.62L90.87 10.62Q91.13 9.98 91.13 9.24L91.13 9.24L91.13 9.24Q91.13 6.71 89.80 5.30L89.80 5.30L89.80 5.30Q88.47 3.89 86.51 3.89L86.51 3.89L86.51 3.89Q84.97 3.89 83.88 4.93L83.88 4.93L83.88 4.93Q82.80 5.96 82.80 7.98ZM99.96 3.77L99.96 3.77L99.96 3.77Q99.96 3.68 100.06 3.60L100.06 3.60L100.06 3.60Q100.16 3.53 100.31 3.53L100.31 3.53L100.31 3.53Q100.39 3.53 100.59 3.54L100.59 3.54L100.59 3.54Q100.79 3.54 100.84 3.54L100.84 3.54L100.84 3.54Q101.05 3.54 101.23 3.53L101.23 3.53L101.23 3.53Q101.42 3.51 101.53 3.51L101.53 3.51L101.53 3.51Q101.65 3.51 101.82 3.59L101.82 3.59L101.82 3.59Q101.99 3.67 102.02 3.75L102.02 3.75L102.02 3.75Q102.05 3.79 102.17 3.94L102.17 3.94L102.17 3.94Q102.30 4.09 102.51 4.33L102.51 4.33L102.51 4.33Q102.72 4.56 102.89 4.79L102.89 4.79L102.89 4.79Q104.79 7.27 107.98 10.77L107.98 10.77L107.98 10.77Q108.07 10.86 108.19 10.99L108.19 10.99L108.19 10.99Q108.30 11.12 108.35 11.18L108.35 11.18L108.35 11.18Q108.40 11.24 108.46 11.30L108.46 11.30L108.46 11.30Q108.51 11.35 108.55 11.38L108.55 11.38L108.55 11.38Q108.58 11.40 108.61 11.40L108.61 11.40L108.61 11.40Q108.75 11.40 108.75 10.53L108.75 10.53L108.75 8.89L108.75 8.89Q108.75 7.95 108.75 7.31L108.75 7.31L108.75 7.31Q108.74 6.66 108.73 6.38L108.73 6.38L108.73 6.38Q108.72 6.09 108.72 6.02L108.72 6.02L108.72 5.92L108.72 5.92Q108.72 5.45 108.66 5.11L108.66 5.11L108.66 5.11Q108.60 4.77 108.51 4.59L108.51 4.59L108.51 4.59Q108.43 4.41 108.27 4.28L108.27 4.28L108.27 4.28Q108.11 4.16 108.00 4.12L108.00 4.12L108.00 4.12Q107.88 4.09 107.67 4.05L107.67 4.05L107.67 4.05Q107.46 4.00 107.38 3.98L107.38 3.98L107.38 3.98Q107.10 3.89 107.10 3.74L107.10 3.74L107.10 3.74Q107.10 3.53 107.37 3.53L107.37 3.53L107.37 3.53Q107.45 3.53 108.04 3.54L108.04 3.54L108.04 3.54Q108.63 3.54 108.70 3.54L108.70 3.54L108.70 3.54Q109.03 3.54 109.45 3.53L109.45 3.53L109.45 3.53Q109.86 3.51 109.96 3.51L109.96 3.51L109.96 3.51Q110.19 3.51 110.29 3.56L110.29 3.56L110.29 3.56Q110.38 3.61 110.38 3.75L110.38 3.75L110.38 3.75Q110.38 3.81 110.30 3.86L110.30 3.86L110.30 3.86Q110.22 3.91 110.14 3.94L110.14 3.94L110.14 3.94Q110.05 3.98 109.97 4.00L109.97 4.00L109.89 4.03L109.89 4.03Q109.42 4.28 109.42 5.61L109.42 5.61L109.42 6.15L109.42 6.15Q109.42 7.21 109.35 9.83L109.35 9.83L109.35 9.83Q109.27 12.46 109.27 13.08L109.27 13.08L109.27 13.36L109.27 13.36Q109.27 13.68 109.07 13.68L109.07 13.68L109.07 13.68Q108.95 13.68 108.85 13.58L108.85 13.58L108.85 13.58Q104.20 8.19 103.30 7.17L103.30 7.17L103.30 7.17Q102.40 6.16 102.30 6.16L102.30 6.16L102.30 6.16Q102.16 6.16 102.16 7.11L102.16 7.11L102.16 7.11Q102.16 8.44 102.10 9.97L102.10 9.97L102.10 9.97Q102.05 11.51 102.05 11.65L102.05 11.65L102.05 11.65Q102.05 12.28 102.26 12.61L102.26 12.61L102.26 12.61Q102.48 12.94 102.73 12.98L102.73 12.98L102.73 12.98Q102.98 13.02 103.20 13.07L103.20 13.07L103.20 13.07Q103.42 13.12 103.42 13.26L103.42 13.26L103.42 13.26Q103.42 13.41 103.37 13.45L103.37 13.45L103.37 13.45Q103.32 13.50 103.19 13.50L103.19 13.50L103.19 13.50Q103.10 13.50 102.75 13.48L102.75 13.48L102.75 13.48Q102.41 13.47 101.70 13.47L101.70 13.47L101.70 13.47Q101.57 13.47 101.18 13.48L101.18 13.48L101.18 13.48Q100.79 13.50 100.51 13.50L100.51 13.50L100.51 13.50Q100.20 13.50 100.20 13.27L100.20 13.27L100.20 13.27Q100.20 13.15 100.38 13.11L100.38 13.11L100.38 13.11Q100.56 13.08 100.83 12.89L100.83 12.89L100.83 12.89Q101.09 12.71 101.23 12.21L101.23 12.21L101.23 12.21Q101.32 11.89 101.44 9.60L101.44 9.60L101.44 9.60Q101.57 7.32 101.57 6.45L101.57 6.45L101.57 6.45Q101.57 5.25 101.23 4.65L101.23 4.65L101.23 4.65Q100.90 4.06 100.14 3.98L100.14 3.98L100.14 3.98Q99.96 3.96 99.96 3.77ZM118.13 3.65L118.13 3.65L118.13 3.65Q118.13 3.46 118.52 3.46L118.52 3.46L118.52 3.46Q118.58 3.46 118.71 3.47L118.71 3.47L118.71 3.47Q118.83 3.49 118.90 3.49L118.90 3.49L118.90 3.49Q118.94 3.49 120.22 3.52L120.22 3.52L120.22 3.52Q121.49 3.56 122.32 3.56L122.32 3.56L122.32 3.56Q122.61 3.56 123.77 3.53L123.77 3.53L123.77 3.53Q124.92 3.50 125.12 3.50L125.12 3.50L125.12 3.50Q125.38 3.50 125.38 3.82L125.38 3.82L125.38 3.82Q125.38 3.91 125.30 4.38L125.30 4.38L125.30 4.38Q125.22 4.84 125.22 5.25L125.22 5.25L125.22 5.25Q125.22 5.38 125.15 5.47L125.15 5.47L125.15 5.47Q125.08 5.56 124.99 5.56L124.99 5.56L124.99 5.56Q124.78 5.56 124.78 5.26L124.78 5.26L124.78 5.26Q124.78 4.89 124.54 4.58L124.54 4.58L124.54 4.58Q124.31 4.27 123.96 4.26L123.96 4.26L123.96 4.26Q122.70 4.16 122.02 4.16L122.02 4.16L121.66 4.16L121.66 4.16Q120.93 4.16 120.81 4.26L120.81 4.26L120.81 4.26Q120.69 4.37 120.67 5.01L120.67 5.01L120.67 5.01Q120.61 6.02 120.61 7.35L120.61 7.35L120.61 7.35Q120.61 8.05 120.88 8.06L120.88 8.06L121.23 8.06L121.81 8.06L122.25 8.06L122.25 8.06Q123.09 8.06 123.37 8.01L123.37 8.01L123.37 8.01Q123.65 7.95 123.87 7.80L123.87 7.80L123.87 7.80Q124.14 7.62 124.19 7.28L124.19 7.28L124.19 7.28Q124.24 7.04 124.39 7.04L124.39 7.04L124.39 7.04Q124.52 7.04 124.54 7.08L124.54 7.08L124.54 7.08Q124.57 7.13 124.57 7.27L124.57 7.27L124.57 7.27Q124.57 7.36 124.52 7.91L124.52 7.91L124.52 7.91Q124.46 8.46 124.46 8.74L124.46 8.74L124.46 8.74Q124.46 9.00 124.48 9.24L124.48 9.24L124.48 9.24Q124.50 9.48 124.50 9.59L124.50 9.59L124.50 9.59Q124.50 9.94 124.40 9.94L124.40 9.94L124.40 9.94Q124.19 9.94 124.10 9.60L124.10 9.60L124.10 9.60Q123.90 9.02 123.75 8.92L123.75 8.92L123.75 8.92Q123.45 8.72 122.40 8.72L122.40 8.72L122.40 8.72Q121.98 8.72 121.72 8.72L121.72 8.72L121.72 8.72Q121.46 8.72 121.39 8.71L121.39 8.71L121.39 8.71Q121.31 8.71 121.26 8.71L121.26 8.71L121.26 8.71Q121.21 8.71 121.17 8.71L121.17 8.71L121.17 8.71Q120.60 8.71 120.60 8.97L120.60 8.97L120.60 8.97Q120.60 9.38 120.58 9.99L120.58 9.99L120.58 9.99Q120.57 10.60 120.57 10.99L120.57 10.99L120.57 11.55L120.57 11.55Q120.57 12.56 120.90 12.66L120.90 12.66L120.90 12.66Q121.25 12.77 121.51 12.77L121.51 12.77L121.51 12.77Q122.56 12.77 123.35 12.67L123.35 12.67L123.35 12.67Q124.14 12.57 124.54 12.42L124.54 12.42L124.54 12.42Q124.94 12.28 125.20 12.10L125.20 12.10L125.20 12.10Q125.47 11.93 125.55 11.78L125.55 11.78L125.55 11.78Q125.62 11.63 125.70 11.54L125.70 11.54L125.70 11.54Q125.78 11.44 125.86 11.44L125.86 11.44L125.86 11.44Q126.03 11.44 126.03 11.68L126.03 11.68L126.03 11.68Q126.03 12.28 125.43 12.89L125.43 12.89L125.43 12.89Q124.82 13.51 124.38 13.51L124.38 13.51L124.38 13.51Q123.37 13.51 122.10 13.44L122.10 13.44L122.10 13.44Q120.83 13.37 120.53 13.37L120.53 13.37L120.53 13.37Q120.13 13.37 119.55 13.43L119.55 13.43L119.55 13.43Q118.96 13.50 118.62 13.50L118.62 13.50L118.62 13.50Q118.33 13.50 118.33 13.36L118.33 13.36L118.33 13.36Q118.33 13.23 118.33 13.19L118.33 13.19L118.33 13.19Q118.33 13.15 118.37 13.12L118.37 13.12L118.37 13.12Q118.41 13.09 118.46 13.08L118.46 13.08L118.46 13.08Q118.51 13.08 118.64 13.03L118.64 13.03L118.64 13.03Q118.78 12.99 118.93 12.92L118.93 12.92L118.93 12.92Q119.27 12.75 119.37 12.26L119.37 12.26L119.37 12.26Q119.48 11.77 119.48 10.21L119.48 10.21L119.48 8.47L119.48 8.47Q119.48 8.09 119.50 7.29L119.50 7.29L119.50 7.29Q119.52 6.50 119.52 6.05L119.52 6.05L119.52 6.05Q119.52 5.67 119.49 4.77L119.49 4.77L119.49 4.77Q119.48 4.37 119.14 4.14L119.14 4.14L119.14 4.14Q118.80 3.92 118.36 3.91L118.36 3.91L118.36 3.91Q118.13 3.91 118.13 3.65ZM133.92 11.41L133.92 11.41L133.92 11.26L133.92 11.26Q133.92 10.85 134.06 10.74L134.06 10.74L134.06 10.74Q134.19 10.63 134.72 10.47L134.72 10.47L134.72 10.47Q135.46 10.25 136.04 10.04L136.04 10.04L136.04 10.04Q136.61 9.84 136.82 9.76L136.82 9.76L136.82 9.76Q137.02 9.69 137.14 9.69L137.14 9.69L137.14 9.69Q137.45 9.69 137.45 10.16L137.45 10.16L137.45 10.25L137.45 10.25Q137.45 10.37 137.45 10.44L137.45 10.44L137.45 10.44Q137.44 10.51 137.39 10.58L137.39 10.58L137.39 10.58Q137.34 10.65 137.31 10.68L137.31 10.68L137.31 10.68Q137.27 10.71 137.14 10.77L137.14 10.77L137.14 10.77Q137.00 10.82 136.90 10.85L136.90 10.85L136.90 10.85Q136.79 10.88 136.55 10.95L136.55 10.95L136.55 10.95Q136.30 11.02 136.09 11.09L136.09 11.09L136.09 11.09Q135.70 11.21 135.32 11.35L135.32 11.35L135.32 11.35Q134.93 11.49 134.76 11.56L134.76 11.56L134.76 11.56Q134.58 11.62 134.43 11.66L134.43 11.66L134.43 11.66Q134.27 11.70 134.15 11.70L134.15 11.70L134.15 11.70Q133.92 11.70 133.92 11.41ZM143.70 3.71L143.70 3.71L143.70 3.71Q143.70 3.51 144.07 3.51L144.07 3.51L144.07 3.51Q144.16 3.51 144.61 3.54L144.61 3.54L144.61 3.54Q145.07 3.56 145.61 3.56L145.61 3.56L145.61 3.56Q146.01 3.56 146.40 3.54L146.40 3.54L146.40 3.54Q146.79 3.51 146.82 3.51L146.82 3.51L146.82 3.51Q146.94 3.51 146.98 3.55L146.98 3.55L146.98 3.55Q147.01 3.58 147.01 3.68L147.01 3.68L147.01 3.68Q147.01 3.77 146.71 3.92L146.71 3.92L146.71 3.92Q146.41 4.07 146.41 4.34L146.41 4.34L146.41 4.34Q146.41 4.47 146.47 4.65L146.47 4.65L146.47 4.65Q146.52 4.83 146.69 5.22L146.69 5.22L146.69 5.22Q146.86 5.61 147.05 6.03L147.05 6.03L147.05 6.03Q147.24 6.45 147.63 7.33L147.63 7.33L147.63 7.33Q148.02 8.20 148.40 9.07L148.40 9.07L148.40 9.07Q148.50 9.30 148.69 9.74L148.69 9.74L148.69 9.74Q148.88 10.18 149.00 10.46L149.00 10.46L149.00 10.46Q149.11 10.74 149.25 11.05L149.25 11.05L149.25 11.05Q149.39 11.37 149.49 11.52L149.49 11.52L149.49 11.52Q149.58 11.68 149.62 11.68L149.62 11.68L149.62 11.68Q149.67 11.68 150.07 10.81L150.07 10.81L150.07 10.81Q150.46 9.94 150.77 9.17L150.77 9.17L150.77 9.17Q150.82 9.04 150.90 8.89L150.90 8.89L150.90 8.89Q150.98 8.74 151.01 8.63L151.01 8.63L151.01 8.63Q151.05 8.53 151.05 8.41L151.05 8.41L151.05 8.41Q151.05 8.25 150.21 6.36L150.21 6.36L150.21 6.36Q149.37 4.48 149.13 4.21L149.13 4.21L149.13 4.21Q149.07 4.14 149.02 4.10L149.02 4.10L149.02 4.10Q148.96 4.06 148.91 4.02L148.91 4.02L148.91 4.02Q148.86 3.99 148.83 3.97L148.83 3.97L148.83 3.97Q148.79 3.95 148.74 3.94L148.74 3.94L148.74 3.94Q148.68 3.93 148.66 3.93L148.66 3.93L148.66 3.93Q148.64 3.93 148.58 3.93L148.58 3.93L148.58 3.93Q148.51 3.92 148.50 3.92L148.50 3.92L148.50 3.92Q148.11 3.88 148.02 3.84L148.02 3.84L148.02 3.84Q147.94 3.81 147.94 3.70L147.94 3.70L147.94 3.70Q147.94 3.50 148.34 3.50L148.34 3.50L148.34 3.50Q148.43 3.50 148.89 3.53L148.89 3.53L148.89 3.53Q149.35 3.56 149.88 3.56L149.88 3.56L149.88 3.56Q149.91 3.56 150.26 3.53L150.26 3.53L150.26 3.53Q150.61 3.50 150.81 3.50L150.81 3.50L150.81 3.50Q151.23 3.50 151.23 3.61L151.23 3.61L151.23 3.61Q151.23 3.70 151.07 3.78L151.07 3.78L151.07 3.78Q150.92 3.86 150.77 4.00L150.77 4.00L150.77 4.00Q150.63 4.13 150.63 4.33L150.63 4.33L150.63 4.33Q150.63 4.59 151.06 5.57L151.06 5.57L151.06 5.57Q151.09 5.63 151.25 6.03L151.25 6.03L151.25 6.03Q151.41 6.44 151.54 6.71L151.54 6.71L151.54 6.71Q151.66 6.99 151.72 6.99L151.72 6.99L151.72 6.99Q151.83 6.99 152.28 5.76L152.28 5.76L152.28 5.76Q152.73 4.54 152.73 4.31L152.73 4.31L152.73 4.31Q152.73 4.06 152.52 3.96L152.52 3.96L152.52 3.96Q152.31 3.85 152.10 3.80L152.10 3.80L152.10 3.80Q151.89 3.75 151.89 3.64L151.89 3.64L151.89 3.64Q151.89 3.49 152.19 3.49L152.19 3.49L152.19 3.49Q152.28 3.49 152.61 3.50L152.61 3.50L152.61 3.50Q152.95 3.51 153.09 3.51L153.09 3.51L153.33 3.51L153.33 3.51Q153.52 3.51 154.07 3.47L154.07 3.47L154.20 3.47L154.20 3.47Q154.38 3.47 154.38 3.61L154.38 3.61L154.38 3.61Q154.38 3.75 154.11 3.84L154.11 3.84L154.11 3.84Q153.85 3.92 153.75 4.02L153.75 4.02L153.75 4.02Q153.52 4.24 153.36 4.66L153.36 4.66L153.36 4.66Q153.06 5.38 152.66 6.33L152.66 6.33L152.66 6.33Q152.24 7.31 152.17 7.50L152.17 7.50L152.17 7.50Q152.10 7.70 152.10 7.85L152.10 7.85L152.10 7.85Q152.10 7.97 152.95 9.87L152.95 9.87L152.95 9.87Q153.80 11.77 153.96 11.77L153.96 11.77L153.96 11.77Q154.13 11.77 155.59 8.24L155.59 8.24L155.59 8.24Q157.05 4.70 157.05 4.35L157.05 4.35L157.05 4.35Q157.05 4.13 156.89 4.01L156.89 4.01L156.89 4.01Q156.73 3.89 156.53 3.87L156.53 3.87L156.53 3.87Q156.34 3.85 156.18 3.80L156.18 3.80L156.18 3.80Q156.02 3.75 156.02 3.64L156.02 3.64L156.02 3.64Q156.02 3.54 156.06 3.52L156.06 3.52L156.06 3.52Q156.10 3.50 156.28 3.50L156.28 3.50L156.28 3.50Q156.32 3.50 156.60 3.51L156.60 3.51L156.60 3.51Q156.88 3.51 157.16 3.51L157.16 3.51L157.16 3.51Q157.42 3.51 157.73 3.50L157.73 3.50L157.73 3.50Q158.05 3.49 158.41 3.49L158.41 3.49L158.41 3.49Q158.69 3.49 158.69 3.68L158.69 3.68L158.69 3.68Q158.69 3.78 158.61 3.84L158.61 3.84L158.61 3.84Q158.54 3.89 158.38 3.98L158.38 3.98L158.38 3.98Q158.23 4.06 158.12 4.17L158.12 4.17L158.12 4.17Q158.05 4.24 158.00 4.31L158.00 4.31L158.00 4.31Q157.95 4.38 157.89 4.49L157.89 4.49L157.89 4.49Q157.84 4.59 157.80 4.66L157.80 4.66L157.80 4.66Q157.77 4.73 157.69 4.91L157.69 4.91L157.69 4.91Q157.61 5.08 157.57 5.18L157.57 5.18L157.57 5.18Q156.49 7.59 155.16 10.58L155.16 10.58L155.16 10.58Q154.10 13.01 153.90 13.41L153.90 13.41L153.90 13.41Q153.71 13.82 153.59 13.82L153.59 13.82L153.59 13.82Q153.52 13.82 153.43 13.64L153.43 13.64L153.43 13.64Q153.33 13.47 153.15 13.05L153.15 13.05L153.15 13.05Q152.98 12.64 152.95 12.57L152.95 12.57L152.95 12.57Q152.81 12.26 152.58 11.72L152.58 11.72L152.58 11.72Q152.35 11.17 152.19 10.79L152.19 10.79L152.19 10.79Q152.03 10.42 151.86 10.02L151.86 10.02L151.86 10.02Q151.69 9.63 151.58 9.43L151.58 9.43L151.58 9.43Q151.47 9.23 151.42 9.23L151.42 9.23L151.42 9.23Q151.28 9.23 150.48 11.16L150.48 11.16L150.48 11.16Q149.67 13.09 149.62 13.31L149.62 13.31L149.62 13.31Q149.60 13.37 149.58 13.43L149.58 13.43L149.58 13.43Q149.56 13.48 149.55 13.52L149.55 13.52L149.55 13.52Q149.53 13.57 149.52 13.61L149.52 13.61L149.52 13.61Q149.51 13.65 149.49 13.68L149.49 13.68L149.49 13.68Q149.48 13.71 149.47 13.73L149.47 13.73L149.47 13.73Q149.46 13.76 149.45 13.78L149.45 13.78L149.45 13.78Q149.44 13.80 149.42 13.82L149.42 13.82L149.42 13.82Q149.41 13.83 149.39 13.84L149.39 13.84L149.39 13.84Q149.38 13.85 149.37 13.85L149.37 13.85L149.37 13.85Q149.35 13.86 149.32 13.86L149.32 13.86L149.32 13.86Q149.20 13.86 149.02 13.46L149.02 13.46L149.02 13.46Q148.83 13.06 148.36 11.89L148.36 11.89L148.36 11.89Q147.88 10.72 147.39 9.65L147.39 9.65L147.39 9.65Q146.58 7.87 145.67 5.63L145.67 5.63L145.67 5.63Q145.40 4.96 145.10 4.57L145.10 4.57L145.10 4.57Q144.79 4.19 144.55 4.09L144.55 4.09L144.55 4.09Q144.31 3.99 144.12 3.98L144.12 3.98L144.12 3.98Q143.92 3.96 143.81 3.92L143.81 3.92L143.81 3.92Q143.70 3.88 143.70 3.71ZM164.26 13.33L164.26 13.33L164.26 13.33Q164.26 13.13 164.47 13.06L164.47 13.06L164.47 13.06Q164.92 12.89 165.26 12.31L165.26 12.31L165.26 12.31Q165.59 11.73 166.92 8.83L166.92 8.83L166.92 8.83Q168.29 5.87 169.34 3.63L169.34 3.63L169.34 3.63Q169.44 3.42 169.52 3.36L169.52 3.36L169.52 3.36Q169.60 3.30 169.76 3.30L169.76 3.30L169.76 3.30Q169.89 3.30 169.93 3.36L169.93 3.36L169.93 3.36Q169.97 3.42 170.11 3.82L170.11 3.82L170.11 3.82Q170.20 4.06 170.26 4.23L170.26 4.23L170.26 4.23Q170.32 4.40 170.46 4.77L170.46 4.77L170.46 4.77Q170.60 5.15 170.77 5.56L170.77 5.56L170.77 5.56Q171.22 6.66 172.32 9.22L172.32 9.22L172.32 9.22Q173.42 11.77 173.52 11.98L173.52 11.98L173.52 11.98Q173.75 12.46 174.05 12.71L174.05 12.71L174.05 12.71Q174.34 12.95 174.56 12.97L174.56 12.97L174.56 12.97Q174.78 12.99 174.92 13.04L174.92 13.04L174.92 13.04Q175.07 13.09 175.07 13.26L175.07 13.26L175.07 13.26Q175.07 13.47 174.69 13.47L174.69 13.47L174.69 13.47Q174.54 13.47 174.09 13.43L174.09 13.43L174.09 13.43Q173.64 13.38 173.43 13.38L173.43 13.38L173.43 13.38Q173.17 13.38 172.75 13.41L172.75 13.41L172.75 13.41Q172.33 13.44 172.13 13.44L172.13 13.44L172.13 13.44Q171.70 13.44 171.58 13.40L171.58 13.40L171.58 13.40Q171.46 13.37 171.46 13.24L171.46 13.24L171.46 13.24Q171.46 13.15 171.57 13.08L171.57 13.08L171.57 13.08Q171.68 13.02 171.81 13.00L171.81 13.00L171.81 13.00Q171.93 12.98 172.05 12.87L172.05 12.87L172.05 12.87Q172.16 12.77 172.16 12.59L172.16 12.59L172.16 12.59Q172.16 12.28 171.81 11.33L171.81 11.33L171.81 11.33Q171.46 10.37 171.22 9.93L171.22 9.93L171.22 9.93Q171.09 9.69 170.65 9.69L170.65 9.69L170.65 9.69Q170.58 9.69 170.03 9.70L170.03 9.70L170.03 9.70Q169.48 9.72 168.95 9.72L168.95 9.72L168.21 9.72L168.21 9.72Q167.58 9.72 167.42 9.79L167.42 9.79L167.42 9.79Q167.26 9.86 167.13 10.12L167.13 10.12L167.13 10.12Q167.05 10.30 166.85 10.70L166.85 10.70L166.85 10.70Q166.66 11.10 166.59 11.26L166.59 11.26L166.59 11.26Q166.52 11.41 166.41 11.65L166.41 11.65L166.41 11.65Q166.31 11.90 166.27 12.05L166.27 12.05L166.27 12.05Q166.24 12.19 166.24 12.31L166.24 12.31L166.24 12.31Q166.24 12.63 166.40 12.80L166.40 12.80L166.40 12.80Q166.56 12.96 166.75 12.98L166.75 12.98L166.75 12.98Q166.95 13.01 167.11 13.06L167.11 13.06L167.11 13.06Q167.27 13.12 167.27 13.26L167.27 13.26L167.27 13.26Q167.27 13.36 167.23 13.40L167.23 13.40L167.23 13.40Q167.19 13.45 167.03 13.45L167.03 13.45L167.03 13.45Q166.95 13.45 166.55 13.45L166.55 13.45L166.55 13.45Q166.15 13.44 165.87 13.44L165.87 13.44L165.87 13.44Q165.56 13.44 165.18 13.47L165.18 13.47L165.18 13.47Q164.79 13.50 164.67 13.50L164.67 13.50L164.67 13.50Q164.26 13.50 164.26 13.33ZM167.78 8.71L167.78 8.71L167.78 8.71Q167.78 8.89 167.90 8.93L167.90 8.93L167.90 8.93Q168.03 8.97 168.49 8.97L168.49 8.97L168.92 8.97L170.25 8.96L170.25 8.96Q170.80 8.96 170.80 8.74L170.80 8.74L170.80 8.74Q170.80 8.55 170.11 7.01L170.11 7.01L170.11 7.01Q169.43 5.46 169.25 5.46L169.25 5.46L169.25 5.46Q169.12 5.46 168.45 7.01L168.45 7.01L168.45 7.01Q167.78 8.55 167.78 8.71ZM180.59 3.81L180.59 3.81L180.59 3.81Q180.59 3.65 180.75 3.61L180.75 3.61L180.75 3.61Q180.91 3.57 181.45 3.57L181.45 3.57L181.45 3.57Q181.54 3.57 181.84 3.58L181.84 3.58L181.84 3.58Q182.14 3.60 182.27 3.60L182.27 3.60L182.27 3.60Q182.42 3.60 182.83 3.59L182.83 3.59L182.83 3.59Q183.25 3.58 183.46 3.58L183.46 3.58L183.46 3.58Q184.16 3.58 184.16 3.75L184.16 3.75L184.16 3.75Q184.16 3.91 183.86 4.01L183.86 4.01L183.86 4.01Q183.57 4.12 183.57 4.24L183.57 4.24L183.57 4.24Q183.57 4.38 183.66 4.61L183.66 4.61L183.66 4.61Q183.75 4.83 183.84 4.97L183.84 4.97L183.84 4.97Q183.93 5.11 184.11 5.38L184.11 5.38L184.11 5.38Q184.30 5.64 184.32 5.70L184.32 5.70L184.32 5.70Q184.80 6.45 185.31 7.14L185.31 7.14L185.31 7.14Q185.82 7.83 185.89 7.83L185.89 7.83L185.89 7.83Q185.98 7.83 186.10 7.66L186.10 7.66L186.10 7.66Q186.23 7.50 186.45 7.13L186.45 7.13L186.45 7.13Q186.68 6.75 186.83 6.52L186.83 6.52L186.83 6.52Q186.87 6.45 187.03 6.22L187.03 6.22L187.03 6.22Q187.19 5.98 187.26 5.88L187.26 5.88L187.26 5.88Q187.32 5.78 187.45 5.58L187.45 5.58L187.45 5.58Q187.57 5.38 187.63 5.27L187.63 5.27L187.63 5.27Q187.68 5.17 187.76 5.02L187.76 5.02L187.76 5.02Q187.84 4.87 187.87 4.77L187.87 4.77L187.87 4.77Q187.89 4.68 187.89 4.59L187.89 4.59L187.89 4.59Q187.89 4.14 187.42 4.03L187.42 4.03L187.42 4.03Q187.36 4.02 187.26 4.00L187.26 4.00L187.26 4.00Q187.15 3.99 187.10 3.98L187.10 3.98L187.10 3.98Q187.05 3.96 186.98 3.93L186.98 3.93L186.98 3.93Q186.91 3.91 186.89 3.86L186.89 3.86L186.89 3.86Q186.86 3.81 186.86 3.74L186.86 3.74L186.86 3.74Q186.86 3.57 187.25 3.57L187.25 3.57L187.25 3.57Q187.32 3.57 187.51 3.58L187.51 3.58L187.51 3.58Q187.70 3.58 187.82 3.58L187.82 3.58L187.82 3.58Q188.15 3.58 188.60 3.59L188.60 3.59L188.60 3.59Q189.06 3.60 189.31 3.60L189.31 3.60L189.31 3.60Q189.99 3.60 189.99 3.81L189.99 3.81L189.99 3.81Q189.99 3.86 189.91 3.91L189.91 3.91L189.91 3.91Q189.83 3.95 189.67 4.02L189.67 4.02L189.67 4.02Q189.52 4.09 189.39 4.19L189.39 4.19L189.39 4.19Q188.82 4.63 187.71 6.31L187.71 6.31L187.71 6.31Q186.59 7.99 186.44 8.19L186.44 8.19L186.44 8.19Q186.21 8.47 186.16 8.81L186.16 8.81L186.16 8.81Q186.10 9.14 186.10 9.95L186.10 9.95L186.10 9.95Q186.10 10.14 186.11 10.73L186.11 10.73L186.11 10.73Q186.12 11.33 186.12 11.58L186.12 11.58L186.12 11.91L186.12 11.91Q186.12 12.38 186.28 12.64L186.28 12.64L186.28 12.64Q186.44 12.91 186.58 12.96L186.58 12.96L186.58 12.96Q186.72 13.01 186.86 13.01L186.86 13.01L186.86 13.01Q186.89 13.01 187.00 13.01L187.00 13.01L187.00 13.01Q187.11 13.02 187.14 13.02L187.14 13.02L187.14 13.02Q187.24 13.02 187.29 13.08L187.29 13.08L187.29 13.08Q187.35 13.15 187.35 13.22L187.35 13.22L187.35 13.22Q187.35 13.36 187.28 13.40L187.28 13.40L187.28 13.40Q187.21 13.44 187.01 13.44L187.01 13.44L187.01 13.44Q186.94 13.44 186.40 13.43L186.40 13.43L186.40 13.43Q185.86 13.43 185.61 13.43L185.61 13.43L185.61 13.43Q185.12 13.43 184.72 13.45L184.72 13.45L184.72 13.45Q184.31 13.48 184.07 13.48L184.07 13.48L184.07 13.48Q183.68 13.48 183.68 13.33L183.68 13.33L183.68 13.33Q183.68 13.20 183.76 13.15L183.76 13.15L183.76 13.15Q183.83 13.10 184.02 13.09L184.02 13.09L184.02 13.09Q184.20 13.08 184.28 13.05L184.28 13.05L184.28 13.05Q184.87 12.87 184.87 12.19L184.87 12.19L184.87 12.19Q184.87 12.11 184.88 11.92L184.88 11.92L184.88 11.92Q184.88 11.73 184.89 11.12L184.89 11.12L184.89 11.12Q184.90 10.50 184.90 9.35L184.90 9.35L184.90 9.35Q184.90 9.13 184.86 8.97L184.86 8.97L184.86 8.97Q184.83 8.81 184.78 8.65L184.78 8.65L184.78 8.65Q184.73 8.50 184.54 8.20L184.54 8.20L184.54 8.20Q184.35 7.91 184.17 7.64L184.17 7.64L184.17 7.64Q183.99 7.36 183.55 6.72L183.55 6.72L183.55 6.72Q183.11 6.08 182.70 5.46L182.70 5.46L182.70 5.46Q182.27 4.80 181.92 4.46L181.92 4.46L181.92 4.46Q181.57 4.12 181.38 4.05L181.38 4.05L181.38 4.05Q181.19 3.99 180.94 3.99L180.94 3.99L180.94 3.99Q180.59 3.99 180.59 3.81ZM207.54 3.68L207.54 3.68L207.54 3.68Q207.54 3.64 207.56 3.60L207.56 3.60L207.56 3.60Q207.58 3.56 207.67 3.50L207.67 3.50L207.67 3.50Q207.76 3.44 207.90 3.44L207.90 3.44L208.28 3.44L208.28 3.44Q208.61 3.44 209.36 3.49L209.36 3.49L209.36 3.49Q210.11 3.53 211.32 3.53L211.32 3.53L211.32 3.53Q212.31 3.53 213.08 3.49L213.08 3.49L213.08 3.49Q213.85 3.46 214.49 3.46L214.49 3.46L214.49 3.46Q214.73 3.46 214.73 3.79L214.73 3.79L214.73 3.79Q214.73 3.92 214.70 4.11L214.70 4.11L214.70 4.11Q214.68 4.30 214.62 4.61L214.62 4.61L214.62 4.61Q214.56 4.93 214.54 5.22L214.54 5.22L214.54 5.22Q214.51 5.50 214.33 5.50L214.33 5.50L214.33 5.50Q214.13 5.50 214.13 5.22L214.13 5.22L214.13 5.22Q214.13 4.30 213.49 4.26L213.49 4.26L213.49 4.26Q211.37 4.09 210.97 4.09L210.97 4.09L210.97 4.09Q210.34 4.09 210.19 4.24L210.19 4.24L210.19 4.24Q210.04 4.40 210.03 4.87L210.03 4.87L210.03 4.87Q210.03 4.94 210.03 4.98L210.03 4.98L210.03 4.98Q209.99 5.74 209.99 7.32L209.99 7.32L209.99 7.32Q209.99 8.01 210.24 8.02L210.24 8.02L210.24 8.02Q210.31 8.02 210.43 8.03L210.43 8.03L210.43 8.03Q210.55 8.04 210.59 8.04L210.59 8.04L210.59 8.04Q210.69 8.04 210.88 8.03L210.88 8.03L210.88 8.03Q211.08 8.02 211.19 8.02L211.19 8.02L211.62 8.02L211.62 8.02Q212.46 8.02 212.74 7.97L212.74 7.97L212.74 7.97Q213.01 7.92 213.23 7.77L213.23 7.77L213.23 7.77Q213.36 7.69 213.43 7.57L213.43 7.57L213.43 7.57Q213.50 7.46 213.53 7.31L213.53 7.31L213.53 7.31Q213.56 7.15 213.60 7.08L213.60 7.08L213.60 7.08Q213.64 7.01 213.77 7.01L213.77 7.01L213.77 7.01Q213.89 7.01 213.92 7.06L213.92 7.06L213.92 7.06Q213.95 7.10 213.95 7.24L213.95 7.24L213.95 7.24Q213.95 7.34 213.88 7.73L213.88 7.73L213.88 7.73Q213.82 8.12 213.82 8.40L213.82 8.40L213.82 8.40Q213.82 8.67 213.87 9.05L213.87 9.05L213.87 9.05Q213.92 9.44 213.92 9.55L213.92 9.55L213.92 9.55Q213.92 9.77 213.87 9.83L213.87 9.83L213.87 9.83Q213.82 9.90 213.72 9.90L213.72 9.90L213.72 9.90Q213.49 9.90 213.43 9.55L213.43 9.55L213.43 9.55Q213.43 9.52 213.42 9.42L213.42 9.42L213.42 9.42Q213.40 9.32 213.40 9.28L213.40 9.28L213.40 9.28Q213.39 9.24 213.36 9.16L213.36 9.16L213.36 9.16Q213.33 9.09 213.30 9.04L213.30 9.04L213.30 9.04Q213.28 9.00 213.23 8.95L213.23 8.95L213.23 8.95Q213.19 8.90 213.12 8.88L213.12 8.88L213.12 8.88Q212.93 8.79 212.42 8.74L212.42 8.74L212.42 8.74Q211.92 8.68 211.76 8.68L211.76 8.68L210.55 8.68L210.55 8.68Q209.97 8.68 209.97 8.95L209.97 8.95L209.97 8.95Q209.97 9.35 209.96 9.96L209.96 9.96L209.96 9.96Q209.94 10.57 209.94 10.96L209.94 10.96L209.94 10.96Q209.94 11.06 209.94 11.25L209.94 11.25L209.94 11.25Q209.93 11.44 209.93 11.52L209.93 11.52L209.93 11.52Q209.93 11.80 209.99 12.08L209.99 12.08L209.99 12.08Q210.04 12.36 210.31 12.67L210.31 12.67L210.31 12.67Q210.59 12.98 211.05 12.98L211.05 12.98L211.05 12.98Q211.47 12.98 211.47 13.23L211.47 13.23L211.47 13.23Q211.47 13.27 211.44 13.33L211.44 13.33L211.44 13.33Q211.41 13.38 211.31 13.44L211.31 13.44L211.31 13.44Q211.20 13.50 211.04 13.50L211.04 13.50L211.04 13.50Q210.81 13.50 210.33 13.44L210.33 13.44L210.33 13.44Q209.85 13.38 209.68 13.38L209.68 13.38L209.68 13.38Q209.29 13.38 208.80 13.43L208.80 13.43L208.80 13.43Q208.32 13.47 207.98 13.47L207.98 13.47L207.98 13.47Q207.70 13.47 207.70 13.31L207.70 13.31L207.70 13.31Q207.70 13.13 207.77 13.09L207.77 13.09L207.77 13.09Q207.83 13.05 208.31 12.88L208.31 12.88L208.31 12.88Q208.67 12.75 208.75 12.13L208.75 12.13L208.75 12.13Q208.84 11.51 208.85 9.60L208.85 9.60L208.85 9.60Q208.85 8.86 208.85 8.44L208.85 8.44L208.85 8.44Q208.85 8.06 208.87 7.26L208.87 7.26L208.87 7.26Q208.89 6.45 208.89 6.01L208.89 6.01L208.89 5.19L208.89 5.19Q208.89 4.27 208.24 3.96L208.24 3.96L208.24 3.96Q208.14 3.92 208.00 3.90L208.00 3.90L208.00 3.90Q207.86 3.88 207.77 3.88L207.77 3.88L207.77 3.88Q207.68 3.88 207.61 3.83L207.61 3.83L207.61 3.83Q207.54 3.78 207.54 3.68ZM222.29 3.68L222.29 3.68L222.29 3.68Q222.29 3.61 222.31 3.58L222.31 3.58L222.31 3.58Q222.32 3.56 222.39 3.53L222.39 3.53L222.39 3.53Q222.46 3.50 222.61 3.50L222.61 3.50L222.61 3.50Q222.77 3.50 223.26 3.53L223.26 3.53L223.26 3.53Q223.75 3.56 224.20 3.56L224.20 3.56L224.20 3.56Q224.48 3.56 224.71 3.54L224.71 3.54L224.71 3.54Q224.94 3.53 225.51 3.53L225.51 3.53L225.51 3.53Q225.81 3.53 225.81 3.72L225.81 3.72L225.81 3.72Q225.81 3.85 225.71 3.88L225.71 3.88L225.71 3.88Q225.61 3.91 225.46 3.92L225.46 3.92L225.46 3.92Q225.32 3.93 225.17 4.02L225.17 4.02L225.17 4.02Q225.02 4.10 224.92 4.43L224.92 4.43L224.92 4.43Q224.83 4.76 224.83 5.32L224.83 5.32L224.83 5.71L224.83 5.71Q224.83 6.37 224.82 7.37L224.82 7.37L224.82 7.37Q224.81 8.37 224.81 8.74L224.81 8.74L224.81 8.74Q224.81 9.17 224.82 9.39L224.82 9.39L224.82 9.39Q224.83 9.62 224.85 10.04L224.85 10.04L224.85 10.04Q224.88 10.47 224.93 10.72L224.93 10.72L224.93 10.72Q224.98 10.96 225.09 11.32L225.09 11.32L225.09 11.32Q225.20 11.68 225.37 11.89L225.37 11.89L225.37 11.89Q225.53 12.10 225.77 12.35L225.77 12.35L225.77 12.35Q226.02 12.60 226.34 12.73L226.34 12.73L226.34 12.73Q226.66 12.87 227.09 12.96L227.09 12.96L227.09 12.96Q227.53 13.05 228.06 13.05L228.06 13.05L228.06 13.05Q228.51 13.05 228.76 13.03L228.76 13.03L228.76 13.03Q229.01 13.02 229.45 12.94L229.45 12.94L229.45 12.94Q229.89 12.87 230.15 12.72L230.15 12.72L230.15 12.72Q230.41 12.57 230.74 12.27L230.74 12.27L230.74 12.27Q231.07 11.97 231.25 11.54L231.25 11.54L231.25 11.54Q231.43 11.10 231.56 10.43L231.56 10.43L231.56 10.43Q231.69 9.76 231.69 8.90L231.69 8.90L231.69 8.90Q231.69 7.49 231.68 6.75L231.68 6.75L231.68 6.75Q231.67 6.01 231.67 5.94L231.67 5.94L231.67 5.94Q231.67 5.45 231.65 5.17L231.65 5.17L231.65 5.17Q231.63 4.89 231.51 4.55L231.51 4.55L231.51 4.55Q231.39 4.21 231.17 4.06L231.17 4.06L231.17 4.06Q231.03 3.96 230.80 3.93L230.80 3.93L230.80 3.93Q230.58 3.89 230.44 3.87L230.44 3.87L230.44 3.87Q230.30 3.85 230.30 3.75L230.30 3.75L230.30 3.75Q230.30 3.53 230.58 3.53L230.58 3.53L230.58 3.53Q230.66 3.53 231.13 3.54L231.13 3.54L231.13 3.54Q231.59 3.56 231.66 3.56L231.66 3.56L231.66 3.56Q231.99 3.56 232.37 3.54L232.37 3.54L232.37 3.54Q232.75 3.51 232.85 3.51L232.85 3.51L232.85 3.51Q233.14 3.51 233.14 3.70L233.14 3.70L233.14 3.70Q233.14 3.81 232.84 3.98L232.84 3.98L232.84 3.98Q232.54 4.16 232.47 4.30L232.47 4.30L232.47 4.30Q232.32 4.59 232.32 5.22L232.32 5.22L232.32 5.22Q232.32 5.32 232.32 5.62L232.32 5.62L232.32 5.62Q232.33 5.92 232.33 6.16L232.33 6.16L232.33 6.16Q232.33 8.85 232.11 10.28L232.11 10.28L232.11 10.28Q231.88 11.70 231.43 12.36L231.43 12.36L231.43 12.36Q230.97 13.01 230.06 13.40L230.06 13.40L230.06 13.40Q229.32 13.71 228.06 13.71L228.06 13.71L228.06 13.71Q225.72 13.71 224.74 12.81L224.74 12.81L224.74 12.81Q223.97 12.10 223.79 11.09L223.79 11.09L223.79 11.09Q223.61 10.09 223.61 7.64L223.61 7.64L223.61 7.41L223.61 7.41Q223.61 6.86 223.62 6.20L223.62 6.20L223.62 6.20Q223.64 5.54 223.64 5.39L223.64 5.39L223.64 5.39Q223.64 4.62 223.45 4.33L223.45 4.33L223.45 4.33Q223.27 4.05 222.60 3.95L222.60 3.95L222.60 3.95Q222.29 3.91 222.29 3.68ZM240.70 3.77L240.70 3.77L240.70 3.77Q240.70 3.68 240.80 3.60L240.80 3.60L240.80 3.60Q240.90 3.53 241.05 3.53L241.05 3.53L241.05 3.53Q241.14 3.53 241.33 3.54L241.33 3.54L241.33 3.54Q241.53 3.54 241.58 3.54L241.58 3.54L241.58 3.54Q241.79 3.54 241.98 3.53L241.98 3.53L241.98 3.53Q242.16 3.51 242.27 3.51L242.27 3.51L242.27 3.51Q242.40 3.51 242.56 3.59L242.56 3.59L242.56 3.59Q242.73 3.67 242.76 3.75L242.76 3.75L242.76 3.75Q242.79 3.79 242.91 3.94L242.91 3.94L242.91 3.94Q243.04 4.09 243.25 4.33L243.25 4.33L243.25 4.33Q243.46 4.56 243.63 4.79L243.63 4.79L243.63 4.79Q245.53 7.27 248.72 10.77L248.72 10.77L248.72 10.77Q248.81 10.86 248.93 10.99L248.93 10.99L248.93 10.99Q249.05 11.12 249.09 11.18L249.09 11.18L249.09 11.18Q249.14 11.24 249.20 11.30L249.20 11.30L249.20 11.30Q249.26 11.35 249.29 11.38L249.29 11.38L249.29 11.38Q249.33 11.40 249.35 11.40L249.35 11.40L249.35 11.40Q249.49 11.40 249.49 10.53L249.49 10.53L249.49 8.89L249.49 8.89Q249.49 7.95 249.49 7.31L249.49 7.31L249.49 7.31Q249.48 6.66 249.47 6.38L249.47 6.38L249.47 6.38Q249.47 6.09 249.47 6.02L249.47 6.02L249.47 5.92L249.47 5.92Q249.47 5.45 249.40 5.11L249.40 5.11L249.40 5.11Q249.34 4.77 249.26 4.59L249.26 4.59L249.26 4.59Q249.17 4.41 249.01 4.28L249.01 4.28L249.01 4.28Q248.85 4.16 248.74 4.12L248.74 4.12L248.74 4.12Q248.63 4.09 248.42 4.05L248.42 4.05L248.42 4.05Q248.21 4.00 248.12 3.98L248.12 3.98L248.12 3.98Q247.84 3.89 247.84 3.74L247.84 3.74L247.84 3.74Q247.84 3.53 248.11 3.53L248.11 3.53L248.11 3.53Q248.19 3.53 248.78 3.54L248.78 3.54L248.78 3.54Q249.37 3.54 249.44 3.54L249.44 3.54L249.44 3.54Q249.77 3.54 250.19 3.53L250.19 3.53L250.19 3.53Q250.60 3.51 250.70 3.51L250.70 3.51L250.70 3.51Q250.94 3.51 251.03 3.56L251.03 3.56L251.03 3.56Q251.12 3.61 251.12 3.75L251.12 3.75L251.12 3.75Q251.12 3.81 251.04 3.86L251.04 3.86L251.04 3.86Q250.96 3.91 250.88 3.94L250.88 3.94L250.88 3.94Q250.80 3.98 250.71 4.00L250.71 4.00L250.63 4.03L250.63 4.03Q250.17 4.28 250.17 5.61L250.17 5.61L250.17 6.15L250.17 6.15Q250.17 7.21 250.09 9.83L250.09 9.83L250.09 9.83Q250.01 12.46 250.01 13.08L250.01 13.08L250.01 13.36L250.01 13.36Q250.01 13.68 249.82 13.68L249.82 13.68L249.82 13.68Q249.69 13.68 249.59 13.58L249.59 13.58L249.59 13.58Q244.94 8.19 244.04 7.17L244.04 7.17L244.04 7.17Q243.14 6.16 243.04 6.16L243.04 6.16L243.04 6.16Q242.90 6.16 242.90 7.11L242.90 7.11L242.90 7.11Q242.90 8.44 242.84 9.97L242.84 9.97L242.84 9.97Q242.79 11.51 242.79 11.65L242.79 11.65L242.79 11.65Q242.79 12.28 243.00 12.61L243.00 12.61L243.00 12.61Q243.22 12.94 243.47 12.98L243.47 12.98L243.47 12.98Q243.73 13.02 243.94 13.07L243.94 13.07L243.94 13.07Q244.16 13.12 244.16 13.26L244.16 13.26L244.16 13.26Q244.16 13.41 244.11 13.45L244.11 13.45L244.11 13.45Q244.06 13.50 243.94 13.50L243.94 13.50L243.94 13.50Q243.84 13.50 243.50 13.48L243.50 13.48L243.50 13.48Q243.15 13.47 242.44 13.47L242.44 13.47L242.44 13.47Q242.31 13.47 241.92 13.48L241.92 13.48L241.92 13.48Q241.53 13.50 241.25 13.50L241.25 13.50L241.25 13.50Q240.94 13.50 240.94 13.27L240.94 13.27L240.94 13.27Q240.94 13.15 241.12 13.11L241.12 13.11L241.12 13.11Q241.30 13.08 241.57 12.89L241.57 12.89L241.57 12.89Q241.84 12.71 241.98 12.21L241.98 12.21L241.98 12.21Q242.06 11.89 242.19 9.60L242.19 9.60L242.19 9.60Q242.31 7.32 242.31 6.45L242.31 6.45L242.31 6.45Q242.31 5.25 241.98 4.65L241.98 4.65L241.98 4.65Q241.64 4.06 240.88 3.98L240.88 3.98L240.88 3.98Q240.70 3.96 240.70 3.77ZM259.21 8.90L259.21 8.90L259.21 8.90Q259.21 7.38 259.80 6.16L259.80 6.16L259.80 6.16Q260.39 4.94 261.61 4.19L261.61 4.19L261.61 4.19Q262.84 3.44 264.52 3.44L264.52 3.44L264.52 3.44Q265.37 3.44 266.24 3.70L266.24 3.70L266.24 3.70Q267.11 3.95 267.62 4.20L267.62 4.20L268.14 4.47L268.14 4.47Q268.18 4.47 268.28 4.40L268.28 4.40L268.28 4.40Q268.38 4.33 268.44 4.33L268.44 4.33L268.44 4.33Q268.51 4.33 268.58 4.38L268.58 4.38L268.58 4.38Q268.65 4.44 268.65 4.55L268.65 4.55L268.65 4.55Q268.66 4.96 268.71 5.41L268.71 5.41L268.71 5.41Q268.76 5.87 268.80 6.16L268.80 6.16L268.80 6.16Q268.84 6.45 268.84 6.51L268.84 6.51L268.84 6.51Q268.84 6.76 268.67 6.76L268.67 6.76L268.67 6.76Q268.55 6.76 268.44 6.57L268.44 6.57L268.44 6.57Q267.08 4.02 264.52 4.02L264.52 4.02L264.52 4.02Q262.77 4.02 261.65 5.14L261.65 5.14L261.65 5.14Q260.53 6.26 260.53 8.06L260.53 8.06L260.53 8.06Q260.53 9.06 260.78 9.93L260.78 9.93L260.78 9.93Q261.04 10.79 261.57 11.51L261.57 11.51L261.57 11.51Q262.09 12.24 263.02 12.66L263.02 12.66L263.02 12.66Q263.94 13.08 265.17 13.08L265.17 13.08L265.17 13.08Q267.19 13.08 268.56 10.98L268.56 10.98L268.56 10.98Q268.62 10.88 268.77 10.88L268.77 10.88L268.77 10.88Q268.90 10.88 268.90 11.07L268.90 11.07L268.90 11.07Q268.90 11.23 268.85 11.49L268.85 11.49L268.85 11.49Q268.80 11.75 268.73 12.06L268.73 12.06L268.73 12.06Q268.66 12.38 268.65 12.45L268.65 12.45L268.65 12.45Q268.62 12.60 268.42 12.70L268.42 12.70L268.42 12.70Q267.67 13.06 267.24 13.24L267.24 13.24L267.24 13.24Q266.81 13.43 266.15 13.57L266.15 13.57L266.15 13.57Q265.50 13.72 264.81 13.72L264.81 13.72L264.81 13.72Q263.59 13.72 262.61 13.43L262.61 13.43L262.61 13.43Q261.63 13.13 261.01 12.66L261.01 12.66L261.01 12.66Q260.39 12.18 259.97 11.54L259.97 11.54L259.97 11.54Q259.55 10.91 259.38 10.25L259.38 10.25L259.38 10.25Q259.21 9.60 259.21 8.90ZM277.17 5.32L277.17 5.32L277.17 5.32Q277.17 4.76 277.31 3.88L277.31 3.88L277.31 3.88Q277.31 3.85 277.32 3.78L277.32 3.78L277.32 3.78Q277.33 3.71 277.33 3.69L277.33 3.69L277.33 3.69Q277.34 3.67 277.35 3.62L277.35 3.62L277.35 3.62Q277.35 3.57 277.37 3.55L277.37 3.55L277.37 3.55Q277.38 3.53 277.40 3.49L277.40 3.49L277.40 3.49Q277.42 3.46 277.45 3.44L277.45 3.44L277.45 3.44Q277.48 3.43 277.52 3.42L277.52 3.42L277.52 3.42Q277.56 3.40 277.62 3.39L277.62 3.39L277.62 3.39Q277.68 3.39 277.75 3.39L277.75 3.39L277.75 3.39Q277.97 3.39 278.93 3.44L278.93 3.44L278.93 3.44Q279.89 3.50 281.69 3.50L281.69 3.50L281.69 3.50Q284.77 3.50 286.01 3.43L286.01 3.43L286.01 3.43Q286.02 3.43 286.06 3.42L286.06 3.42L286.06 3.42Q286.09 3.42 286.10 3.42L286.10 3.42L286.10 3.42Q286.26 3.42 286.31 3.50L286.31 3.50L286.31 3.50Q286.37 3.58 286.37 3.65L286.37 3.65L286.37 3.65Q286.37 3.75 286.41 4.24L286.41 4.24L286.41 4.24Q286.45 4.73 286.45 4.79L286.45 4.79L286.45 4.79Q286.45 5.14 286.41 5.23L286.41 5.23L286.41 5.23Q286.37 5.32 286.23 5.32L286.23 5.32L286.23 5.32Q286.12 5.32 286.08 5.15L286.08 5.15L286.08 5.15Q285.96 4.75 285.88 4.60L285.88 4.60L285.88 4.60Q285.80 4.45 285.52 4.34L285.52 4.34L285.52 4.34Q285.24 4.23 284.66 4.23L284.66 4.23L282.84 4.23L282.84 4.23Q282.51 4.23 282.43 4.36L282.43 4.36L282.43 4.36Q282.35 4.49 282.35 5.12L282.35 5.12L282.35 5.81L282.35 5.81Q282.35 7.69 282.33 9.11L282.33 9.11L282.33 9.11Q282.31 10.54 282.31 10.93L282.31 10.93L282.31 10.93Q282.31 11.13 282.30 11.43L282.30 11.43L282.30 11.43Q282.30 11.73 282.30 11.84L282.30 11.84L282.30 11.84Q282.30 12.45 282.49 12.64L282.49 12.64L282.49 12.64Q282.67 12.81 282.90 12.90L282.90 12.90L282.90 12.90Q283.12 12.99 283.28 13.01L283.28 13.01L283.28 13.01Q283.44 13.02 283.56 13.08L283.56 13.08L283.56 13.08Q283.67 13.13 283.67 13.26L283.67 13.26L283.67 13.26Q283.67 13.41 283.60 13.45L283.60 13.45L283.60 13.45Q283.53 13.50 283.33 13.50L283.33 13.50L283.33 13.50Q283.16 13.50 282.59 13.44L282.59 13.44L282.59 13.44Q282.02 13.38 281.78 13.38L281.78 13.38L281.78 13.38Q281.61 13.38 281.10 13.43L281.10 13.43L281.10 13.43Q280.59 13.48 280.35 13.48L280.35 13.48L280.35 13.48Q279.83 13.48 279.83 13.26L279.83 13.26L279.83 13.26Q279.83 13.12 279.92 13.07L279.92 13.07L279.92 13.07Q280 13.02 280.25 12.98L280.25 12.98L280.25 12.98Q280.49 12.95 280.56 12.94L280.56 12.94L280.56 12.94Q281.04 12.82 281.09 12.38L281.09 12.38L281.09 12.38Q281.23 11.14 281.23 7.08L281.23 7.08L281.22 4.58L281.22 4.58Q281.22 4.31 281.06 4.25L281.06 4.25L281.06 4.25Q280.91 4.19 280.15 4.19L280.15 4.19L280.15 4.19Q279.17 4.19 278.68 4.24L278.68 4.24L278.68 4.24Q278.18 4.30 278.10 4.35L278.10 4.35L278.10 4.35Q278.01 4.40 277.90 4.54L277.90 4.54L277.90 4.54Q277.77 4.70 277.70 4.91L277.70 4.91L277.70 4.91Q277.62 5.11 277.60 5.24L277.60 5.24L277.60 5.24Q277.58 5.38 277.51 5.47L277.51 5.47L277.51 5.47Q277.45 5.56 277.33 5.56L277.33 5.56L277.33 5.56Q277.17 5.56 277.17 5.32ZM294.01 3.71L294.01 3.71L294.01 3.71Q294.01 3.50 294.41 3.50L294.41 3.50L294.41 3.50Q294.55 3.50 295.05 3.53L295.05 3.53L295.05 3.53Q295.55 3.56 295.99 3.56L295.99 3.56L295.99 3.56Q296.25 3.56 296.50 3.54L296.50 3.54L296.50 3.54Q296.74 3.53 297.22 3.53L297.22 3.53L297.22 3.53Q297.60 3.53 297.60 3.72L297.60 3.72L297.60 3.72Q297.60 3.84 296.95 4.10L296.95 4.10L296.95 4.10Q296.51 4.28 296.51 5.71L296.51 5.71L296.51 5.71Q296.51 7.60 296.48 9.05L296.48 9.05L296.48 9.05Q296.46 10.50 296.46 10.89L296.46 10.89L296.46 10.89Q296.46 12.07 296.81 12.59L296.81 12.59L296.81 12.59Q297.12 13.02 297.49 13.02L297.49 13.02L297.49 13.02Q297.51 13.02 297.63 13.03L297.63 13.03L297.63 13.03Q297.74 13.03 297.77 13.03L297.77 13.03L297.77 13.03Q297.86 13.03 297.96 13.08L297.96 13.08L297.96 13.08Q298.06 13.13 298.06 13.19L298.06 13.19L298.06 13.19Q298.06 13.34 297.98 13.39L297.98 13.39L297.98 13.39Q297.91 13.44 297.71 13.44L297.71 13.44L297.71 13.44Q297.29 13.44 296.93 13.41L296.93 13.41L296.93 13.41Q296.58 13.38 296.38 13.38L296.38 13.38L296.38 13.38Q295.99 13.38 295.53 13.42L295.53 13.42L295.53 13.42Q295.06 13.45 294.84 13.45L294.84 13.45L294.84 13.45Q294.21 13.45 294.21 13.24L294.21 13.24L294.21 13.24Q294.21 13.12 294.34 13.07L294.34 13.07L294.34 13.07Q294.48 13.02 294.64 13.00L294.64 13.00L294.64 13.00Q294.81 12.98 294.99 12.82L294.99 12.82L294.99 12.82Q295.18 12.66 295.25 12.35L295.25 12.35L295.25 12.35Q295.27 12.25 295.34 10.76L295.34 10.76L295.34 10.76Q295.40 9.27 295.40 8.61L295.40 8.61L295.40 7.81L295.40 7.81Q295.40 7.63 295.41 7.12L295.41 7.12L295.41 7.12Q295.41 6.61 295.41 6.30L295.41 6.30L295.41 5.66L295.41 5.66Q295.41 5.04 295.36 4.63L295.36 4.63L295.36 4.63Q295.32 4.30 294.99 4.12L294.99 4.12L294.99 4.12Q294.66 3.93 294.31 3.92L294.31 3.92L294.31 3.92Q294.01 3.91 294.01 3.71ZM305.94 8.69L305.94 8.69L305.94 8.69Q305.94 6.34 307.36 4.84L307.36 4.84L307.36 4.84Q308.77 3.33 311.36 3.33L311.36 3.33L311.36 3.33Q312.56 3.33 313.53 3.68L313.53 3.68L313.53 3.68Q314.50 4.03 315.06 4.54L315.06 4.54L315.06 4.54Q315.62 5.05 315.99 5.71L315.99 5.71L315.99 5.71Q316.37 6.37 316.51 6.92L316.51 6.92L316.51 6.92Q316.65 7.48 316.65 7.95L316.65 7.95L316.65 7.95Q316.65 9.86 315.91 11.16L315.91 11.16L315.91 11.16Q315.17 12.47 313.96 13.07L313.96 13.07L313.96 13.07Q312.75 13.66 311.16 13.66L311.16 13.66L311.16 13.66Q309.50 13.66 308.29 12.94L308.29 12.94L308.29 12.94Q307.08 12.21 306.51 11.10L306.51 11.10L306.51 11.10Q305.94 10.00 305.94 8.69ZM307.17 7.98L307.17 7.98L307.17 7.98Q307.17 8.54 307.33 9.19L307.33 9.19L307.33 9.19Q307.48 9.84 307.83 10.54L307.83 10.54L307.83 10.54Q308.18 11.23 308.68 11.78L308.68 11.78L308.68 11.78Q309.18 12.33 309.94 12.69L309.94 12.69L309.94 12.69Q310.70 13.05 311.61 13.05L311.61 13.05L311.61 13.05Q312.09 13.05 312.61 12.90L312.61 12.90L312.61 12.90Q313.14 12.75 313.66 12.45L313.66 12.45L313.66 12.45Q314.17 12.14 314.58 11.70L314.58 11.70L314.58 11.70Q314.99 11.26 315.24 10.62L315.24 10.62L315.24 10.62Q315.50 9.98 315.50 9.24L315.50 9.24L315.50 9.24Q315.50 6.71 314.17 5.30L314.17 5.30L314.17 5.30Q312.84 3.89 310.88 3.89L310.88 3.89L310.88 3.89Q309.34 3.89 308.26 4.93L308.26 4.93L308.26 4.93Q307.17 5.96 307.17 7.98ZM324.34 3.77L324.34 3.77L324.34 3.77Q324.34 3.68 324.44 3.60L324.44 3.60L324.44 3.60Q324.53 3.53 324.69 3.53L324.69 3.53L324.69 3.53Q324.77 3.53 324.97 3.54L324.97 3.54L324.97 3.54Q325.16 3.54 325.22 3.54L325.22 3.54L325.22 3.54Q325.43 3.54 325.61 3.53L325.61 3.53L325.61 3.53Q325.79 3.51 325.91 3.51L325.91 3.51L325.91 3.51Q326.03 3.51 326.20 3.59L326.20 3.59L326.20 3.59Q326.37 3.67 326.40 3.75L326.40 3.75L326.40 3.75Q326.42 3.79 326.55 3.94L326.55 3.94L326.55 3.94Q326.68 4.09 326.89 4.33L326.89 4.33L326.89 4.33Q327.10 4.56 327.26 4.79L327.26 4.79L327.26 4.79Q329.17 7.27 332.36 10.77L332.36 10.77L332.36 10.77Q332.44 10.86 332.56 10.99L332.56 10.99L332.56 10.99Q332.68 11.12 332.73 11.18L332.73 11.18L332.73 11.18Q332.78 11.24 332.84 11.30L332.84 11.30L332.84 11.30Q332.89 11.35 332.93 11.38L332.93 11.38L332.93 11.38Q332.96 11.40 332.99 11.40L332.99 11.40L332.99 11.40Q333.13 11.40 333.13 10.53L333.13 10.53L333.13 8.89L333.13 8.89Q333.13 7.95 333.12 7.31L333.12 7.31L333.12 7.31Q333.12 6.66 333.11 6.38L333.11 6.38L333.11 6.38Q333.10 6.09 333.10 6.02L333.10 6.02L333.10 5.92L333.10 5.92Q333.10 5.45 333.04 5.11L333.04 5.11L333.04 5.11Q332.98 4.77 332.89 4.59L332.89 4.59L332.89 4.59Q332.81 4.41 332.65 4.28L332.65 4.28L332.65 4.28Q332.49 4.16 332.37 4.12L332.37 4.12L332.37 4.12Q332.26 4.09 332.05 4.05L332.05 4.05L332.05 4.05Q331.84 4.00 331.76 3.98L331.76 3.98L331.76 3.98Q331.48 3.89 331.48 3.74L331.48 3.74L331.48 3.74Q331.48 3.53 331.74 3.53L331.74 3.53L331.74 3.53Q331.83 3.53 332.42 3.54L332.42 3.54L332.42 3.54Q333.00 3.54 333.07 3.54L333.07 3.54L333.07 3.54Q333.41 3.54 333.82 3.53L333.82 3.53L333.82 3.53Q334.24 3.51 334.33 3.51L334.33 3.51L334.33 3.51Q334.57 3.51 334.66 3.56L334.66 3.56L334.66 3.56Q334.75 3.61 334.75 3.75L334.75 3.75L334.75 3.75Q334.75 3.81 334.68 3.86L334.68 3.86L334.68 3.86Q334.60 3.91 334.52 3.94L334.52 3.94L334.52 3.94Q334.43 3.98 334.35 4.00L334.35 4.00L334.26 4.03L334.26 4.03Q333.80 4.28 333.80 5.61L333.80 5.61L333.80 6.15L333.80 6.15Q333.80 7.21 333.72 9.83L333.72 9.83L333.72 9.83Q333.65 12.46 333.65 13.08L333.65 13.08L333.65 13.36L333.65 13.36Q333.65 13.68 333.45 13.68L333.45 13.68L333.45 13.68Q333.33 13.68 333.23 13.58L333.23 13.58L333.23 13.58Q328.58 8.19 327.68 7.17L327.68 7.17L327.68 7.17Q326.77 6.16 326.68 6.16L326.68 6.16L326.68 6.16Q326.54 6.16 326.54 7.11L326.54 7.11L326.54 7.11Q326.54 8.44 326.48 9.97L326.48 9.97L326.48 9.97Q326.42 11.51 326.42 11.65L326.42 11.65L326.42 11.65Q326.42 12.28 326.64 12.61L326.64 12.61L326.64 12.61Q326.86 12.94 327.11 12.98L327.11 12.98L327.11 12.98Q327.36 13.02 327.58 13.07L327.58 13.07L327.58 13.07Q327.80 13.12 327.80 13.26L327.80 13.26L327.80 13.26Q327.80 13.41 327.75 13.45L327.75 13.45L327.75 13.45Q327.70 13.50 327.57 13.50L327.57 13.50L327.57 13.50Q327.47 13.50 327.13 13.48L327.13 13.48L327.13 13.48Q326.79 13.47 326.07 13.47L326.07 13.47L326.07 13.47Q325.95 13.47 325.56 13.48L325.56 13.48L325.56 13.48Q325.16 13.50 324.88 13.50L324.88 13.50L324.88 13.50Q324.58 13.50 324.58 13.27L324.58 13.27L324.58 13.27Q324.58 13.15 324.76 13.11L324.76 13.11L324.76 13.11Q324.94 13.08 325.21 12.89L325.21 12.89L325.21 12.89Q325.47 12.71 325.61 12.21L325.61 12.21L325.61 12.21Q325.70 11.89 325.82 9.60L325.82 9.60L325.82 9.60Q325.95 7.32 325.95 6.45L325.95 6.45L325.95 6.45Q325.95 5.25 325.61 4.65L325.61 4.65L325.61 4.65Q325.28 4.06 324.52 3.98L324.52 3.98L324.52 3.98Q324.34 3.96 324.34 3.77ZM352.49 5.32L352.49 5.32L352.49 5.32Q352.49 4.76 352.63 3.88L352.63 3.88L352.63 3.88Q352.63 3.85 352.64 3.78L352.64 3.78L352.64 3.78Q352.65 3.71 352.65 3.69L352.65 3.69L352.65 3.69Q352.66 3.67 352.67 3.62L352.67 3.62L352.67 3.62Q352.67 3.57 352.69 3.55L352.69 3.55L352.69 3.55Q352.70 3.53 352.72 3.49L352.72 3.49L352.72 3.49Q352.74 3.46 352.77 3.44L352.77 3.44L352.77 3.44Q352.80 3.43 352.84 3.42L352.84 3.42L352.84 3.42Q352.88 3.40 352.94 3.39L352.94 3.39L352.94 3.39Q353.00 3.39 353.07 3.39L353.07 3.39L353.07 3.39Q353.29 3.39 354.25 3.44L354.25 3.44L354.25 3.44Q355.21 3.50 357.01 3.50L357.01 3.50L357.01 3.50Q360.09 3.50 361.33 3.43L361.33 3.43L361.33 3.43Q361.34 3.43 361.38 3.42L361.38 3.42L361.38 3.42Q361.41 3.42 361.42 3.42L361.42 3.42L361.42 3.42Q361.58 3.42 361.63 3.50L361.63 3.50L361.63 3.50Q361.69 3.58 361.69 3.65L361.69 3.65L361.69 3.65Q361.69 3.75 361.73 4.24L361.73 4.24L361.73 4.24Q361.77 4.73 361.77 4.79L361.77 4.79L361.77 4.79Q361.77 5.14 361.73 5.23L361.73 5.23L361.73 5.23Q361.69 5.32 361.55 5.32L361.55 5.32L361.55 5.32Q361.44 5.32 361.40 5.15L361.40 5.15L361.40 5.15Q361.28 4.75 361.20 4.60L361.20 4.60L361.20 4.60Q361.12 4.45 360.84 4.34L360.84 4.34L360.84 4.34Q360.56 4.23 359.98 4.23L359.98 4.23L358.16 4.23L358.16 4.23Q357.83 4.23 357.75 4.36L357.75 4.36L357.75 4.36Q357.67 4.49 357.67 5.12L357.67 5.12L357.67 5.81L357.67 5.81Q357.67 7.69 357.65 9.11L357.65 9.11L357.65 9.11Q357.63 10.54 357.63 10.93L357.63 10.93L357.63 10.93Q357.63 11.13 357.62 11.43L357.62 11.43L357.62 11.43Q357.62 11.73 357.62 11.84L357.62 11.84L357.62 11.84Q357.62 12.45 357.81 12.64L357.81 12.64L357.81 12.64Q357.99 12.81 358.22 12.90L358.22 12.90L358.22 12.90Q358.44 12.99 358.60 13.01L358.60 13.01L358.60 13.01Q358.76 13.02 358.88 13.08L358.88 13.08L358.88 13.08Q358.99 13.13 358.99 13.26L358.99 13.26L358.99 13.26Q358.99 13.41 358.92 13.45L358.92 13.45L358.92 13.45Q358.85 13.50 358.65 13.50L358.65 13.50L358.65 13.50Q358.48 13.50 357.91 13.44L357.91 13.44L357.91 13.44Q357.34 13.38 357.10 13.38L357.10 13.38L357.10 13.38Q356.93 13.38 356.42 13.43L356.42 13.43L356.42 13.43Q355.91 13.48 355.67 13.48L355.67 13.48L355.67 13.48Q355.15 13.48 355.15 13.26L355.15 13.26L355.15 13.26Q355.15 13.12 355.24 13.07L355.24 13.07L355.24 13.07Q355.32 13.02 355.57 12.98L355.57 12.98L355.57 12.98Q355.81 12.95 355.88 12.94L355.88 12.94L355.88 12.94Q356.36 12.82 356.41 12.38L356.41 12.38L356.41 12.38Q356.55 11.14 356.55 7.08L356.55 7.08L356.54 4.58L356.54 4.58Q356.54 4.31 356.38 4.25L356.38 4.25L356.38 4.25Q356.23 4.19 355.47 4.19L355.47 4.19L355.47 4.19Q354.49 4.19 354.00 4.24L354.00 4.24L354.00 4.24Q353.50 4.30 353.42 4.35L353.42 4.35L353.42 4.35Q353.33 4.40 353.22 4.54L353.22 4.54L353.22 4.54Q353.09 4.70 353.02 4.91L353.02 4.91L353.02 4.91Q352.94 5.11 352.92 5.24L352.92 5.24L352.92 5.24Q352.90 5.38 352.84 5.47L352.84 5.47L352.84 5.47Q352.77 5.56 352.65 5.56L352.65 5.56L352.65 5.56Q352.49 5.56 352.49 5.32ZM369.67 8.69L369.67 8.69L369.67 8.69Q369.67 6.34 371.08 4.84L371.08 4.84L371.08 4.84Q372.50 3.33 375.09 3.33L375.09 3.33L375.09 3.33Q376.29 3.33 377.26 3.68L377.26 3.68L377.26 3.68Q378.22 4.03 378.78 4.54L378.78 4.54L378.78 4.54Q379.34 5.05 379.72 5.71L379.72 5.71L379.72 5.71Q380.10 6.37 380.24 6.92L380.24 6.92L380.24 6.92Q380.38 7.48 380.38 7.95L380.38 7.95L380.38 7.95Q380.38 9.86 379.64 11.16L379.64 11.16L379.64 11.16Q378.90 12.47 377.69 13.07L377.69 13.07L377.69 13.07Q376.47 13.66 374.89 13.66L374.89 13.66L374.89 13.66Q373.23 13.66 372.02 12.94L372.02 12.94L372.02 12.94Q370.80 12.21 370.24 11.10L370.24 11.10L370.24 11.10Q369.67 10.00 369.67 8.69ZM370.90 7.98L370.90 7.98L370.90 7.98Q370.90 8.54 371.06 9.19L371.06 9.19L371.06 9.19Q371.21 9.84 371.56 10.54L371.56 10.54L371.56 10.54Q371.91 11.23 372.41 11.78L372.41 11.78L372.41 11.78Q372.90 12.33 373.67 12.69L373.67 12.69L373.67 12.69Q374.43 13.05 375.34 13.05L375.34 13.05L375.34 13.05Q375.82 13.05 376.34 12.90L376.34 12.90L376.34 12.90Q376.87 12.75 377.38 12.45L377.38 12.45L377.38 12.45Q377.90 12.14 378.31 11.70L378.31 11.70L378.31 11.70Q378.71 11.26 378.97 10.62L378.97 10.62L378.97 10.62Q379.23 9.98 379.23 9.24L379.23 9.24L379.23 9.24Q379.23 6.71 377.90 5.30L377.90 5.30L377.90 5.30Q376.57 3.89 374.61 3.89L374.61 3.89L374.61 3.89Q373.07 3.89 371.99 4.93L371.99 4.93L371.99 4.93Q370.90 5.96 370.90 7.98ZM398.26 5.32L398.26 5.32L398.26 5.32Q398.26 4.76 398.40 3.88L398.40 3.88L398.40 3.88Q398.40 3.85 398.41 3.78L398.41 3.78L398.41 3.78Q398.41 3.71 398.42 3.69L398.42 3.69L398.42 3.69Q398.43 3.67 398.43 3.62L398.43 3.62L398.43 3.62Q398.44 3.57 398.45 3.55L398.45 3.55L398.45 3.55Q398.47 3.53 398.49 3.49L398.49 3.49L398.49 3.49Q398.51 3.46 398.54 3.44L398.54 3.44L398.54 3.44Q398.57 3.43 398.61 3.42L398.61 3.42L398.61 3.42Q398.65 3.40 398.71 3.39L398.71 3.39L398.71 3.39Q398.76 3.39 398.83 3.39L398.83 3.39L398.83 3.39Q399.06 3.39 400.02 3.44L400.02 3.44L400.02 3.44Q400.97 3.50 402.78 3.50L402.78 3.50L402.78 3.50Q405.86 3.50 407.09 3.43L407.09 3.43L407.09 3.43Q407.11 3.43 407.14 3.42L407.14 3.42L407.14 3.42Q407.18 3.42 407.19 3.42L407.19 3.42L407.19 3.42Q407.34 3.42 407.40 3.50L407.40 3.50L407.40 3.50Q407.46 3.58 407.46 3.65L407.46 3.65L407.46 3.65Q407.46 3.75 407.50 4.24L407.50 4.24L407.50 4.24Q407.54 4.73 407.54 4.79L407.54 4.79L407.54 4.79Q407.54 5.14 407.50 5.23L407.50 5.23L407.50 5.23Q407.46 5.32 407.32 5.32L407.32 5.32L407.32 5.32Q407.20 5.32 407.16 5.15L407.16 5.15L407.16 5.15Q407.05 4.75 406.97 4.60L406.97 4.60L406.97 4.60Q406.88 4.45 406.60 4.34L406.60 4.34L406.60 4.34Q406.32 4.23 405.75 4.23L405.75 4.23L403.93 4.23L403.93 4.23Q403.59 4.23 403.52 4.36L403.52 4.36L403.52 4.36Q403.44 4.49 403.44 5.12L403.44 5.12L403.44 5.81L403.44 5.81Q403.44 7.69 403.42 9.11L403.42 9.11L403.42 9.11Q403.40 10.54 403.40 10.93L403.40 10.93L403.40 10.93Q403.40 11.13 403.39 11.43L403.39 11.43L403.39 11.43Q403.38 11.73 403.38 11.84L403.38 11.84L403.38 11.84Q403.38 12.45 403.58 12.64L403.58 12.64L403.58 12.64Q403.76 12.81 403.98 12.90L403.98 12.90L403.98 12.90Q404.21 12.99 404.37 13.01L404.37 13.01L404.37 13.01Q404.53 13.02 404.64 13.08L404.64 13.08L404.64 13.08Q404.75 13.13 404.75 13.26L404.75 13.26L404.75 13.26Q404.75 13.41 404.68 13.45L404.68 13.45L404.68 13.45Q404.61 13.50 404.42 13.50L404.42 13.50L404.42 13.50Q404.25 13.50 403.68 13.44L403.68 13.44L403.68 13.44Q403.10 13.38 402.86 13.38L402.86 13.38L402.86 13.38Q402.70 13.38 402.19 13.43L402.19 13.43L402.19 13.43Q401.67 13.48 401.44 13.48L401.44 13.48L401.44 13.48Q400.92 13.48 400.92 13.26L400.92 13.26L400.92 13.26Q400.92 13.12 401.00 13.07L401.00 13.07L401.00 13.07Q401.09 13.02 401.33 12.98L401.33 12.98L401.33 12.98Q401.58 12.95 401.65 12.94L401.65 12.94L401.65 12.94Q402.12 12.82 402.18 12.38L402.18 12.38L402.18 12.38Q402.32 11.14 402.32 7.08L402.32 7.08L402.30 4.58L402.30 4.58Q402.30 4.31 402.15 4.25L402.15 4.25L402.15 4.25Q402.00 4.19 401.24 4.19L401.24 4.19L401.24 4.19Q400.26 4.19 399.76 4.24L399.76 4.24L399.76 4.24Q399.27 4.30 399.18 4.35L399.18 4.35L399.18 4.35Q399.10 4.40 398.99 4.54L398.99 4.54L398.99 4.54Q398.86 4.70 398.78 4.91L398.78 4.91L398.78 4.91Q398.71 5.11 398.69 5.24L398.69 5.24L398.69 5.24Q398.66 5.38 398.60 5.47L398.60 5.47L398.60 5.47Q398.54 5.56 398.41 5.56L398.41 5.56L398.41 5.56Q398.26 5.56 398.26 5.32ZM415.10 3.70L415.10 3.70L415.10 3.70Q415.10 3.47 415.51 3.47L415.51 3.47L417.83 3.47L417.83 3.47Q418.15 3.47 418.57 3.45L418.57 3.45L418.57 3.45Q418.99 3.43 419.23 3.43L419.23 3.43L419.23 3.43Q420.49 3.43 421.39 4.07L421.39 4.07L421.39 4.07Q422.28 4.70 422.28 5.78L422.28 5.78L422.28 5.78Q422.28 6.50 422.01 7.03L422.01 7.03L422.01 7.03Q421.74 7.57 421.41 7.81L421.41 7.81L421.41 7.81Q421.08 8.05 420.81 8.22L420.81 8.22L420.81 8.22Q420.53 8.40 420.53 8.46L420.53 8.46L420.53 8.46Q420.53 8.62 421.71 10.27L421.71 10.27L421.71 10.27Q422.88 11.91 423.32 12.38L423.32 12.38L423.32 12.38Q423.85 13.03 424.61 13.03L424.61 13.03L424.61 13.03Q424.80 13.03 424.80 13.20L424.80 13.20L424.80 13.20Q424.80 13.41 424.63 13.48L424.63 13.48L424.63 13.48Q424.47 13.55 423.77 13.55L423.77 13.55L423.77 13.55Q423.11 13.55 422.56 13.23L422.56 13.23L422.56 13.23Q421.86 12.82 420.20 10.09L420.20 10.09L420.20 10.09Q420.10 9.94 420.06 9.87L420.06 9.87L420.06 9.87Q419.38 8.78 419.02 8.78L419.02 8.78L418.73 8.78L417.87 8.78L417.87 8.78Q417.70 8.78 417.67 8.92L417.67 8.92L417.67 8.92Q417.63 9.06 417.63 9.77L417.63 9.77L417.63 9.77Q417.63 10.44 417.63 10.88L417.63 10.88L417.63 10.88Q417.63 11.31 417.64 11.43L417.64 11.43L417.64 11.43Q417.65 11.55 417.65 11.63L417.65 11.63L417.65 11.63Q417.65 11.70 417.65 11.75L417.65 11.75L417.65 11.75Q417.65 12.32 417.91 12.63L417.91 12.63L417.91 12.63Q418.18 12.95 418.51 13.00L418.51 13.00L418.51 13.00Q418.84 13.05 419.10 13.11L419.10 13.11L419.10 13.11Q419.37 13.17 419.37 13.31L419.37 13.31L419.37 13.31Q419.37 13.54 419.12 13.54L419.12 13.54L419.12 13.54Q419.10 13.54 418.15 13.49L418.15 13.49L418.15 13.49Q417.20 13.44 417.12 13.44L417.12 13.44L417.12 13.44Q416.71 13.44 416.15 13.47L416.15 13.47L416.15 13.47Q415.59 13.50 415.58 13.50L415.58 13.50L415.58 13.50Q415.28 13.50 415.28 13.27L415.28 13.27L415.28 13.27Q415.28 13.12 415.46 13.05L415.46 13.05L415.46 13.05Q415.65 12.99 415.87 12.96L415.87 12.96L415.87 12.96Q416.09 12.94 416.28 12.66L416.28 12.66L416.28 12.66Q416.46 12.38 416.46 11.86L416.46 11.86L416.46 11.86Q416.46 11.49 416.47 9.90L416.47 9.90L416.47 9.90Q416.47 8.30 416.47 7.45L416.47 7.45L416.47 7.45Q416.47 6.58 416.47 5.86L416.47 5.86L416.47 5.86Q416.46 5.14 416.46 5.08L416.46 5.08L416.46 5.08Q416.46 4.56 416.25 4.29L416.25 4.29L416.25 4.29Q416.04 4.02 415.78 3.98L415.78 3.98L415.78 3.98Q415.52 3.95 415.31 3.89L415.31 3.89L415.31 3.89Q415.10 3.84 415.10 3.70ZM417.63 5.54L417.63 5.94L417.63 5.94Q417.63 7.38 417.65 7.72L417.65 7.72L417.65 7.72Q417.66 8.06 417.75 8.12L417.75 8.12L417.75 8.12Q417.96 8.25 418.35 8.25L418.35 8.25L418.49 8.25L418.89 8.25L418.89 8.25Q420.08 8.25 420.60 7.70L420.60 7.70L420.60 7.70Q421.11 7.15 421.11 6.30L421.11 6.30L421.11 6.30Q421.11 5.43 420.43 4.72L420.43 4.72L420.43 4.72Q419.75 4.00 418.38 4.00L418.38 4.00L418.38 4.00Q417.86 4.00 417.75 4.28L417.75 4.28L417.75 4.28Q417.63 4.55 417.63 5.54L417.63 5.54ZM431.34 3.68L431.34 3.68L431.34 3.68Q431.34 3.61 431.35 3.58L431.35 3.58L431.35 3.58Q431.37 3.56 431.44 3.53L431.44 3.53L431.44 3.53Q431.51 3.50 431.66 3.50L431.66 3.50L431.66 3.50Q431.82 3.50 432.31 3.53L432.31 3.53L432.31 3.53Q432.80 3.56 433.24 3.56L433.24 3.56L433.24 3.56Q433.52 3.56 433.76 3.54L433.76 3.54L433.76 3.54Q433.99 3.53 434.56 3.53L434.56 3.53L434.56 3.53Q434.85 3.53 434.85 3.72L434.85 3.72L434.85 3.72Q434.85 3.85 434.76 3.88L434.76 3.88L434.76 3.88Q434.66 3.91 434.51 3.92L434.51 3.92L434.51 3.92Q434.36 3.93 434.22 4.02L434.22 4.02L434.22 4.02Q434.07 4.10 433.97 4.43L433.97 4.43L433.97 4.43Q433.87 4.76 433.87 5.32L433.87 5.32L433.87 5.71L433.87 5.71Q433.87 6.37 433.87 7.37L433.87 7.37L433.87 7.37Q433.86 8.37 433.86 8.74L433.86 8.74L433.86 8.74Q433.86 9.17 433.87 9.39L433.87 9.39L433.87 9.39Q433.87 9.62 433.90 10.04L433.90 10.04L433.90 10.04Q433.93 10.47 433.98 10.72L433.98 10.72L433.98 10.72Q434.03 10.96 434.14 11.32L434.14 11.32L434.14 11.32Q434.25 11.68 434.41 11.89L434.41 11.89L434.41 11.89Q434.57 12.10 434.82 12.35L434.82 12.35L434.82 12.35Q435.06 12.60 435.39 12.73L435.39 12.73L435.39 12.73Q435.71 12.87 436.14 12.96L436.14 12.96L436.14 12.96Q436.58 13.05 437.11 13.05L437.11 13.05L437.11 13.05Q437.56 13.05 437.81 13.03L437.81 13.03L437.81 13.03Q438.06 13.02 438.50 12.94L438.50 12.94L438.50 12.94Q438.94 12.87 439.20 12.72L439.20 12.72L439.20 12.72Q439.46 12.57 439.79 12.27L439.79 12.27L439.79 12.27Q440.12 11.97 440.30 11.54L440.30 11.54L440.30 11.54Q440.48 11.10 440.61 10.43L440.61 10.43L440.61 10.43Q440.73 9.76 440.73 8.90L440.73 8.90L440.73 8.90Q440.73 7.49 440.73 6.75L440.73 6.75L440.73 6.75Q440.72 6.01 440.72 5.94L440.72 5.94L440.72 5.94Q440.72 5.45 440.70 5.17L440.70 5.17L440.70 5.17Q440.68 4.89 440.56 4.55L440.56 4.55L440.56 4.55Q440.44 4.21 440.22 4.06L440.22 4.06L440.22 4.06Q440.08 3.96 439.85 3.93L439.85 3.93L439.85 3.93Q439.63 3.89 439.49 3.87L439.49 3.87L439.49 3.87Q439.35 3.85 439.35 3.75L439.35 3.75L439.35 3.75Q439.35 3.53 439.63 3.53L439.63 3.53L439.63 3.53Q439.71 3.53 440.17 3.54L440.17 3.54L440.17 3.54Q440.64 3.56 440.71 3.56L440.71 3.56L440.71 3.56Q441.04 3.56 441.42 3.54L441.42 3.54L441.42 3.54Q441.80 3.51 441.90 3.51L441.90 3.51L441.90 3.51Q442.19 3.51 442.19 3.70L442.19 3.70L442.19 3.70Q442.19 3.81 441.89 3.98L441.89 3.98L441.89 3.98Q441.59 4.16 441.52 4.30L441.52 4.30L441.52 4.30Q441.36 4.59 441.36 5.22L441.36 5.22L441.36 5.22Q441.36 5.32 441.37 5.62L441.37 5.62L441.37 5.62Q441.38 5.92 441.38 6.16L441.38 6.16L441.38 6.16Q441.38 8.85 441.15 10.28L441.15 10.28L441.15 10.28Q440.93 11.70 440.48 12.36L440.48 12.36L440.48 12.36Q440.02 13.01 439.11 13.40L439.11 13.40L439.11 13.40Q438.37 13.71 437.11 13.71L437.11 13.71L437.11 13.71Q434.77 13.71 433.79 12.81L433.79 12.81L433.79 12.81Q433.02 12.10 432.84 11.09L432.84 11.09L432.84 11.09Q432.66 10.09 432.66 7.64L432.66 7.64L432.66 7.41L432.66 7.41Q432.66 6.86 432.67 6.20L432.67 6.20L432.67 6.20Q432.68 5.54 432.68 5.39L432.68 5.39L432.68 5.39Q432.68 4.62 432.50 4.33L432.50 4.33L432.50 4.33Q432.32 4.05 431.65 3.95L431.65 3.95L431.65 3.95Q431.34 3.91 431.34 3.68ZM450.30 10.82L450.30 10.82L450.30 10.82Q450.30 10.53 450.49 10.53L450.49 10.53L450.49 10.53Q450.67 10.53 450.72 10.67L450.72 10.67L450.72 10.67Q450.86 11.00 450.98 11.25L450.98 11.25L450.98 11.25Q451.09 11.49 451.36 11.85L451.36 11.85L451.36 11.85Q451.63 12.21 451.93 12.44L451.93 12.44L451.93 12.44Q452.24 12.67 452.73 12.84L452.73 12.84L452.73 12.84Q453.21 13.01 453.78 13.01L453.78 13.01L453.78 13.01Q454.83 13.01 455.47 12.45L455.47 12.45L455.47 12.45Q456.11 11.90 456.11 11.00L456.11 11.00L456.11 11.00Q456.11 10.35 455.67 9.90L455.67 9.90L455.67 9.90Q455.24 9.46 454.68 9.27L454.68 9.27L454.68 9.27Q454.12 9.09 453.26 8.77L453.26 8.77L453.26 8.77Q452.40 8.46 451.85 8.13L451.85 8.13L451.85 8.13Q450.58 7.38 450.58 6.08L450.58 6.08L450.58 6.08Q450.58 4.83 451.48 4.08L451.48 4.08L451.48 4.08Q452.38 3.33 453.82 3.33L453.82 3.33L453.82 3.33Q454.36 3.33 455.09 3.56L455.09 3.56L455.09 3.56Q455.83 3.79 455.84 3.79L455.84 3.79L455.84 3.79Q455.88 3.79 455.99 3.74L455.99 3.74L455.99 3.74Q456.11 3.68 456.16 3.68L456.16 3.68L456.16 3.68Q456.34 3.68 456.37 3.79L456.37 3.79L456.37 3.79Q456.67 5.49 456.67 5.70L456.67 5.70L456.67 5.70Q456.67 6.09 456.47 6.09L456.47 6.09L456.47 6.09Q456.34 6.09 456.27 5.89L456.27 5.89L456.27 5.89Q456.11 5.49 455.95 5.24L455.95 5.24L455.95 5.24Q455.78 4.98 455.71 4.91L455.71 4.91L455.71 4.91Q455.64 4.84 455.35 4.58L455.35 4.58L455.35 4.58Q454.59 3.91 453.52 3.91L453.52 3.91L453.52 3.91Q452.65 3.91 452.06 4.33L452.06 4.33L452.06 4.33Q451.47 4.75 451.47 5.46L451.47 5.46L451.47 5.46Q451.47 6.09 451.82 6.50L451.82 6.50L451.82 6.50Q452.16 6.90 452.73 7.13L452.73 7.13L452.73 7.13Q453.31 7.35 453.94 7.55L453.94 7.55L453.94 7.55Q454.57 7.74 455.27 8.09L455.27 8.09L455.27 8.09Q455.98 8.44 456.44 8.93L456.44 8.93L456.44 8.93Q457.00 9.53 457.00 10.43L457.00 10.43L457.00 10.43Q457.00 11.90 456.06 12.76L456.06 12.76L456.06 12.76Q455.13 13.62 453.74 13.62L453.74 13.62L453.74 13.62Q452.77 13.62 452.19 13.52L452.19 13.52L452.19 13.52Q451.60 13.41 450.98 13.09L450.98 13.09L450.98 13.09Q450.80 12.98 450.55 12.00L450.55 12.00L450.55 12.00Q450.30 11.02 450.30 10.82ZM465.09 5.32L465.09 5.32L465.09 5.32Q465.09 4.76 465.23 3.88L465.23 3.88L465.23 3.88Q465.23 3.85 465.24 3.78L465.24 3.78L465.24 3.78Q465.25 3.71 465.26 3.69L465.26 3.69L465.26 3.69Q465.26 3.67 465.27 3.62L465.27 3.62L465.27 3.62Q465.28 3.57 465.29 3.55L465.29 3.55L465.29 3.55Q465.30 3.53 465.33 3.49L465.33 3.49L465.33 3.49Q465.35 3.46 465.37 3.44L465.37 3.44L465.37 3.44Q465.40 3.43 465.44 3.42L465.44 3.42L465.44 3.42Q465.49 3.40 465.54 3.39L465.54 3.39L465.54 3.39Q465.60 3.39 465.67 3.39L465.67 3.39L465.67 3.39Q465.89 3.39 466.85 3.44L466.85 3.44L466.85 3.44Q467.81 3.50 469.62 3.50L469.62 3.50L469.62 3.50Q472.70 3.50 473.93 3.43L473.93 3.43L473.93 3.43Q473.94 3.43 473.98 3.42L473.98 3.42L473.98 3.42Q474.01 3.42 474.03 3.42L474.03 3.42L474.03 3.42Q474.18 3.42 474.24 3.50L474.24 3.50L474.24 3.50Q474.29 3.58 474.29 3.65L474.29 3.65L474.29 3.65Q474.29 3.75 474.33 4.24L474.33 4.24L474.33 4.24Q474.38 4.73 474.38 4.79L474.38 4.79L474.38 4.79Q474.38 5.14 474.33 5.23L474.33 5.23L474.33 5.23Q474.29 5.32 474.15 5.32L474.15 5.32L474.15 5.32Q474.04 5.32 474.00 5.15L474.00 5.15L474.00 5.15Q473.89 4.75 473.80 4.60L473.80 4.60L473.80 4.60Q473.72 4.45 473.44 4.34L473.44 4.34L473.44 4.34Q473.16 4.23 472.58 4.23L472.58 4.23L470.76 4.23L470.76 4.23Q470.43 4.23 470.35 4.36L470.35 4.36L470.35 4.36Q470.27 4.49 470.27 5.12L470.27 5.12L470.27 5.81L470.27 5.81Q470.27 7.69 470.25 9.11L470.25 9.11L470.25 9.11Q470.23 10.54 470.23 10.93L470.23 10.93L470.23 10.93Q470.23 11.13 470.23 11.43L470.23 11.43L470.23 11.43Q470.22 11.73 470.22 11.84L470.22 11.84L470.22 11.84Q470.22 12.45 470.41 12.64L470.41 12.64L470.41 12.64Q470.60 12.81 470.82 12.90L470.82 12.90L470.82 12.90Q471.04 12.99 471.21 13.01L471.21 13.01L471.21 13.01Q471.37 13.02 471.48 13.08L471.48 13.08L471.48 13.08Q471.59 13.13 471.59 13.26L471.59 13.26L471.59 13.26Q471.59 13.41 471.52 13.45L471.52 13.45L471.52 13.45Q471.45 13.50 471.25 13.50L471.25 13.50L471.25 13.50Q471.09 13.50 470.51 13.44L470.51 13.44L470.51 13.44Q469.94 13.38 469.70 13.38L469.70 13.38L469.70 13.38Q469.53 13.38 469.02 13.43L469.02 13.43L469.02 13.43Q468.51 13.48 468.27 13.48L468.27 13.48L468.27 13.48Q467.75 13.48 467.75 13.26L467.75 13.26L467.75 13.26Q467.75 13.12 467.84 13.07L467.84 13.07L467.84 13.07Q467.92 13.02 468.17 12.98L468.17 12.98L468.17 12.98Q468.41 12.95 468.48 12.94L468.48 12.94L468.48 12.94Q468.96 12.82 469.01 12.38L469.01 12.38L469.01 12.38Q469.15 11.14 469.15 7.08L469.15 7.08L469.14 4.58L469.14 4.58Q469.14 4.31 468.99 4.25L468.99 4.25L468.99 4.25Q468.83 4.19 468.08 4.19L468.08 4.19L468.08 4.19Q467.10 4.19 466.60 4.24L466.60 4.24L466.60 4.24Q466.10 4.30 466.02 4.35L466.02 4.35L466.02 4.35Q465.93 4.40 465.82 4.54L465.82 4.54L465.82 4.54Q465.70 4.70 465.62 4.91L465.62 4.91L465.62 4.91Q465.54 5.11 465.52 5.24L465.52 5.24L465.52 5.24Q465.50 5.38 465.44 5.47L465.44 5.47L465.44 5.47Q465.37 5.56 465.25 5.56L465.25 5.56L465.25 5.56Q465.09 5.56 465.09 5.32Z"></path></g></svg>