<?xml version="1.0" encoding="UTF-8" standalone="no"?>
<svg
   xmlns:dc="http://purl.org/dc/elements/1.1/"
   xmlns:cc="http://creativecommons.org/ns#"
   xmlns:rdf="http://www.w3.org/1999/02/22-rdf-syntax-ns#"
   xmlns:svg="http://www.w3.org/2000/svg"
   xmlns="http://www.w3.org/2000/svg"
   xmlns:sodipodi="http://sodipodi.sourceforge.net/DTD/sodipodi-0.dtd"
   xmlns:inkscape="http://www.inkscape.org/namespaces/inkscape"
   data-v-423bf9ae=""
   viewBox="0 0 489 111"
   class="iconLeftSlogan"
   version="1.1"
   id="svg13"
   sodipodi:docname="logo-mono-white.svg"
   inkscape:version="1.0.1 (3bc2e813f5, 2020-09-07)">
  <metadata
     id="metadata19">
    <rdf:RDF>
      <cc:Work
         rdf:about="">
        <dc:format>image/svg+xml</dc:format>
        <dc:type
           rdf:resource="http://purl.org/dc/dcmitype/StillImage" />
        <dc:title></dc:title>
      </cc:Work>
    </rdf:RDF>
  </metadata>
  <defs
     id="defs17" />
  <sodipodi:namedview
     pagecolor="#000000"
     bordercolor="#666666"
     borderopacity="1"
     objecttolerance="10"
     gridtolerance="10"
     guidetolerance="10"
     inkscape:pageopacity="0"
     inkscape:pageshadow="2"
     inkscape:window-width="1916"
     inkscape:window-height="1037"
     id="namedview15"
     showgrid="false"
     inkscape:zoom="2.6952965"
     inkscape:cx="244.5"
     inkscape:cy="55.5"
     inkscape:window-x="0"
     inkscape:window-y="41"
     inkscape:window-maximized="0"
     inkscape:current-layer="svg13" />
  <!---->
  <!---->
  <!---->
  <g
     data-v-423bf9ae=""
     id="f69d5ab9-dd0a-4abb-b25d-938565621a7f"
     fill="white"
     transform="matrix(4.966871738433838,0,0,4.966871738433838,125.6018295288086,-18.575908660888672)">
    <path
       d="M9.35 15.29C9.72 15.12 10.07 14.92 10.40 14.69L10.40 14.67L10.42 14.67C10.42 14.66 10.42 14.66 10.43 14.66C10.54 14.56 10.56 14.38 10.44 14.27L9.39 13.02C9.31 12.91 9.14 12.88 9.03 12.95C9.03 12.96 9.02 12.96 9.02 12.96C7.42 14.04 5.22 13.76 3.95 12.26C2.58 10.64 2.77 8.22 4.38 6.85C5.66 5.77 7.45 5.66 8.81 6.45C8.92 6.51 9.03 6.50 9.11 6.43L10.43 5.32C10.54 5.22 10.56 5.04 10.44 4.91L10.42 4.89L10.37 4.86C8.18 3.29 5.11 3.35 2.97 5.17C0.42 7.32 0.11 11.14 2.27 13.68C4.05 15.78 6.96 16.35 9.35 15.29ZM20.06 15.37L17.84 11.42L17.53 10.89L17.46 10.77C19.49 10.32 20.54 8.82 20.54 7.35C20.54 6.38 20.09 5.46 19.32 4.82C18.54 4.14 17.43 3.79 16.16 3.79L12.07 3.79C11.91 3.79 11.79 3.92 11.79 4.06L11.79 5.17L11.93 5.42L11.93 5.43L13.79 8.71L11.79 8.71L11.79 15.54C11.79 15.69 11.91 15.82 12.07 15.82L13.71 15.82C13.85 15.82 13.97 15.69 13.97 15.54L13.97 10.89L15.02 10.89L15.32 11.42L17.71 15.65L17.74 15.69C17.78 15.76 17.86 15.82 17.96 15.82L19.84 15.82C19.99 15.82 20.10 15.69 20.10 15.53C20.10 15.48 20.10 15.44 20.08 15.40ZM16.00 8.19L14.76 5.98L16.16 5.98C17.67 5.98 18.34 6.69 18.34 7.35C18.34 7.91 17.84 8.53 16.70 8.68C16.58 8.69 16.44 8.71 16.30 8.71ZM29.88 4.06C29.88 4.10 29.88 4.13 29.86 4.17L29.83 4.21L26.80 10.05L26.33 10.96L23.90 15.62L23.88 15.67C23.88 15.68 23.88 15.68 23.87 15.68C23.83 15.75 23.74 15.81 23.65 15.81L21.80 15.81C21.64 15.81 21.53 15.68 21.53 15.51C21.53 15.48 21.53 15.46 21.55 15.43L21.59 15.34L24.42 9.91L21.55 4.20C21.53 4.14 21.52 4.10 21.52 4.06C21.52 4.03 21.52 3.99 21.53 3.96L21.57 3.88C21.63 3.81 21.70 3.77 21.80 3.77L23.62 3.77C23.72 3.77 23.81 3.82 23.86 3.91L25.66 7.52L27.51 3.95C27.52 3.93 27.52 3.92 27.52 3.92L27.55 3.88C27.59 3.81 27.68 3.77 27.76 3.77L29.61 3.77C29.76 3.77 29.88 3.91 29.88 4.06ZM38.25 4.79C37.42 4.13 36.29 3.78 34.96 3.78L31.14 3.78C30.98 3.78 30.86 3.91 30.86 4.06L30.86 5.18L33.01 8.69L30.86 8.69L30.86 15.53C30.86 15.68 30.98 15.81 31.14 15.81L32.77 15.81C32.93 15.81 33.04 15.68 33.04 15.53L33.04 10.89L34.99 10.89C36.30 10.88 37.44 10.54 38.25 9.88C39.07 9.23 39.54 8.30 39.54 7.34C39.54 6.36 39.07 5.43 38.25 4.79ZM33.91 5.96L34.96 5.96C36.53 5.96 37.35 6.65 37.35 7.34C37.35 7.92 36.74 8.51 35.55 8.67ZM48.37 5.68C48.37 5.84 48.22 5.96 48.03 5.96L45.36 5.96L45.36 15.47C45.36 15.65 45.23 15.81 45.09 15.81L43.44 15.81C43.30 15.81 43.18 15.65 43.18 15.47L43.18 5.96L40.45 5.96C40.29 5.96 40.17 5.84 40.17 5.68L40.17 4.05C40.17 3.89 40.29 3.78 40.45 3.78L48.03 3.78C48.22 3.78 48.37 3.89 48.37 4.05ZM56.57 11.16C56.57 11.00 56.45 10.89 56.29 10.89L55.37 10.89L53.66 4.05L53.65 3.98C53.61 3.88 53.51 3.81 53.40 3.81L51.56 3.81C51.45 3.81 51.35 3.88 51.31 3.98L51.30 4.06L48.45 15.41C48.45 15.43 48.45 15.44 48.44 15.44L48.44 15.50C48.44 15.67 48.57 15.79 48.71 15.79L50.40 15.79C50.51 15.79 50.62 15.71 50.65 15.60C50.65 15.58 50.67 15.57 50.67 15.57L51.28 13.06L53.68 13.06L54.29 15.55L54.31 15.60C54.35 15.71 54.45 15.79 54.56 15.79L56.25 15.79C56.41 15.79 56.52 15.67 56.52 15.50L56.52 15.47L56.50 15.40L55.92 13.06L56.29 13.06C56.45 13.06 56.57 12.95 56.57 12.80ZM51.83 10.89L52.49 8.30L53.13 10.89ZM64.96 15.54C64.96 15.69 64.81 15.81 64.61 15.81L58.67 15.81C58.52 15.81 58.39 15.69 58.39 15.54L58.39 4.12C58.39 3.93 58.52 3.78 58.67 3.78L60.31 3.78C60.47 3.78 60.58 3.93 60.58 4.12L60.58 13.62L64.61 13.62C64.81 13.62 64.96 13.75 64.96 13.90ZM73.07 15.54C73.07 15.69 72.91 15.81 72.72 15.81L66.78 15.81C66.63 15.81 66.50 15.69 66.50 15.54L66.50 4.12C66.50 3.93 66.63 3.78 66.78 3.78L68.42 3.78C68.57 3.78 68.68 3.93 68.68 4.12L68.68 13.62L72.72 13.62C72.91 13.62 73.07 13.75 73.07 13.90Z"
       id="path2" />
  </g>
  <!---->
  <g
     data-v-423bf9ae=""
     id="d064475e-3f88-4343-a35e-ef956e0fdd47"
     transform="matrix(1.1058151721954346,0,0,1.1058151721954346,0.12940473854541779,0.9727206826210022)"
     stroke="none"
     fill="white">
    <path
       d="M98.891 31.017a2.172 2.172 0 0 0-2.112-2.127l-18.492-.527a2.184 2.184 0 0 0-1.398.458l-8.403 6.545-1.024-7.76a2.174 2.174 0 0 0-2.832-1.783l-9.507 3.108-9.606-19.606a2.171 2.171 0 0 0-1.08-1.035L25.932.183a2.175 2.175 0 0 0-3.041 1.83l-1.496 20.064a2.177 2.177 0 0 0 .391 1.414l21.965 31.168-19.053 25.229a2.176 2.176 0 0 0-.342 1.952l4.983 16.149a2.173 2.173 0 0 0 2.994 1.332l19.136-8.891a2.189 2.189 0 0 0 1.06-1.064l7.317-15.927 14.163 1.328c1.088.1 2.08-.616 2.324-1.68l2.043-8.929 19.99-14.965a2.177 2.177 0 0 0 .872-1.787l-.347-16.389zM41.962 11.953l10.084 20.59a2.175 2.175 0 0 0 2.628 1.11l6.088-1.991L56.43 45.35a2.176 2.176 0 0 0 3.454 2.336l7.502-6.173c.278-.074.541-.203.775-.385l10.782-8.397 14.512.413-22.15 22.809a2.182 2.182 0 0 0-.615 1.605c.025.597.295 1.156.746 1.549l3.117 2.716a2.07 2.07 0 0 0-.236.587l-1.372 5.989-18.223-14.587a2.147 2.147 0 0 0-.107-.271L38.409 19.866a2.175 2.175 0 0 0-2.118-1.226l-10.335.759 1.043-14.001 14.963 6.555zM28.838 81.62l18.696-24.756 3.568.178 2.034 5.62a2.157 2.157 0 0 0-.445.478L32.394 93.145 28.838 81.62z"
       id="path5" />
    <path
       d="M36.481 54.049a2.172 2.172 0 0 0-1.493-1.816L13.556 45.33a2.175 2.175 0 0 0-2.229.558L.611 56.968a2.17 2.17 0 0 0 .631 3.474l14.167 6.722a2.177 2.177 0 0 0 2.058-.105l17.981-10.897a2.173 2.173 0 0 0 1.033-2.113zm-22.969-4.165l14.806 4.768c-.085.001-.171-.001-.258.01L6.62 57.367c-.16.021-.311.063-.458.116l7.35-7.599z"
       id="path7" />
  </g>
  <!---->
  <g
     data-v-423bf9ae=""
     id="6f2cb6b9-9574-41a1-88db-5f97c7be71b5"
     fill="#ffffff"
     transform="matrix(0.60542423,0,0,0.60542423,129.57211,66.002102)">
    <path
       d="m 0.28,3.81 v 0 0 q 0,-0.16 0.16,-0.2 v 0 0 Q 0.6,3.57 1.15,3.57 v 0 0 q 0.08,0 0.38,0.01 v 0 0 Q 1.83,3.6 1.96,3.6 v 0 0 q 0.15,0 0.57,-0.01 v 0 0 Q 2.94,3.58 3.15,3.58 v 0 0 q 0.7,0 0.7,0.17 v 0 0 q 0,0.16 -0.29,0.26 v 0 0 q -0.3,0.11 -0.3,0.23 v 0 0 q 0,0.14 0.09,0.37 v 0 0 q 0.09,0.22 0.19,0.36 v 0 0 q 0.09,0.14 0.27,0.41 v 0 0 Q 3.99,5.64 4.02,5.7 v 0 0 Q 4.49,6.45 5,7.14 v 0 0 q 0.52,0.69 0.59,0.69 v 0 0 q 0.08,0 0.21,-0.17 v 0 0 Q 5.92,7.5 6.15,7.13 v 0 0 Q 6.37,6.75 6.52,6.52 v 0 0 Q 6.57,6.45 6.73,6.22 v 0 0 Q 6.89,5.98 6.95,5.88 v 0 0 q 0.06,-0.1 0.19,-0.3 v 0 0 Q 7.27,5.38 7.32,5.27 v 0 0 Q 7.38,5.17 7.46,5.02 v 0 0 Q 7.53,4.87 7.56,4.77 v 0 0 Q 7.59,4.68 7.59,4.59 v 0 0 q 0,-0.45 -0.48,-0.56 v 0 0 Q 7.06,4.02 6.95,4 V 4 4 Q 6.85,3.99 6.8,3.98 v 0 0 Q 6.75,3.96 6.68,3.93 v 0 0 Q 6.61,3.91 6.58,3.86 v 0 0 Q 6.55,3.81 6.55,3.74 v 0 0 q 0,-0.17 0.39,-0.17 v 0 0 q 0.07,0 0.26,0.01 v 0 0 q 0.19,0 0.32,0 v 0 0 q 0.32,0 0.77,0.01 v 0 0 Q 8.75,3.6 9,3.6 v 0 0 q 0.69,0 0.69,0.21 v 0 0 q 0,0.05 -0.09,0.1 v 0 0 Q 9.52,3.95 9.37,4.02 v 0 0 Q 9.21,4.09 9.09,4.19 v 0 0 Q 8.51,4.63 7.4,6.31 v 0 0 Q 6.29,7.99 6.13,8.19 v 0 0 Q 5.91,8.47 5.85,8.81 v 0 0 Q 5.8,9.14 5.8,9.95 v 0 0 q 0,0.19 0,0.78 v 0 0 q 0.01,0.6 0.01,0.85 v 0 0.33 0 q 0,0.47 0.16,0.73 v 0 0 q 0.16,0.27 0.3,0.32 v 0 0 q 0.14,0.05 0.28,0.05 v 0 0 q 0.03,0 0.14,0 v 0 0 q 0.11,0.01 0.14,0.01 v 0 0 q 0.1,0 0.16,0.06 v 0 0 q 0.05,0.07 0.05,0.14 v 0 0 q 0,0.14 -0.07,0.18 v 0 0 Q 6.9,13.44 6.71,13.44 v 0 0 q -0.07,0 -0.61,-0.01 v 0 0 q -0.54,0 -0.79,0 v 0 0 q -0.49,0 -0.9,0.02 v 0 0 Q 4,13.48 3.77,13.48 v 0 0 q -0.4,0 -0.4,-0.15 v 0 0 q 0,-0.13 0.08,-0.18 v 0 0 Q 3.53,13.1 3.71,13.09 v 0 0 q 0.18,-0.01 0.27,-0.04 v 0 0 q 0.58,-0.18 0.58,-0.86 v 0 0 q 0,-0.08 0.01,-0.27 v 0 0 q 0.01,-0.19 0.01,-0.8 v 0 0 Q 4.59,10.5 4.59,9.35 v 0 0 q 0,-0.22 -0.03,-0.38 v 0 0 Q 4.52,8.81 4.47,8.65 v 0 0 Q 4.42,8.5 4.24,8.2 v 0 0 Q 4.05,7.91 3.86,7.64 v 0 0 Q 3.68,7.36 3.24,6.72 v 0 0 Q 2.8,6.08 2.39,5.46 v 0 0 Q 1.96,4.8 1.61,4.46 v 0 0 Q 1.26,4.12 1.07,4.05 v 0 0 Q 0.88,3.99 0.63,3.99 v 0 0 q -0.35,0 -0.35,-0.18 z m 16.9,4.88 v 0 0 q 0,-2.35 1.41,-3.85 v 0 0 Q 20.01,3.33 22.6,3.33 v 0 0 q 1.2,0 2.17,0.35 v 0 0 q 0.96,0.35 1.52,0.86 v 0 0 q 0.56,0.51 0.94,1.17 v 0 0 q 0.38,0.66 0.52,1.21 v 0 0 q 0.14,0.56 0.14,1.03 v 0 0 q 0,1.91 -0.74,3.21 v 0 0 q -0.75,1.31 -1.96,1.91 v 0 0 q -1.21,0.59 -2.79,0.59 v 0 0 q -1.67,0 -2.88,-0.72 v 0 0 Q 18.31,12.21 17.74,11.1 v 0 0 Q 17.18,10 17.18,8.69 Z m 1.23,-0.71 v 0 0 q 0,0.56 0.15,1.21 v 0 0 q 0.16,0.65 0.51,1.35 v 0 0 q 0.35,0.69 0.84,1.24 v 0 0 q 0.5,0.55 1.26,0.91 v 0 0 q 0.77,0.36 1.68,0.36 v 0 0 q 0.47,0 1,-0.15 v 0 0 q 0.52,-0.15 1.04,-0.45 v 0 0 q 0.52,-0.31 0.93,-0.75 v 0 0 q 0.4,-0.44 0.66,-1.08 v 0 0 q 0.26,-0.64 0.26,-1.38 v 0 0 q 0,-2.53 -1.33,-3.94 v 0 0 Q 24.08,3.89 22.12,3.89 v 0 0 q -1.54,0 -2.63,1.04 v 0 0 q -1.08,1.03 -1.08,3.05 z m 17.37,-4.3 v 0 0 q 0,-0.07 0.02,-0.1 v 0 0 q 0.01,-0.02 0.08,-0.05 v 0 0 Q 35.95,3.5 36.11,3.5 v 0 0 q 0.15,0 0.64,0.03 v 0 0 q 0.49,0.03 0.94,0.03 v 0 0 q 0.28,0 0.51,-0.02 v 0 0 Q 38.43,3.53 39,3.53 v 0 0 q 0.3,0 0.3,0.19 v 0 0 q 0,0.13 -0.1,0.16 v 0 0 q -0.1,0.03 -0.25,0.04 v 0 0 q -0.14,0.01 -0.29,0.1 v 0 0 Q 38.51,4.1 38.42,4.43 v 0 0 q -0.1,0.33 -0.1,0.89 v 0 0.39 0 q 0,0.66 -0.01,1.66 v 0 0 q -0.01,1 -0.01,1.37 v 0 0 q 0,0.43 0.01,0.65 v 0 0 q 0.01,0.23 0.04,0.65 v 0 0 q 0.02,0.43 0.07,0.68 v 0 0 q 0.05,0.24 0.16,0.6 v 0 0 q 0.12,0.36 0.28,0.57 v 0 0 q 0.16,0.21 0.4,0.46 v 0 0 q 0.25,0.25 0.57,0.38 v 0 0 q 0.32,0.14 0.76,0.23 v 0 0 q 0.43,0.09 0.96,0.09 v 0 0 q 0.45,0 0.7,-0.02 v 0 0 q 0.25,-0.01 0.7,-0.09 v 0 0 q 0.44,-0.07 0.69,-0.22 v 0 0 q 0.26,-0.15 0.59,-0.45 v 0 0 q 0.33,-0.3 0.51,-0.73 v 0 0 q 0.19,-0.44 0.31,-1.11 v 0 0 Q 45.18,9.76 45.18,8.9 v 0 0 q 0,-1.41 -0.01,-2.15 v 0 0 Q 45.16,6.01 45.16,5.94 v 0 0 q 0,-0.49 -0.02,-0.77 v 0 0 Q 45.12,4.89 45,4.55 v 0 0 Q 44.88,4.21 44.66,4.06 v 0 0 Q 44.52,3.96 44.3,3.93 v 0 0 Q 44.07,3.89 43.93,3.87 v 0 0 Q 43.79,3.85 43.79,3.75 v 0 0 q 0,-0.22 0.28,-0.22 v 0 0 q 0.09,0 0.55,0.01 v 0 0 q 0.46,0.02 0.53,0.02 v 0 0 q 0.34,0 0.71,-0.02 v 0 0 q 0.38,-0.03 0.48,-0.03 v 0 0 q 0.29,0 0.29,0.19 v 0 0 q 0,0.11 -0.3,0.28 v 0 0 q -0.3,0.18 -0.37,0.32 v 0 0 q -0.15,0.29 -0.15,0.92 v 0 0 q 0,0.1 0,0.4 v 0 0 q 0.01,0.3 0.01,0.54 v 0 0 q 0,2.69 -0.22,4.12 v 0 0 q -0.23,1.42 -0.68,2.08 v 0 0 q -0.46,0.65 -1.37,1.04 v 0 0 q -0.74,0.31 -2,0.31 v 0 0 q -2.34,0 -3.32,-0.9 v 0 0 Q 37.46,12.1 37.28,11.09 v 0 0 q -0.18,-1 -0.18,-3.45 v 0 -0.23 0 q 0,-0.55 0.01,-1.21 v 0 0 q 0.02,-0.66 0.02,-0.81 v 0 0 q 0,-0.77 -0.18,-1.06 v 0 0 Q 36.76,4.05 36.09,3.95 v 0 0 Q 35.78,3.91 35.78,3.68 Z M 54.19,3.7 v 0 0 q 0,-0.23 0.41,-0.23 v 0 h 2.32 v 0 q 0.33,0 0.75,-0.02 v 0 0 q 0.42,-0.02 0.65,-0.02 v 0 0 q 1.26,0 2.16,0.64 v 0 0 q 0.9,0.63 0.9,1.71 v 0 0 q 0,0.72 -0.28,1.25 v 0 0 q -0.27,0.54 -0.6,0.78 v 0 0 q -0.33,0.24 -0.6,0.41 v 0 0 Q 59.63,8.4 59.63,8.46 v 0 0 q 0,0.16 1.17,1.81 v 0 0 q 1.18,1.64 1.61,2.11 v 0 0 q 0.53,0.65 1.29,0.65 v 0 0 q 0.2,0 0.2,0.17 v 0 0 q 0,0.21 -0.17,0.28 v 0 0 q -0.17,0.07 -0.87,0.07 v 0 0 q -0.66,0 -1.2,-0.32 v 0 0 q -0.7,-0.41 -2.37,-3.14 v 0 0 Q 59.19,9.94 59.15,9.87 v 0 0 Q 58.48,8.78 58.11,8.78 v 0 h -0.29 -0.85 v 0 q -0.17,0 -0.21,0.14 v 0 0 q -0.03,0.14 -0.03,0.85 v 0 0 q 0,0.67 0,1.11 v 0 0 q 0,0.43 0,0.55 v 0 0 q 0.01,0.12 0.01,0.2 v 0 0 q 0,0.07 0,0.12 v 0 0 q 0,0.57 0.27,0.88 v 0 0 q 0.26,0.32 0.59,0.37 v 0 0 q 0.33,0.05 0.6,0.11 v 0 0 q 0.26,0.06 0.26,0.2 v 0 0 q 0,0.23 -0.25,0.23 v 0 0 q -0.01,0 -0.96,-0.05 v 0 0 q -0.96,-0.05 -1.04,-0.05 v 0 0 q -0.41,0 -0.97,0.03 v 0 0 q -0.56,0.03 -0.57,0.03 v 0 0 q -0.29,0 -0.29,-0.23 v 0 0 q 0,-0.15 0.18,-0.22 v 0 0 q 0.18,-0.06 0.4,-0.09 v 0 0 q 0.23,-0.02 0.41,-0.3 v 0 0 q 0.18,-0.28 0.18,-0.8 v 0 0 q 0,-0.37 0.01,-1.96 v 0 0 q 0.01,-1.6 0.01,-2.45 v 0 0 q 0,-0.87 -0.01,-1.59 v 0 0 Q 55.55,5.14 55.55,5.08 v 0 0 q 0,-0.52 -0.21,-0.79 v 0 0 Q 55.13,4.02 54.87,3.98 v 0 0 Q 54.61,3.95 54.4,3.89 v 0 0 Q 54.19,3.84 54.19,3.7 Z m 2.54,1.84 v 0.4 0 q 0,1.44 0.01,1.78 v 0 0 q 0.02,0.34 0.1,0.4 v 0 0 q 0.21,0.13 0.6,0.13 v 0 h 0.14 0.41 v 0 q 1.19,0 1.7,-0.55 v 0 0 Q 60.2,7.15 60.2,6.3 v 0 0 q 0,-0.87 -0.68,-1.58 v 0 0 Q 58.84,4 57.47,4 v 0 0 q -0.52,0 -0.63,0.28 v 0 0 q -0.11,0.27 -0.11,1.26 z m 24.83,3.15 v 0 0 q 0,-2.35 1.42,-3.85 v 0 0 q 1.41,-1.51 4,-1.51 v 0 0 q 1.21,0 2.17,0.35 v 0 0 q 0.97,0.35 1.53,0.86 v 0 0 q 0.56,0.51 0.94,1.17 v 0 0 q 0.37,0.66 0.51,1.21 v 0 0 q 0.14,0.56 0.14,1.03 v 0 0 q 0,1.91 -0.74,3.21 v 0 0 q -0.74,1.31 -1.95,1.91 v 0 0 q -1.21,0.59 -2.79,0.59 v 0 0 q -1.67,0 -2.88,-0.72 v 0 0 Q 82.7,12.21 82.13,11.1 v 0 0 Q 81.56,10 81.56,8.69 Z M 82.8,7.98 v 0 0 q 0,0.56 0.15,1.21 v 0 0 q 0.15,0.65 0.5,1.35 v 0 0 q 0.35,0.69 0.85,1.24 v 0 0 q 0.5,0.55 1.26,0.91 v 0 0 q 0.76,0.36 1.67,0.36 v 0 0 q 0.48,0 1.01,-0.15 v 0 0 q 0.52,-0.15 1.04,-0.45 v 0 0 Q 89.8,12.14 90.2,11.7 v 0 0 q 0.41,-0.44 0.67,-1.08 v 0 0 q 0.26,-0.64 0.26,-1.38 v 0 0 q 0,-2.53 -1.33,-3.94 v 0 0 Q 88.47,3.89 86.51,3.89 v 0 0 q -1.54,0 -2.63,1.04 v 0 0 Q 82.8,5.96 82.8,7.98 Z M 99.96,3.77 v 0 0 q 0,-0.09 0.1,-0.17 v 0 0 q 0.1,-0.07 0.25,-0.07 v 0 0 q 0.08,0 0.28,0.01 v 0 0 q 0.2,0 0.25,0 v 0 0 q 0.21,0 0.39,-0.01 v 0 0 q 0.19,-0.02 0.3,-0.02 v 0 0 q 0.12,0 0.29,0.08 v 0 0 q 0.17,0.08 0.2,0.16 v 0 0 q 0.03,0.04 0.15,0.19 v 0 0 q 0.13,0.15 0.34,0.39 v 0 0 q 0.21,0.23 0.38,0.46 v 0 0 q 1.9,2.48 5.09,5.98 v 0 0 q 0.09,0.09 0.21,0.22 v 0 0 q 0.11,0.13 0.16,0.19 v 0 0 q 0.05,0.06 0.11,0.12 v 0 0 q 0.05,0.05 0.09,0.08 v 0 0 q 0.03,0.02 0.06,0.02 v 0 0 q 0.14,0 0.14,-0.87 v 0 -1.64 0 q 0,-0.94 0,-1.58 v 0 0 q -0.01,-0.65 -0.02,-0.93 v 0 0 q -0.01,-0.29 -0.01,-0.36 v 0 -0.1 0 q 0,-0.47 -0.06,-0.81 v 0 0 Q 108.6,4.77 108.51,4.59 v 0 0 q -0.08,-0.18 -0.24,-0.31 v 0 0 Q 108.11,4.16 108,4.12 v 0 0 q -0.12,-0.03 -0.33,-0.07 v 0 0 Q 107.46,4 107.38,3.98 v 0 0 Q 107.1,3.89 107.1,3.74 v 0 0 q 0,-0.21 0.27,-0.21 v 0 0 q 0.08,0 0.67,0.01 v 0 0 q 0.59,0 0.66,0 v 0 0 q 0.33,0 0.75,-0.01 v 0 0 q 0.41,-0.02 0.51,-0.02 v 0 0 q 0.23,0 0.33,0.05 v 0 0 q 0.09,0.05 0.09,0.19 v 0 0 q 0,0.06 -0.08,0.11 v 0 0 q -0.08,0.05 -0.16,0.08 v 0 0 Q 110.05,3.98 109.97,4 v 0 l -0.08,0.03 v 0 q -0.47,0.25 -0.47,1.58 v 0 0.54 0 q 0,1.06 -0.07,3.68 v 0 0 q -0.08,2.63 -0.08,3.25 v 0 0.28 0 q 0,0.32 -0.2,0.32 v 0 0 q -0.12,0 -0.22,-0.1 v 0 0 Q 104.2,8.19 103.3,7.17 v 0 0 q -0.9,-1.01 -1,-1.01 v 0 0 q -0.14,0 -0.14,0.95 v 0 0 q 0,1.33 -0.06,2.86 v 0 0 q -0.05,1.54 -0.05,1.68 v 0 0 q 0,0.63 0.21,0.96 v 0 0 q 0.22,0.33 0.47,0.37 v 0 0 q 0.25,0.04 0.47,0.09 v 0 0 q 0.22,0.05 0.22,0.19 v 0 0 q 0,0.15 -0.05,0.19 v 0 0 q -0.05,0.05 -0.18,0.05 v 0 0 q -0.09,0 -0.44,-0.02 v 0 0 q -0.34,-0.01 -1.05,-0.01 v 0 0 q -0.13,0 -0.52,0.01 v 0 0 q -0.39,0.02 -0.67,0.02 v 0 0 q -0.31,0 -0.31,-0.23 v 0 0 q 0,-0.12 0.18,-0.16 v 0 0 q 0.18,-0.03 0.45,-0.22 v 0 0 q 0.26,-0.18 0.4,-0.68 v 0 0 q 0.09,-0.32 0.21,-2.61 v 0 0 q 0.13,-2.28 0.13,-3.15 v 0 0 q 0,-1.2 -0.34,-1.8 v 0 0 Q 100.9,4.06 100.14,3.98 v 0 0 Q 99.96,3.96 99.96,3.77 Z m 18.17,-0.12 v 0 0 q 0,-0.19 0.39,-0.19 v 0 0 q 0.06,0 0.19,0.01 v 0 0 q 0.12,0.02 0.19,0.02 v 0 0 q 0.04,0 1.32,0.03 v 0 0 q 1.27,0.04 2.1,0.04 v 0 0 q 0.29,0 1.45,-0.03 v 0 0 q 1.15,-0.03 1.35,-0.03 v 0 0 q 0.26,0 0.26,0.32 v 0 0 q 0,0.09 -0.08,0.56 v 0 0 q -0.08,0.46 -0.08,0.87 v 0 0 q 0,0.13 -0.07,0.22 v 0 0 q -0.07,0.09 -0.16,0.09 v 0 0 q -0.21,0 -0.21,-0.3 v 0 0 q 0,-0.37 -0.24,-0.68 v 0 0 q -0.23,-0.31 -0.58,-0.32 v 0 0 q -1.26,-0.1 -1.94,-0.1 v 0 h -0.36 v 0 q -0.73,0 -0.85,0.1 v 0 0 q -0.12,0.11 -0.14,0.75 v 0 0 q -0.06,1.01 -0.06,2.34 v 0 0 q 0,0.7 0.27,0.71 v 0 h 0.35 0.58 0.44 v 0 q 0.84,0 1.12,-0.05 v 0 0 q 0.28,-0.06 0.5,-0.21 v 0 0 q 0.27,-0.18 0.32,-0.52 v 0 0 q 0.05,-0.24 0.2,-0.24 v 0 0 q 0.13,0 0.15,0.04 v 0 0 q 0.03,0.05 0.03,0.19 v 0 0 q 0,0.09 -0.05,0.64 v 0 0 q -0.06,0.55 -0.06,0.83 v 0 0 q 0,0.26 0.02,0.5 v 0 0 q 0.02,0.24 0.02,0.35 v 0 0 q 0,0.35 -0.1,0.35 v 0 0 q -0.21,0 -0.3,-0.34 v 0 0 q -0.2,-0.58 -0.35,-0.68 v 0 0 q -0.3,-0.2 -1.35,-0.2 v 0 0 q -0.42,0 -0.68,0 v 0 0 q -0.26,0 -0.33,-0.01 v 0 0 q -0.08,0 -0.13,0 v 0 0 q -0.05,0 -0.09,0 v 0 0 q -0.57,0 -0.57,0.26 v 0 0 q 0,0.41 -0.02,1.02 v 0 0 q -0.01,0.61 -0.01,1 v 0 0.56 0 q 0,1.01 0.33,1.11 v 0 0 q 0.35,0.11 0.61,0.11 v 0 0 q 1.05,0 1.84,-0.1 v 0 0 q 0.79,-0.1 1.19,-0.25 v 0 0 q 0.4,-0.14 0.66,-0.32 v 0 0 q 0.27,-0.17 0.35,-0.32 v 0 0 q 0.07,-0.15 0.15,-0.24 v 0 0 q 0.08,-0.1 0.16,-0.1 v 0 0 q 0.17,0 0.17,0.24 v 0 0 q 0,0.6 -0.6,1.21 v 0 0 q -0.61,0.62 -1.05,0.62 v 0 0 q -1.01,0 -2.28,-0.07 v 0 0 q -1.27,-0.07 -1.57,-0.07 v 0 0 q -0.4,0 -0.98,0.06 v 0 0 q -0.59,0.07 -0.93,0.07 v 0 0 q -0.29,0 -0.29,-0.14 v 0 0 q 0,-0.13 0,-0.17 v 0 0 q 0,-0.04 0.04,-0.07 v 0 0 q 0.04,-0.03 0.09,-0.04 v 0 0 q 0.05,0 0.18,-0.05 v 0 0 q 0.14,-0.04 0.29,-0.11 v 0 0 q 0.34,-0.17 0.44,-0.66 v 0 0 q 0.11,-0.49 0.11,-2.05 v 0 -1.74 0 q 0,-0.38 0.02,-1.18 v 0 0 q 0.02,-0.79 0.02,-1.24 v 0 0 q 0,-0.38 -0.03,-1.28 v 0 0 q -0.01,-0.4 -0.35,-0.63 v 0 0 Q 118.8,3.92 118.36,3.91 v 0 0 q -0.23,0 -0.23,-0.26 z m 15.79,7.76 v 0 -0.15 0 q 0,-0.41 0.14,-0.52 v 0 0 q 0.13,-0.11 0.66,-0.27 v 0 0 q 0.74,-0.22 1.32,-0.43 v 0 0 q 0.57,-0.2 0.78,-0.28 v 0 0 q 0.2,-0.07 0.32,-0.07 v 0 0 q 0.31,0 0.31,0.47 v 0 0.09 0 q 0,0.12 0,0.19 v 0 0 q -0.01,0.07 -0.06,0.14 v 0 0 q -0.05,0.07 -0.08,0.1 v 0 0 q -0.04,0.03 -0.17,0.09 v 0 0 q -0.14,0.05 -0.24,0.08 v 0 0 q -0.11,0.03 -0.35,0.1 v 0 0 q -0.25,0.07 -0.46,0.14 v 0 0 q -0.39,0.12 -0.77,0.26 v 0 0 q -0.39,0.14 -0.56,0.21 v 0 0 q -0.18,0.06 -0.33,0.1 v 0 0 q -0.16,0.04 -0.28,0.04 v 0 0 q -0.23,0 -0.23,-0.29 z m 9.78,-7.7 v 0 0 q 0,-0.2 0.37,-0.2 v 0 0 q 0.09,0 0.54,0.03 v 0 0 q 0.46,0.02 1,0.02 v 0 0 q 0.4,0 0.79,-0.02 v 0 0 q 0.39,-0.03 0.42,-0.03 v 0 0 q 0.12,0 0.16,0.04 v 0 0 q 0.03,0.03 0.03,0.13 v 0 0 q 0,0.09 -0.3,0.24 v 0 0 q -0.3,0.15 -0.3,0.42 v 0 0 q 0,0.13 0.06,0.31 v 0 0 q 0.05,0.18 0.22,0.57 v 0 0 q 0.17,0.39 0.36,0.81 v 0 0 q 0.19,0.42 0.58,1.3 v 0 0 q 0.39,0.87 0.77,1.74 v 0 0 q 0.1,0.23 0.29,0.67 v 0 0 q 0.19,0.44 0.31,0.72 v 0 0 q 0.11,0.28 0.25,0.59 v 0 0 q 0.14,0.32 0.24,0.47 v 0 0 q 0.09,0.16 0.13,0.16 v 0 0 q 0.05,0 0.45,-0.87 v 0 0 q 0.39,-0.87 0.7,-1.64 v 0 0 q 0.05,-0.13 0.13,-0.28 v 0 0 q 0.08,-0.15 0.11,-0.26 v 0 0 q 0.04,-0.1 0.04,-0.22 v 0 0 q 0,-0.16 -0.84,-2.05 v 0 0 q -0.84,-1.88 -1.08,-2.15 v 0 0 Q 149.07,4.14 149.02,4.1 v 0 0 q -0.06,-0.04 -0.11,-0.08 v 0 0 q -0.05,-0.03 -0.08,-0.05 v 0 0 q -0.04,-0.02 -0.09,-0.03 v 0 0 q -0.06,-0.01 -0.08,-0.01 v 0 0 q -0.02,0 -0.08,0 v 0 0 Q 148.51,3.92 148.5,3.92 v 0 0 q -0.39,-0.04 -0.48,-0.08 v 0 0 Q 147.94,3.81 147.94,3.7 v 0 0 q 0,-0.2 0.4,-0.2 v 0 0 q 0.09,0 0.55,0.03 v 0 0 q 0.46,0.03 0.99,0.03 v 0 0 q 0.03,0 0.38,-0.03 v 0 0 q 0.35,-0.03 0.55,-0.03 v 0 0 q 0.42,0 0.42,0.11 v 0 0 q 0,0.09 -0.16,0.17 v 0 0 q -0.15,0.08 -0.3,0.22 v 0 0 q -0.14,0.13 -0.14,0.33 v 0 0 q 0,0.26 0.43,1.24 v 0 0 q 0.03,0.06 0.19,0.46 v 0 0 q 0.16,0.41 0.29,0.68 v 0 0 q 0.12,0.28 0.18,0.28 v 0 0 q 0.11,0 0.56,-1.23 v 0 0 q 0.45,-1.22 0.45,-1.45 v 0 0 q 0,-0.25 -0.21,-0.35 v 0 0 Q 152.31,3.85 152.1,3.8 v 0 0 q -0.21,-0.05 -0.21,-0.16 v 0 0 q 0,-0.15 0.3,-0.15 v 0 0 q 0.09,0 0.42,0.01 v 0 0 q 0.34,0.01 0.48,0.01 v 0 h 0.24 v 0 q 0.19,0 0.74,-0.04 v 0 h 0.13 v 0 q 0.18,0 0.18,0.14 v 0 0 q 0,0.14 -0.27,0.23 v 0 0 q -0.26,0.08 -0.36,0.18 v 0 0 q -0.23,0.22 -0.39,0.64 v 0 0 q -0.3,0.72 -0.7,1.67 v 0 0 q -0.42,0.98 -0.49,1.17 v 0 0 q -0.07,0.2 -0.07,0.35 v 0 0 q 0,0.12 0.85,2.02 v 0 0 q 0.85,1.9 1.01,1.9 v 0 0 q 0.17,0 1.63,-3.53 v 0 0 q 1.46,-3.54 1.46,-3.89 v 0 0 q 0,-0.22 -0.16,-0.34 v 0 0 q -0.16,-0.12 -0.36,-0.14 v 0 0 Q 156.34,3.85 156.18,3.8 v 0 0 q -0.16,-0.05 -0.16,-0.16 v 0 0 q 0,-0.1 0.04,-0.12 v 0 0 Q 156.1,3.5 156.28,3.5 v 0 0 q 0.04,0 0.32,0.01 v 0 0 q 0.28,0 0.56,0 v 0 0 q 0.26,0 0.57,-0.01 v 0 0 q 0.32,-0.01 0.68,-0.01 v 0 0 q 0.28,0 0.28,0.19 v 0 0 q 0,0.1 -0.08,0.16 v 0 0 q -0.07,0.05 -0.23,0.14 v 0 0 q -0.15,0.08 -0.26,0.19 v 0 0 Q 158.05,4.24 158,4.31 v 0 0 q -0.05,0.07 -0.11,0.18 v 0 0 q -0.05,0.1 -0.09,0.17 v 0 0 q -0.03,0.07 -0.11,0.25 v 0 0 q -0.08,0.17 -0.12,0.27 v 0 0 q -1.08,2.41 -2.41,5.4 v 0 0 q -1.06,2.43 -1.26,2.83 v 0 0 q -0.19,0.41 -0.31,0.41 v 0 0 q -0.07,0 -0.16,-0.18 v 0 0 q -0.1,-0.17 -0.28,-0.59 v 0 0 q -0.17,-0.41 -0.2,-0.48 v 0 0 q -0.14,-0.31 -0.37,-0.85 v 0 0 q -0.23,-0.55 -0.39,-0.93 v 0 0 q -0.16,-0.37 -0.33,-0.77 v 0 0 q -0.17,-0.39 -0.28,-0.59 v 0 0 q -0.11,-0.2 -0.16,-0.2 v 0 0 q -0.14,0 -0.94,1.93 v 0 0 q -0.81,1.93 -0.86,2.15 v 0 0 q -0.02,0.06 -0.04,0.12 v 0 0 q -0.02,0.05 -0.03,0.09 v 0 0 q -0.02,0.05 -0.03,0.09 v 0 0 q -0.01,0.04 -0.03,0.07 v 0 0 q -0.01,0.03 -0.02,0.05 v 0 0 q -0.01,0.03 -0.02,0.05 v 0 0 q -0.01,0.02 -0.03,0.04 v 0 0 q -0.01,0.01 -0.03,0.02 v 0 0 q -0.01,0.01 -0.02,0.01 v 0 0 q -0.02,0.01 -0.05,0.01 v 0 0 q -0.12,0 -0.3,-0.4 v 0 0 q -0.19,-0.4 -0.66,-1.57 v 0 0 q -0.48,-1.17 -0.97,-2.24 v 0 0 q -0.81,-1.78 -1.72,-4.02 v 0 0 Q 145.4,4.96 145.1,4.57 v 0 0 q -0.31,-0.38 -0.55,-0.48 v 0 0 q -0.24,-0.1 -0.43,-0.11 v 0 0 q -0.2,-0.02 -0.31,-0.06 v 0 0 Q 143.7,3.88 143.7,3.71 Z m 20.56,9.62 v 0 0 q 0,-0.2 0.21,-0.27 v 0 0 q 0.45,-0.17 0.79,-0.75 v 0 0 q 0.33,-0.58 1.66,-3.48 v 0 0 q 1.37,-2.96 2.42,-5.2 v 0 0 q 0.1,-0.21 0.18,-0.27 v 0 0 Q 169.6,3.3 169.76,3.3 v 0 0 q 0.13,0 0.17,0.06 v 0 0 q 0.04,0.06 0.18,0.46 v 0 0 q 0.09,0.24 0.15,0.41 v 0 0 q 0.06,0.17 0.2,0.54 v 0 0 q 0.14,0.38 0.31,0.79 v 0 0 q 0.45,1.1 1.55,3.66 v 0 0 q 1.1,2.55 1.2,2.76 v 0 0 q 0.23,0.48 0.53,0.73 v 0 0 q 0.29,0.24 0.51,0.26 v 0 0 q 0.22,0.02 0.36,0.07 v 0 0 q 0.15,0.05 0.15,0.22 v 0 0 q 0,0.21 -0.38,0.21 v 0 0 q -0.15,0 -0.6,-0.04 v 0 0 q -0.45,-0.05 -0.66,-0.05 v 0 0 q -0.26,0 -0.68,0.03 v 0 0 q -0.42,0.03 -0.62,0.03 v 0 0 q -0.43,0 -0.55,-0.04 v 0 0 q -0.12,-0.03 -0.12,-0.16 v 0 0 q 0,-0.09 0.11,-0.16 v 0 0 q 0.11,-0.06 0.24,-0.08 v 0 0 q 0.12,-0.02 0.24,-0.13 v 0 0 q 0.11,-0.1 0.11,-0.28 v 0 0 q 0,-0.31 -0.35,-1.26 v 0 0 q -0.35,-0.96 -0.59,-1.4 v 0 0 q -0.13,-0.24 -0.57,-0.24 v 0 0 q -0.07,0 -0.62,0.01 v 0 0 q -0.55,0.02 -1.08,0.02 v 0 h -0.74 v 0 q -0.63,0 -0.79,0.07 v 0 0 q -0.16,0.07 -0.29,0.33 v 0 0 q -0.08,0.18 -0.28,0.58 v 0 0 q -0.19,0.4 -0.26,0.56 v 0 0 q -0.07,0.15 -0.18,0.39 v 0 0 q -0.1,0.25 -0.14,0.4 v 0 0 q -0.03,0.14 -0.03,0.26 v 0 0 q 0,0.32 0.16,0.49 v 0 0 q 0.16,0.16 0.35,0.18 v 0 0 q 0.2,0.03 0.36,0.08 v 0 0 q 0.16,0.06 0.16,0.2 v 0 0 q 0,0.1 -0.04,0.14 v 0 0 q -0.04,0.05 -0.2,0.05 v 0 0 q -0.08,0 -0.48,0 v 0 0 q -0.4,-0.01 -0.68,-0.01 v 0 0 q -0.31,0 -0.69,0.03 v 0 0 q -0.39,0.03 -0.51,0.03 v 0 0 q -0.41,0 -0.41,-0.17 z m 3.52,-4.62 v 0 0 q 0,0.18 0.12,0.22 v 0 0 q 0.13,0.04 0.59,0.04 v 0 h 0.43 l 1.33,-0.01 v 0 q 0.55,0 0.55,-0.22 v 0 0 q 0,-0.19 -0.69,-1.73 v 0 0 q -0.68,-1.55 -0.86,-1.55 v 0 0 q -0.13,0 -0.8,1.55 v 0 0 q -0.67,1.54 -0.67,1.7 z m 12.81,-4.9 v 0 0 q 0,-0.16 0.16,-0.2 v 0 0 q 0.16,-0.04 0.7,-0.04 v 0 0 q 0.09,0 0.39,0.01 v 0 0 q 0.3,0.02 0.43,0.02 v 0 0 q 0.15,0 0.56,-0.01 v 0 0 q 0.42,-0.01 0.63,-0.01 v 0 0 q 0.7,0 0.7,0.17 v 0 0 q 0,0.16 -0.3,0.26 v 0 0 q -0.29,0.11 -0.29,0.23 v 0 0 q 0,0.14 0.09,0.37 v 0 0 q 0.09,0.22 0.18,0.36 v 0 0 q 0.09,0.14 0.27,0.41 v 0 0 q 0.19,0.26 0.21,0.32 v 0 0 q 0.48,0.75 0.99,1.44 v 0 0 q 0.51,0.69 0.58,0.69 v 0 0 q 0.09,0 0.21,-0.17 v 0 0 q 0.13,-0.16 0.35,-0.53 v 0 0 q 0.23,-0.38 0.38,-0.61 v 0 0 q 0.04,-0.07 0.2,-0.3 v 0 0 q 0.16,-0.24 0.23,-0.34 v 0 0 q 0.06,-0.1 0.19,-0.3 v 0 0 q 0.12,-0.2 0.18,-0.31 v 0 0 q 0.05,-0.1 0.13,-0.25 v 0 0 q 0.08,-0.15 0.11,-0.25 v 0 0 q 0.02,-0.09 0.02,-0.18 v 0 0 q 0,-0.45 -0.47,-0.56 v 0 0 Q 187.36,4.02 187.26,4 V 4 4 Q 187.15,3.99 187.1,3.98 v 0 0 q -0.05,-0.02 -0.12,-0.05 v 0 0 q -0.07,-0.02 -0.09,-0.07 v 0 0 q -0.03,-0.05 -0.03,-0.12 v 0 0 q 0,-0.17 0.39,-0.17 v 0 0 q 0.07,0 0.26,0.01 v 0 0 q 0.19,0 0.31,0 v 0 0 q 0.33,0 0.78,0.01 v 0 0 q 0.46,0.01 0.71,0.01 v 0 0 q 0.68,0 0.68,0.21 v 0 0 q 0,0.05 -0.08,0.1 v 0 0 q -0.08,0.04 -0.24,0.11 v 0 0 q -0.15,0.07 -0.28,0.17 v 0 0 q -0.57,0.44 -1.68,2.12 v 0 0 q -1.12,1.68 -1.27,1.88 v 0 0 q -0.23,0.28 -0.28,0.62 v 0 0 q -0.06,0.33 -0.06,1.14 v 0 0 q 0,0.19 0.01,0.78 v 0 0 q 0.01,0.6 0.01,0.85 v 0 0.33 0 q 0,0.47 0.16,0.73 v 0 0 q 0.16,0.27 0.3,0.32 v 0 0 q 0.14,0.05 0.28,0.05 v 0 0 q 0.03,0 0.14,0 v 0 0 q 0.11,0.01 0.14,0.01 v 0 0 q 0.1,0 0.15,0.06 v 0 0 q 0.06,0.07 0.06,0.14 v 0 0 q 0,0.14 -0.07,0.18 v 0 0 q -0.07,0.04 -0.27,0.04 v 0 0 q -0.07,0 -0.61,-0.01 v 0 0 q -0.54,0 -0.79,0 v 0 0 q -0.49,0 -0.89,0.02 v 0 0 q -0.41,0.03 -0.65,0.03 v 0 0 q -0.39,0 -0.39,-0.15 v 0 0 q 0,-0.13 0.08,-0.18 v 0 0 q 0.07,-0.05 0.26,-0.06 v 0 0 q 0.18,-0.01 0.26,-0.04 v 0 0 q 0.59,-0.18 0.59,-0.86 v 0 0 q 0,-0.08 0.01,-0.27 v 0 0 q 0,-0.19 0.01,-0.8 v 0 0 q 0.01,-0.62 0.01,-1.77 v 0 0 q 0,-0.22 -0.04,-0.38 v 0 0 q -0.03,-0.16 -0.08,-0.32 v 0 0 Q 184.73,8.5 184.54,8.2 v 0 0 q -0.19,-0.29 -0.37,-0.56 v 0 0 q -0.18,-0.28 -0.62,-0.92 v 0 0 Q 183.11,6.08 182.7,5.46 v 0 0 q -0.43,-0.66 -0.78,-1 v 0 0 q -0.35,-0.34 -0.54,-0.41 v 0 0 q -0.19,-0.06 -0.44,-0.06 v 0 0 q -0.35,0 -0.35,-0.18 z m 26.95,-0.13 v 0 0 q 0,-0.04 0.02,-0.08 v 0 0 q 0.02,-0.04 0.11,-0.1 v 0 0 q 0.09,-0.06 0.23,-0.06 v 0 h 0.38 v 0 q 0.33,0 1.08,0.05 v 0 0 q 0.75,0.04 1.96,0.04 v 0 0 q 0.99,0 1.76,-0.04 v 0 0 q 0.77,-0.03 1.41,-0.03 v 0 0 q 0.24,0 0.24,0.33 v 0 0 q 0,0.13 -0.03,0.32 v 0 0 q -0.02,0.19 -0.08,0.5 v 0 0 q -0.06,0.32 -0.08,0.61 v 0 0 q -0.03,0.28 -0.21,0.28 v 0 0 q -0.2,0 -0.2,-0.28 v 0 0 q 0,-0.92 -0.64,-0.96 v 0 0 q -2.12,-0.17 -2.52,-0.17 v 0 0 q -0.63,0 -0.78,0.15 v 0 0 q -0.15,0.16 -0.16,0.63 v 0 0 q 0,0.07 0,0.11 v 0 0 q -0.04,0.76 -0.04,2.34 v 0 0 q 0,0.69 0.25,0.7 v 0 0 q 0.07,0 0.19,0.01 v 0 0 q 0.12,0.01 0.16,0.01 v 0 0 q 0.1,0 0.29,-0.01 v 0 0 q 0.2,-0.01 0.31,-0.01 v 0 h 0.43 v 0 q 0.84,0 1.12,-0.05 v 0 0 q 0.27,-0.05 0.49,-0.2 v 0 0 q 0.13,-0.08 0.2,-0.2 v 0 0 q 0.07,-0.11 0.1,-0.26 v 0 0 q 0.03,-0.16 0.07,-0.23 v 0 0 q 0.04,-0.07 0.17,-0.07 v 0 0 q 0.12,0 0.15,0.05 v 0 0 q 0.03,0.04 0.03,0.18 v 0 0 q 0,0.1 -0.07,0.49 v 0 0 q -0.06,0.39 -0.06,0.67 v 0 0 q 0,0.27 0.05,0.65 v 0 0 q 0.05,0.39 0.05,0.5 v 0 0 q 0,0.22 -0.05,0.28 v 0 0 q -0.05,0.07 -0.15,0.07 v 0 0 q -0.23,0 -0.29,-0.35 v 0 0 q 0,-0.03 -0.01,-0.13 v 0 0 Q 213.4,9.32 213.4,9.28 v 0 0 q -0.01,-0.04 -0.04,-0.12 v 0 0 Q 213.33,9.09 213.3,9.04 v 0 0 Q 213.28,9 213.23,8.95 v 0 0 Q 213.19,8.9 213.12,8.88 v 0 0 q -0.19,-0.09 -0.7,-0.14 v 0 0 q -0.5,-0.06 -0.66,-0.06 v 0 h -1.21 v 0 q -0.58,0 -0.58,0.27 v 0 0 q 0,0.4 -0.01,1.01 v 0 0 q -0.02,0.61 -0.02,1 v 0 0 q 0,0.1 0,0.29 v 0 0 q -0.01,0.19 -0.01,0.27 v 0 0 q 0,0.28 0.06,0.56 v 0 0 q 0.05,0.28 0.32,0.59 v 0 0 q 0.28,0.31 0.74,0.31 v 0 0 q 0.42,0 0.42,0.25 v 0 0 q 0,0.04 -0.03,0.1 v 0 0 q -0.03,0.05 -0.13,0.11 v 0 0 q -0.11,0.06 -0.27,0.06 v 0 0 q -0.23,0 -0.71,-0.06 v 0 0 q -0.48,-0.06 -0.65,-0.06 v 0 0 q -0.39,0 -0.88,0.05 v 0 0 q -0.48,0.04 -0.82,0.04 v 0 0 q -0.28,0 -0.28,-0.16 v 0 0 q 0,-0.18 0.07,-0.22 v 0 0 q 0.06,-0.04 0.54,-0.21 v 0 0 q 0.36,-0.13 0.44,-0.75 v 0 0 q 0.09,-0.62 0.1,-2.53 v 0 0 q 0,-0.74 0,-1.16 v 0 0 q 0,-0.38 0.02,-1.18 v 0 0 q 0.02,-0.81 0.02,-1.25 v 0 -0.82 0 q 0,-0.92 -0.65,-1.23 v 0 0 Q 208.14,3.92 208,3.9 v 0 0 q -0.14,-0.02 -0.23,-0.02 v 0 0 q -0.09,0 -0.16,-0.05 v 0 0 q -0.07,-0.05 -0.07,-0.15 z m 14.75,0 v 0 0 q 0,-0.07 0.02,-0.1 v 0 0 q 0.01,-0.02 0.08,-0.05 v 0 0 q 0.07,-0.03 0.22,-0.03 v 0 0 q 0.16,0 0.65,0.03 v 0 0 q 0.49,0.03 0.94,0.03 v 0 0 q 0.28,0 0.51,-0.02 v 0 0 q 0.23,-0.01 0.8,-0.01 v 0 0 q 0.3,0 0.3,0.19 v 0 0 q 0,0.13 -0.1,0.16 v 0 0 q -0.1,0.03 -0.25,0.04 v 0 0 q -0.14,0.01 -0.29,0.1 v 0 0 q -0.15,0.08 -0.25,0.41 v 0 0 q -0.09,0.33 -0.09,0.89 v 0 0.39 0 q 0,0.66 -0.01,1.66 v 0 0 q -0.01,1 -0.01,1.37 v 0 0 q 0,0.43 0.01,0.65 v 0 0 q 0.01,0.23 0.03,0.65 v 0 0 q 0.03,0.43 0.08,0.68 v 0 0 q 0.05,0.24 0.16,0.6 v 0 0 q 0.11,0.36 0.28,0.57 v 0 0 q 0.16,0.21 0.4,0.46 v 0 0 q 0.25,0.25 0.57,0.38 v 0 0 q 0.32,0.14 0.75,0.23 v 0 0 q 0.44,0.09 0.97,0.09 v 0 0 q 0.45,0 0.7,-0.02 v 0 0 q 0.25,-0.01 0.69,-0.09 v 0 0 q 0.44,-0.07 0.7,-0.22 v 0 0 q 0.26,-0.15 0.59,-0.45 v 0 0 q 0.33,-0.3 0.51,-0.73 v 0 0 q 0.18,-0.44 0.31,-1.11 v 0 0 q 0.13,-0.67 0.13,-1.53 v 0 0 q 0,-1.41 -0.01,-2.15 v 0 0 q -0.01,-0.74 -0.01,-0.81 v 0 0 q 0,-0.49 -0.02,-0.77 v 0 0 q -0.02,-0.28 -0.14,-0.62 v 0 0 q -0.12,-0.34 -0.34,-0.49 v 0 0 q -0.14,-0.1 -0.37,-0.13 v 0 0 q -0.22,-0.04 -0.36,-0.06 v 0 0 Q 230.3,3.85 230.3,3.75 v 0 0 q 0,-0.22 0.28,-0.22 v 0 0 q 0.08,0 0.55,0.01 v 0 0 q 0.46,0.02 0.53,0.02 v 0 0 q 0.33,0 0.71,-0.02 v 0 0 q 0.38,-0.03 0.48,-0.03 v 0 0 q 0.29,0 0.29,0.19 v 0 0 q 0,0.11 -0.3,0.28 v 0 0 q -0.3,0.18 -0.37,0.32 v 0 0 q -0.15,0.29 -0.15,0.92 v 0 0 q 0,0.1 0,0.4 v 0 0 q 0.01,0.3 0.01,0.54 v 0 0 q 0,2.69 -0.22,4.12 v 0 0 q -0.23,1.42 -0.68,2.08 v 0 0 q -0.46,0.65 -1.37,1.04 v 0 0 q -0.74,0.31 -2,0.31 v 0 0 q -2.34,0 -3.32,-0.9 v 0 0 q -0.77,-0.71 -0.95,-1.72 v 0 0 q -0.18,-1 -0.18,-3.45 v 0 -0.23 0 q 0,-0.55 0.01,-1.21 v 0 0 q 0.02,-0.66 0.02,-0.81 v 0 0 q 0,-0.77 -0.19,-1.06 v 0 0 Q 223.27,4.05 222.6,3.95 v 0 0 q -0.31,-0.04 -0.31,-0.27 z m 18.41,0.09 v 0 0 q 0,-0.09 0.1,-0.17 v 0 0 q 0.1,-0.07 0.25,-0.07 v 0 0 q 0.09,0 0.28,0.01 v 0 0 q 0.2,0 0.25,0 v 0 0 q 0.21,0 0.4,-0.01 v 0 0 q 0.18,-0.02 0.29,-0.02 v 0 0 q 0.13,0 0.29,0.08 v 0 0 q 0.17,0.08 0.2,0.16 v 0 0 q 0.03,0.04 0.15,0.19 v 0 0 q 0.13,0.15 0.34,0.39 v 0 0 q 0.21,0.23 0.38,0.46 v 0 0 q 1.9,2.48 5.09,5.98 v 0 0 q 0.09,0.09 0.21,0.22 v 0 0 q 0.12,0.13 0.16,0.19 v 0 0 q 0.05,0.06 0.11,0.12 v 0 0 q 0.06,0.05 0.09,0.08 v 0 0 q 0.04,0.02 0.06,0.02 v 0 0 q 0.14,0 0.14,-0.87 v 0 -1.64 0 q 0,-0.94 0,-1.58 v 0 0 q -0.01,-0.65 -0.02,-0.93 v 0 0 q 0,-0.29 0,-0.36 v 0 -0.1 0 q 0,-0.47 -0.07,-0.81 v 0 0 q -0.06,-0.34 -0.14,-0.52 v 0 0 q -0.09,-0.18 -0.25,-0.31 v 0 0 q -0.16,-0.12 -0.27,-0.16 v 0 0 q -0.11,-0.03 -0.32,-0.07 v 0 0 Q 248.21,4 248.12,3.98 v 0 0 q -0.28,-0.09 -0.28,-0.24 v 0 0 q 0,-0.21 0.27,-0.21 v 0 0 q 0.08,0 0.67,0.01 v 0 0 q 0.59,0 0.66,0 v 0 0 q 0.33,0 0.75,-0.01 v 0 0 q 0.41,-0.02 0.51,-0.02 v 0 0 q 0.24,0 0.33,0.05 v 0 0 q 0.09,0.05 0.09,0.19 v 0 0 q 0,0.06 -0.08,0.11 v 0 0 q -0.08,0.05 -0.16,0.08 v 0 0 Q 250.8,3.98 250.71,4 v 0 l -0.08,0.03 v 0 q -0.46,0.25 -0.46,1.58 v 0 0.54 0 q 0,1.06 -0.08,3.68 v 0 0 q -0.08,2.63 -0.08,3.25 v 0 0.28 0 q 0,0.32 -0.19,0.32 v 0 0 q -0.13,0 -0.23,-0.1 v 0 0 q -4.65,-5.39 -5.55,-6.41 v 0 0 q -0.9,-1.01 -1,-1.01 v 0 0 q -0.14,0 -0.14,0.95 v 0 0 q 0,1.33 -0.06,2.86 v 0 0 q -0.05,1.54 -0.05,1.68 v 0 0 q 0,0.63 0.21,0.96 v 0 0 q 0.22,0.33 0.47,0.37 v 0 0 q 0.26,0.04 0.47,0.09 v 0 0 q 0.22,0.05 0.22,0.19 v 0 0 q 0,0.15 -0.05,0.19 v 0 0 q -0.05,0.05 -0.17,0.05 v 0 0 q -0.1,0 -0.44,-0.02 v 0 0 q -0.35,-0.01 -1.06,-0.01 v 0 0 q -0.13,0 -0.52,0.01 v 0 0 q -0.39,0.02 -0.67,0.02 v 0 0 q -0.31,0 -0.31,-0.23 v 0 0 q 0,-0.12 0.18,-0.16 v 0 0 q 0.18,-0.03 0.45,-0.22 v 0 0 q 0.27,-0.18 0.41,-0.68 v 0 0 q 0.08,-0.32 0.21,-2.61 v 0 0 q 0.12,-2.28 0.12,-3.15 v 0 0 q 0,-1.2 -0.33,-1.8 v 0 0 q -0.34,-0.59 -1.1,-0.67 v 0 0 Q 240.7,3.96 240.7,3.77 Z m 18.51,5.13 v 0 0 q 0,-1.52 0.59,-2.74 v 0 0 q 0.59,-1.22 1.81,-1.97 v 0 0 q 1.23,-0.75 2.91,-0.75 v 0 0 q 0.85,0 1.72,0.26 v 0 0 q 0.87,0.25 1.38,0.5 v 0 l 0.52,0.27 v 0 q 0.04,0 0.14,-0.07 v 0 0 q 0.1,-0.07 0.16,-0.07 v 0 0 q 0.07,0 0.14,0.05 v 0 0 q 0.07,0.06 0.07,0.17 v 0 0 q 0.01,0.41 0.06,0.86 v 0 0 q 0.05,0.46 0.09,0.75 v 0 0 q 0.04,0.29 0.04,0.35 v 0 0 q 0,0.25 -0.17,0.25 v 0 0 q -0.12,0 -0.23,-0.19 v 0 0 q -1.36,-2.55 -3.92,-2.55 v 0 0 q -1.75,0 -2.87,1.12 v 0 0 q -1.12,1.12 -1.12,2.92 v 0 0 q 0,1 0.25,1.87 v 0 0 q 0.26,0.86 0.79,1.58 v 0 0 q 0.52,0.73 1.45,1.15 v 0 0 q 0.92,0.42 2.15,0.42 v 0 0 q 2.02,0 3.39,-2.1 v 0 0 q 0.06,-0.1 0.21,-0.1 v 0 0 q 0.13,0 0.13,0.19 v 0 0 q 0,0.16 -0.05,0.42 v 0 0 q -0.05,0.26 -0.12,0.57 v 0 0 q -0.07,0.32 -0.08,0.39 v 0 0 q -0.03,0.15 -0.23,0.25 v 0 0 q -0.75,0.36 -1.18,0.54 v 0 0 q -0.43,0.19 -1.09,0.33 v 0 0 q -0.65,0.15 -1.34,0.15 v 0 0 q -1.22,0 -2.2,-0.29 v 0 0 q -0.98,-0.3 -1.6,-0.77 v 0 0 q -0.62,-0.48 -1.04,-1.12 v 0 0 q -0.42,-0.63 -0.59,-1.29 v 0 0 Q 259.21,9.6 259.21,8.9 Z m 17.96,-3.58 v 0 0 q 0,-0.56 0.14,-1.44 v 0 0 q 0,-0.03 0.01,-0.1 v 0 0 q 0.01,-0.07 0.01,-0.09 v 0 0 q 0.01,-0.02 0.02,-0.07 v 0 0 q 0,-0.05 0.02,-0.07 v 0 0 q 0.01,-0.02 0.03,-0.06 v 0 0 q 0.02,-0.03 0.05,-0.05 v 0 0 q 0.03,-0.01 0.07,-0.02 v 0 0 q 0.04,-0.02 0.1,-0.03 v 0 0 q 0.06,0 0.13,0 v 0 0 q 0.22,0 1.18,0.05 v 0 0 q 0.96,0.06 2.76,0.06 v 0 0 q 3.08,0 4.32,-0.07 v 0 0 q 0.01,0 0.05,-0.01 v 0 0 q 0.03,0 0.04,0 v 0 0 q 0.16,0 0.21,0.08 v 0 0 q 0.06,0.08 0.06,0.15 v 0 0 q 0,0.1 0.04,0.59 v 0 0 q 0.04,0.49 0.04,0.55 v 0 0 q 0,0.35 -0.04,0.44 v 0 0 q -0.04,0.09 -0.18,0.09 v 0 0 q -0.11,0 -0.15,-0.17 v 0 0 q -0.12,-0.4 -0.2,-0.55 v 0 0 Q 285.8,4.45 285.52,4.34 v 0 0 q -0.28,-0.11 -0.86,-0.11 v 0 h -1.82 v 0 q -0.33,0 -0.41,0.13 v 0 0 q -0.08,0.13 -0.08,0.76 v 0 0.69 0 q 0,1.88 -0.02,3.3 v 0 0 q -0.02,1.43 -0.02,1.82 v 0 0 q 0,0.2 -0.01,0.5 v 0 0 q 0,0.3 0,0.41 v 0 0 q 0,0.61 0.19,0.8 v 0 0 q 0.18,0.17 0.41,0.26 v 0 0 q 0.22,0.09 0.38,0.11 v 0 0 q 0.16,0.01 0.28,0.07 v 0 0 q 0.11,0.05 0.11,0.18 v 0 0 q 0,0.15 -0.07,0.19 v 0 0 q -0.07,0.05 -0.27,0.05 v 0 0 q -0.17,0 -0.74,-0.06 v 0 0 q -0.57,-0.06 -0.81,-0.06 v 0 0 q -0.17,0 -0.68,0.05 v 0 0 q -0.51,0.05 -0.75,0.05 v 0 0 q -0.52,0 -0.52,-0.22 v 0 0 q 0,-0.14 0.09,-0.19 v 0 0 q 0.08,-0.05 0.33,-0.09 v 0 0 q 0.24,-0.03 0.31,-0.04 v 0 0 q 0.48,-0.12 0.53,-0.56 v 0 0 q 0.14,-1.24 0.14,-5.3 v 0 l -0.01,-2.5 v 0 q 0,-0.27 -0.16,-0.33 v 0 0 q -0.15,-0.06 -0.91,-0.06 v 0 0 q -0.98,0 -1.47,0.05 v 0 0 q -0.5,0.06 -0.58,0.11 v 0 0 q -0.09,0.05 -0.2,0.19 v 0 0 q -0.13,0.16 -0.2,0.37 v 0 0 q -0.08,0.2 -0.1,0.33 v 0 0 q -0.02,0.14 -0.09,0.23 v 0 0 q -0.06,0.09 -0.18,0.09 v 0 0 q -0.16,0 -0.16,-0.24 z m 16.84,-1.61 v 0 0 q 0,-0.21 0.4,-0.21 v 0 0 q 0.14,0 0.64,0.03 v 0 0 q 0.5,0.03 0.94,0.03 v 0 0 q 0.26,0 0.51,-0.02 v 0 0 q 0.24,-0.01 0.72,-0.01 v 0 0 q 0.38,0 0.38,0.19 v 0 0 q 0,0.12 -0.65,0.38 v 0 0 q -0.44,0.18 -0.44,1.61 v 0 0 q 0,1.89 -0.03,3.34 v 0 0 q -0.02,1.45 -0.02,1.84 v 0 0 q 0,1.18 0.35,1.7 v 0 0 q 0.31,0.43 0.68,0.43 v 0 0 q 0.02,0 0.14,0.01 v 0 0 q 0.11,0 0.14,0 v 0 0 q 0.09,0 0.19,0.05 v 0 0 q 0.1,0.05 0.1,0.11 v 0 0 q 0,0.15 -0.08,0.2 v 0 0 q -0.07,0.05 -0.27,0.05 v 0 0 q -0.42,0 -0.78,-0.03 v 0 0 q -0.35,-0.03 -0.55,-0.03 v 0 0 q -0.39,0 -0.85,0.04 v 0 0 q -0.47,0.03 -0.69,0.03 v 0 0 q -0.63,0 -0.63,-0.21 v 0 0 q 0,-0.12 0.13,-0.17 v 0 0 q 0.14,-0.05 0.3,-0.07 v 0 0 q 0.17,-0.02 0.35,-0.18 v 0 0 q 0.19,-0.16 0.26,-0.47 v 0 0 q 0.02,-0.1 0.09,-1.59 v 0 0 q 0.06,-1.49 0.06,-2.15 v 0 -0.8 0 q 0,-0.18 0.01,-0.69 v 0 0 q 0,-0.51 0,-0.82 v 0 -0.64 0 q 0,-0.62 -0.05,-1.03 v 0 0 Q 295.32,4.3 294.99,4.12 v 0 0 q -0.33,-0.19 -0.68,-0.2 v 0 0 q -0.3,-0.01 -0.3,-0.21 z m 11.93,4.98 v 0 0 q 0,-2.35 1.42,-3.85 v 0 0 q 1.41,-1.51 4,-1.51 v 0 0 q 1.2,0 2.17,0.35 v 0 0 q 0.97,0.35 1.53,0.86 v 0 0 q 0.56,0.51 0.93,1.17 v 0 0 q 0.38,0.66 0.52,1.21 v 0 0 q 0.14,0.56 0.14,1.03 v 0 0 q 0,1.91 -0.74,3.21 v 0 0 q -0.74,1.31 -1.95,1.91 v 0 0 q -1.21,0.59 -2.8,0.59 v 0 0 q -1.66,0 -2.87,-0.72 v 0 0 q -1.21,-0.73 -1.78,-1.84 v 0 0 Q 305.94,10 305.94,8.69 Z m 1.23,-0.71 v 0 0 q 0,0.56 0.16,1.21 v 0 0 q 0.15,0.65 0.5,1.35 v 0 0 q 0.35,0.69 0.85,1.24 v 0 0 q 0.5,0.55 1.26,0.91 v 0 0 q 0.76,0.36 1.67,0.36 v 0 0 q 0.48,0 1,-0.15 v 0 0 q 0.53,-0.15 1.05,-0.45 v 0 0 q 0.51,-0.31 0.92,-0.75 v 0 0 q 0.41,-0.44 0.66,-1.08 v 0 0 q 0.26,-0.64 0.26,-1.38 v 0 0 q 0,-2.53 -1.33,-3.94 v 0 0 q -1.33,-1.41 -3.29,-1.41 v 0 0 q -1.54,0 -2.62,1.04 v 0 0 q -1.09,1.03 -1.09,3.05 z m 17.17,-4.21 v 0 0 q 0,-0.09 0.1,-0.17 v 0 0 q 0.09,-0.07 0.25,-0.07 v 0 0 q 0.08,0 0.28,0.01 v 0 0 q 0.19,0 0.25,0 v 0 0 q 0.21,0 0.39,-0.01 v 0 0 q 0.18,-0.02 0.3,-0.02 v 0 0 q 0.12,0 0.29,0.08 v 0 0 q 0.17,0.08 0.2,0.16 v 0 0 q 0.02,0.04 0.15,0.19 v 0 0 q 0.13,0.15 0.34,0.39 v 0 0 q 0.21,0.23 0.37,0.46 v 0 0 q 1.91,2.48 5.1,5.98 v 0 0 q 0.08,0.09 0.2,0.22 v 0 0 q 0.12,0.13 0.17,0.19 v 0 0 q 0.05,0.06 0.11,0.12 v 0 0 q 0.05,0.05 0.09,0.08 v 0 0 q 0.03,0.02 0.06,0.02 v 0 0 q 0.14,0 0.14,-0.87 v 0 -1.64 0 q 0,-0.94 -0.01,-1.58 v 0 0 q 0,-0.65 -0.01,-0.93 v 0 0 Q 333.1,6.09 333.1,6.02 v 0 -0.1 0 q 0,-0.47 -0.06,-0.81 v 0 0 q -0.06,-0.34 -0.15,-0.52 v 0 0 q -0.08,-0.18 -0.24,-0.31 v 0 0 q -0.16,-0.12 -0.28,-0.16 v 0 0 q -0.11,-0.03 -0.32,-0.07 v 0 0 Q 331.84,4 331.76,3.98 v 0 0 q -0.28,-0.09 -0.28,-0.24 v 0 0 q 0,-0.21 0.26,-0.21 v 0 0 q 0.09,0 0.68,0.01 v 0 0 q 0.58,0 0.65,0 v 0 0 q 0.34,0 0.75,-0.01 v 0 0 q 0.42,-0.02 0.51,-0.02 v 0 0 q 0.24,0 0.33,0.05 v 0 0 q 0.09,0.05 0.09,0.19 v 0 0 q 0,0.06 -0.07,0.11 v 0 0 q -0.08,0.05 -0.16,0.08 v 0 0 Q 334.43,3.98 334.35,4 v 0 l -0.09,0.03 v 0 q -0.46,0.25 -0.46,1.58 v 0 0.54 0 q 0,1.06 -0.08,3.68 v 0 0 q -0.07,2.63 -0.07,3.25 v 0 0.28 0 q 0,0.32 -0.2,0.32 v 0 0 q -0.12,0 -0.22,-0.1 v 0 0 q -4.65,-5.39 -5.55,-6.41 v 0 0 q -0.91,-1.01 -1,-1.01 v 0 0 q -0.14,0 -0.14,0.95 v 0 0 q 0,1.33 -0.06,2.86 v 0 0 q -0.06,1.54 -0.06,1.68 v 0 0 q 0,0.63 0.22,0.96 v 0 0 q 0.22,0.33 0.47,0.37 v 0 0 q 0.25,0.04 0.47,0.09 v 0 0 q 0.22,0.05 0.22,0.19 v 0 0 q 0,0.15 -0.05,0.19 v 0 0 q -0.05,0.05 -0.18,0.05 v 0 0 q -0.1,0 -0.44,-0.02 v 0 0 q -0.34,-0.01 -1.06,-0.01 v 0 0 q -0.12,0 -0.51,0.01 v 0 0 q -0.4,0.02 -0.68,0.02 v 0 0 q -0.3,0 -0.3,-0.23 v 0 0 q 0,-0.12 0.18,-0.16 v 0 0 q 0.18,-0.03 0.45,-0.22 v 0 0 q 0.26,-0.18 0.4,-0.68 v 0 0 q 0.09,-0.32 0.21,-2.61 v 0 0 q 0.13,-2.28 0.13,-3.15 v 0 0 q 0,-1.2 -0.34,-1.8 v 0 0 q -0.33,-0.59 -1.09,-0.67 v 0 0 q -0.18,-0.02 -0.18,-0.21 z m 28.15,1.55 v 0 0 q 0,-0.56 0.14,-1.44 v 0 0 q 0,-0.03 0.01,-0.1 v 0 0 q 0.01,-0.07 0.01,-0.09 v 0 0 q 0.01,-0.02 0.02,-0.07 v 0 0 q 0,-0.05 0.02,-0.07 v 0 0 q 0.01,-0.02 0.03,-0.06 v 0 0 q 0.02,-0.03 0.05,-0.05 v 0 0 q 0.03,-0.01 0.07,-0.02 v 0 0 q 0.04,-0.02 0.1,-0.03 v 0 0 q 0.06,0 0.13,0 v 0 0 q 0.22,0 1.18,0.05 v 0 0 q 0.96,0.06 2.76,0.06 v 0 0 q 3.08,0 4.32,-0.07 v 0 0 q 0.01,0 0.05,-0.01 v 0 0 q 0.03,0 0.04,0 v 0 0 q 0.16,0 0.21,0.08 v 0 0 q 0.06,0.08 0.06,0.15 v 0 0 q 0,0.1 0.04,0.59 v 0 0 q 0.04,0.49 0.04,0.55 v 0 0 q 0,0.35 -0.04,0.44 v 0 0 q -0.04,0.09 -0.18,0.09 v 0 0 q -0.11,0 -0.15,-0.17 v 0 0 q -0.12,-0.4 -0.2,-0.55 v 0 0 q -0.08,-0.15 -0.36,-0.26 v 0 0 q -0.28,-0.11 -0.86,-0.11 v 0 h -1.82 v 0 q -0.33,0 -0.41,0.13 v 0 0 q -0.08,0.13 -0.08,0.76 v 0 0.69 0 q 0,1.88 -0.02,3.3 v 0 0 q -0.02,1.43 -0.02,1.82 v 0 0 q 0,0.2 -0.01,0.5 v 0 0 q 0,0.3 0,0.41 v 0 0 q 0,0.61 0.19,0.8 v 0 0 q 0.18,0.17 0.41,0.26 v 0 0 q 0.22,0.09 0.38,0.11 v 0 0 q 0.16,0.01 0.28,0.07 v 0 0 q 0.11,0.05 0.11,0.18 v 0 0 q 0,0.15 -0.07,0.19 v 0 0 q -0.07,0.05 -0.27,0.05 v 0 0 q -0.17,0 -0.74,-0.06 v 0 0 q -0.57,-0.06 -0.81,-0.06 v 0 0 q -0.17,0 -0.68,0.05 v 0 0 q -0.51,0.05 -0.75,0.05 v 0 0 q -0.52,0 -0.52,-0.22 v 0 0 q 0,-0.14 0.09,-0.19 v 0 0 q 0.08,-0.05 0.33,-0.09 v 0 0 q 0.24,-0.03 0.31,-0.04 v 0 0 q 0.48,-0.12 0.53,-0.56 v 0 0 q 0.14,-1.24 0.14,-5.3 v 0 l -0.01,-2.5 v 0 q 0,-0.27 -0.16,-0.33 v 0 0 q -0.15,-0.06 -0.91,-0.06 v 0 0 q -0.98,0 -1.47,0.05 v 0 0 q -0.5,0.06 -0.58,0.11 v 0 0 q -0.09,0.05 -0.2,0.19 v 0 0 q -0.13,0.16 -0.2,0.37 v 0 0 q -0.08,0.2 -0.1,0.33 v 0 0 q -0.02,0.14 -0.08,0.23 v 0 0 q -0.07,0.09 -0.19,0.09 v 0 0 q -0.16,0 -0.16,-0.24 z m 17.18,3.37 v 0 0 q 0,-2.35 1.41,-3.85 v 0 0 q 1.42,-1.51 4.01,-1.51 v 0 0 q 1.2,0 2.17,0.35 v 0 0 q 0.96,0.35 1.52,0.86 v 0 0 q 0.56,0.51 0.94,1.17 v 0 0 q 0.38,0.66 0.52,1.21 v 0 0 q 0.14,0.56 0.14,1.03 v 0 0 q 0,1.91 -0.74,3.21 v 0 0 q -0.74,1.31 -1.95,1.91 v 0 0 q -1.22,0.59 -2.8,0.59 v 0 0 q -1.66,0 -2.87,-0.72 v 0 0 q -1.22,-0.73 -1.78,-1.84 v 0 0 Q 369.67,10 369.67,8.69 Z m 1.23,-0.71 v 0 0 q 0,0.56 0.16,1.21 v 0 0 q 0.15,0.65 0.5,1.35 v 0 0 q 0.35,0.69 0.85,1.24 v 0 0 q 0.49,0.55 1.26,0.91 v 0 0 q 0.76,0.36 1.67,0.36 v 0 0 q 0.48,0 1,-0.15 v 0 0 q 0.53,-0.15 1.04,-0.45 v 0 0 q 0.52,-0.31 0.93,-0.75 v 0 0 q 0.4,-0.44 0.66,-1.08 v 0 0 q 0.26,-0.64 0.26,-1.38 v 0 0 q 0,-2.53 -1.33,-3.94 v 0 0 q -1.33,-1.41 -3.29,-1.41 v 0 0 q -1.54,0 -2.62,1.04 v 0 0 q -1.09,1.03 -1.09,3.05 z m 27.36,-2.66 v 0 0 q 0,-0.56 0.14,-1.44 v 0 0 q 0,-0.03 0.01,-0.1 v 0 0 q 0,-0.07 0.01,-0.09 v 0 0 q 0.01,-0.02 0.01,-0.07 v 0 0 q 0.01,-0.05 0.02,-0.07 v 0 0 q 0.02,-0.02 0.04,-0.06 v 0 0 q 0.02,-0.03 0.05,-0.05 v 0 0 q 0.03,-0.01 0.07,-0.02 v 0 0 q 0.04,-0.02 0.1,-0.03 v 0 0 q 0.05,0 0.12,0 v 0 0 q 0.23,0 1.19,0.05 v 0 0 q 0.95,0.06 2.76,0.06 v 0 0 q 3.08,0 4.31,-0.07 v 0 0 q 0.02,0 0.05,-0.01 v 0 0 q 0.04,0 0.05,0 v 0 0 q 0.15,0 0.21,0.08 v 0 0 q 0.06,0.08 0.06,0.15 v 0 0 q 0,0.1 0.04,0.59 v 0 0 q 0.04,0.49 0.04,0.55 v 0 0 q 0,0.35 -0.04,0.44 v 0 0 q -0.04,0.09 -0.18,0.09 v 0 0 q -0.12,0 -0.16,-0.17 v 0 0 q -0.11,-0.4 -0.19,-0.55 v 0 0 Q 406.88,4.45 406.6,4.34 v 0 0 q -0.28,-0.11 -0.85,-0.11 v 0 h -1.82 v 0 q -0.34,0 -0.41,0.13 v 0 0 q -0.08,0.13 -0.08,0.76 v 0 0.69 0 q 0,1.88 -0.02,3.3 v 0 0 q -0.02,1.43 -0.02,1.82 v 0 0 q 0,0.2 -0.01,0.5 v 0 0 q -0.01,0.3 -0.01,0.41 v 0 0 q 0,0.61 0.2,0.8 v 0 0 q 0.18,0.17 0.4,0.26 v 0 0 q 0.23,0.09 0.39,0.11 v 0 0 q 0.16,0.01 0.27,0.07 v 0 0 q 0.11,0.05 0.11,0.18 v 0 0 q 0,0.15 -0.07,0.19 v 0 0 q -0.07,0.05 -0.26,0.05 v 0 0 q -0.17,0 -0.74,-0.06 v 0 0 q -0.58,-0.06 -0.82,-0.06 v 0 0 q -0.16,0 -0.67,0.05 v 0 0 q -0.52,0.05 -0.75,0.05 v 0 0 q -0.52,0 -0.52,-0.22 v 0 0 q 0,-0.14 0.08,-0.19 v 0 0 q 0.09,-0.05 0.33,-0.09 v 0 0 q 0.25,-0.03 0.32,-0.04 v 0 0 q 0.47,-0.12 0.53,-0.56 v 0 0 q 0.14,-1.24 0.14,-5.3 v 0 l -0.02,-2.5 v 0 q 0,-0.27 -0.15,-0.33 v 0 0 Q 402,4.19 401.24,4.19 v 0 0 q -0.98,0 -1.48,0.05 v 0 0 q -0.49,0.06 -0.58,0.11 v 0 0 q -0.08,0.05 -0.19,0.19 v 0 0 q -0.13,0.16 -0.21,0.37 v 0 0 q -0.07,0.2 -0.09,0.33 v 0 0 q -0.03,0.14 -0.09,0.23 v 0 0 q -0.06,0.09 -0.19,0.09 v 0 0 q -0.15,0 -0.15,-0.24 z M 415.1,3.7 v 0 0 q 0,-0.23 0.41,-0.23 v 0 h 2.32 v 0 q 0.32,0 0.74,-0.02 v 0 0 q 0.42,-0.02 0.66,-0.02 v 0 0 q 1.26,0 2.16,0.64 v 0 0 q 0.89,0.63 0.89,1.71 v 0 0 q 0,0.72 -0.27,1.25 v 0 0 q -0.27,0.54 -0.6,0.78 v 0 0 q -0.33,0.24 -0.6,0.41 v 0 0 q -0.28,0.18 -0.28,0.24 v 0 0 q 0,0.16 1.18,1.81 v 0 0 q 1.17,1.64 1.61,2.11 v 0 0 q 0.53,0.65 1.29,0.65 v 0 0 q 0.19,0 0.19,0.17 v 0 0 q 0,0.21 -0.17,0.28 v 0 0 q -0.16,0.07 -0.86,0.07 v 0 0 q -0.66,0 -1.21,-0.32 v 0 0 q -0.7,-0.41 -2.36,-3.14 v 0 0 q -0.1,-0.15 -0.14,-0.22 v 0 0 q -0.68,-1.09 -1.04,-1.09 v 0 h -0.29 -0.86 v 0 q -0.17,0 -0.2,0.14 v 0 0 q -0.04,0.14 -0.04,0.85 v 0 0 q 0,0.67 0,1.11 v 0 0 q 0,0.43 0.01,0.55 v 0 0 q 0.01,0.12 0.01,0.2 v 0 0 q 0,0.07 0,0.12 v 0 0 q 0,0.57 0.26,0.88 v 0 0 q 0.27,0.32 0.6,0.37 v 0 0 q 0.33,0.05 0.59,0.11 v 0 0 q 0.27,0.06 0.27,0.2 v 0 0 q 0,0.23 -0.25,0.23 v 0 0 q -0.02,0 -0.97,-0.05 v 0 0 q -0.95,-0.05 -1.03,-0.05 v 0 0 q -0.41,0 -0.97,0.03 v 0 0 q -0.56,0.03 -0.57,0.03 v 0 0 q -0.3,0 -0.3,-0.23 v 0 0 q 0,-0.15 0.18,-0.22 v 0 0 q 0.19,-0.06 0.41,-0.09 v 0 0 q 0.22,-0.02 0.41,-0.3 v 0 0 q 0.18,-0.28 0.18,-0.8 v 0 0 q 0,-0.37 0.01,-1.96 v 0 0 q 0,-1.6 0,-2.45 v 0 0 q 0,-0.87 0,-1.59 v 0 0 q -0.01,-0.72 -0.01,-0.78 v 0 0 q 0,-0.52 -0.21,-0.79 v 0 0 q -0.21,-0.27 -0.47,-0.31 v 0 0 q -0.26,-0.03 -0.47,-0.09 v 0 0 Q 415.1,3.84 415.1,3.7 Z m 2.53,1.84 v 0.4 0 q 0,1.44 0.02,1.78 v 0 0 q 0.01,0.34 0.1,0.4 v 0 0 q 0.21,0.13 0.6,0.13 v 0 h 0.14 0.4 v 0 q 1.19,0 1.71,-0.55 v 0 0 q 0.51,-0.55 0.51,-1.4 v 0 0 q 0,-0.87 -0.68,-1.58 v 0 0 Q 419.75,4 418.38,4 v 0 0 q -0.52,0 -0.63,0.28 v 0 0 q -0.12,0.27 -0.12,1.26 z m 13.71,-1.86 v 0 0 q 0,-0.07 0.01,-0.1 v 0 0 q 0.02,-0.02 0.09,-0.05 v 0 0 q 0.07,-0.03 0.22,-0.03 v 0 0 q 0.16,0 0.65,0.03 v 0 0 q 0.49,0.03 0.93,0.03 v 0 0 q 0.28,0 0.52,-0.02 v 0 0 q 0.23,-0.01 0.8,-0.01 v 0 0 q 0.29,0 0.29,0.19 v 0 0 q 0,0.13 -0.09,0.16 v 0 0 q -0.1,0.03 -0.25,0.04 v 0 0 q -0.15,0.01 -0.29,0.1 v 0 0 q -0.15,0.08 -0.25,0.41 v 0 0 q -0.1,0.33 -0.1,0.89 v 0 0.39 0 q 0,0.66 0,1.66 v 0 0 q -0.01,1 -0.01,1.37 v 0 0 q 0,0.43 0.01,0.65 v 0 0 q 0,0.23 0.03,0.65 v 0 0 q 0.03,0.43 0.08,0.68 v 0 0 q 0.05,0.24 0.16,0.6 v 0 0 q 0.11,0.36 0.27,0.57 v 0 0 q 0.16,0.21 0.41,0.46 v 0 0 q 0.24,0.25 0.57,0.38 v 0 0 q 0.32,0.14 0.75,0.23 v 0 0 q 0.44,0.09 0.97,0.09 v 0 0 q 0.45,0 0.7,-0.02 v 0 0 q 0.25,-0.01 0.69,-0.09 v 0 0 q 0.44,-0.07 0.7,-0.22 v 0 0 q 0.26,-0.15 0.59,-0.45 v 0 0 q 0.33,-0.3 0.51,-0.73 v 0 0 q 0.18,-0.44 0.31,-1.11 v 0 0 q 0.12,-0.67 0.12,-1.53 v 0 0 q 0,-1.41 0,-2.15 v 0 0 q -0.01,-0.74 -0.01,-0.81 v 0 0 q 0,-0.49 -0.02,-0.77 v 0 0 q -0.02,-0.28 -0.14,-0.62 v 0 0 q -0.12,-0.34 -0.34,-0.49 v 0 0 q -0.14,-0.1 -0.37,-0.13 v 0 0 q -0.22,-0.04 -0.36,-0.06 v 0 0 q -0.14,-0.02 -0.14,-0.12 v 0 0 q 0,-0.22 0.28,-0.22 v 0 0 q 0.08,0 0.54,0.01 v 0 0 q 0.47,0.02 0.54,0.02 v 0 0 q 0.33,0 0.71,-0.02 v 0 0 q 0.38,-0.03 0.48,-0.03 v 0 0 q 0.29,0 0.29,0.19 v 0 0 q 0,0.11 -0.3,0.28 v 0 0 q -0.3,0.18 -0.37,0.32 v 0 0 q -0.16,0.29 -0.16,0.92 v 0 0 q 0,0.1 0.01,0.4 v 0 0 q 0.01,0.3 0.01,0.54 v 0 0 q 0,2.69 -0.23,4.12 v 0 0 q -0.22,1.42 -0.67,2.08 v 0 0 q -0.46,0.65 -1.37,1.04 v 0 0 q -0.74,0.31 -2,0.31 v 0 0 q -2.34,0 -3.32,-0.9 v 0 0 q -0.77,-0.71 -0.95,-1.72 v 0 0 q -0.18,-1 -0.18,-3.45 v 0 -0.23 0 q 0,-0.55 0.01,-1.21 v 0 0 q 0.01,-0.66 0.01,-0.81 v 0 0 q 0,-0.77 -0.18,-1.06 v 0 0 q -0.18,-0.28 -0.85,-0.38 v 0 0 q -0.31,-0.04 -0.31,-0.27 z m 18.96,7.14 v 0 0 q 0,-0.29 0.19,-0.29 v 0 0 q 0.18,0 0.23,0.14 v 0 0 q 0.14,0.33 0.26,0.58 v 0 0 q 0.11,0.24 0.38,0.6 v 0 0 q 0.27,0.36 0.57,0.59 v 0 0 q 0.31,0.23 0.8,0.4 v 0 0 q 0.48,0.17 1.05,0.17 v 0 0 q 1.05,0 1.69,-0.56 v 0 0 q 0.64,-0.55 0.64,-1.45 v 0 0 q 0,-0.65 -0.44,-1.1 v 0 0 q -0.43,-0.44 -0.99,-0.63 v 0 0 q -0.56,-0.18 -1.42,-0.5 v 0 0 Q 452.4,8.46 451.85,8.13 v 0 0 q -1.27,-0.75 -1.27,-2.05 v 0 0 q 0,-1.25 0.9,-2 v 0 0 q 0.9,-0.75 2.34,-0.75 v 0 0 q 0.54,0 1.27,0.23 v 0 0 q 0.74,0.23 0.75,0.23 v 0 0 q 0.04,0 0.15,-0.05 v 0 0 q 0.12,-0.06 0.17,-0.06 v 0 0 q 0.18,0 0.21,0.11 v 0 0 q 0.3,1.7 0.3,1.91 v 0 0 q 0,0.39 -0.2,0.39 v 0 0 q -0.13,0 -0.2,-0.2 v 0 0 q -0.16,-0.4 -0.32,-0.65 v 0 0 q -0.17,-0.26 -0.24,-0.33 v 0 0 q -0.07,-0.07 -0.36,-0.33 v 0 0 q -0.76,-0.67 -1.83,-0.67 v 0 0 q -0.87,0 -1.46,0.42 v 0 0 q -0.59,0.42 -0.59,1.13 v 0 0 q 0,0.63 0.35,1.04 v 0 0 q 0.34,0.4 0.91,0.63 v 0 0 q 0.58,0.22 1.21,0.42 v 0 0 q 0.63,0.19 1.33,0.54 v 0 0 q 0.71,0.35 1.17,0.84 v 0 0 q 0.56,0.6 0.56,1.5 v 0 0 q 0,1.47 -0.94,2.33 v 0 0 q -0.93,0.86 -2.32,0.86 v 0 0 q -0.97,0 -1.55,-0.1 v 0 0 q -0.59,-0.11 -1.21,-0.43 v 0 0 Q 450.8,12.98 450.55,12 v 0 0 q -0.25,-0.98 -0.25,-1.18 z m 14.79,-5.5 v 0 0 q 0,-0.56 0.14,-1.44 v 0 0 q 0,-0.03 0.01,-0.1 v 0 0 q 0.01,-0.07 0.02,-0.09 v 0 0 q 0,-0.02 0.01,-0.07 v 0 0 q 0.01,-0.05 0.02,-0.07 v 0 0 q 0.01,-0.02 0.04,-0.06 v 0 0 q 0.02,-0.03 0.04,-0.05 v 0 0 q 0.03,-0.01 0.07,-0.02 v 0 0 q 0.05,-0.02 0.1,-0.03 v 0 0 q 0.06,0 0.13,0 v 0 0 q 0.22,0 1.18,0.05 v 0 0 q 0.96,0.06 2.77,0.06 v 0 0 q 3.08,0 4.31,-0.07 v 0 0 q 0.01,0 0.05,-0.01 v 0 0 q 0.03,0 0.05,0 v 0 0 q 0.15,0 0.21,0.08 v 0 0 q 0.05,0.08 0.05,0.15 v 0 0 q 0,0.1 0.04,0.59 v 0 0 q 0.05,0.49 0.05,0.55 v 0 0 q 0,0.35 -0.05,0.44 v 0 0 q -0.04,0.09 -0.18,0.09 v 0 0 q -0.11,0 -0.15,-0.17 v 0 0 q -0.11,-0.4 -0.2,-0.55 v 0 0 q -0.08,-0.15 -0.36,-0.26 v 0 0 q -0.28,-0.11 -0.86,-0.11 v 0 h -1.82 v 0 q -0.33,0 -0.41,0.13 v 0 0 q -0.08,0.13 -0.08,0.76 v 0 0.69 0 q 0,1.88 -0.02,3.3 v 0 0 q -0.02,1.43 -0.02,1.82 v 0 0 q 0,0.2 0,0.5 v 0 0 q -0.01,0.3 -0.01,0.41 v 0 0 q 0,0.61 0.19,0.8 v 0 0 q 0.19,0.17 0.41,0.26 v 0 0 q 0.22,0.09 0.39,0.11 v 0 0 q 0.16,0.01 0.27,0.07 v 0 0 q 0.11,0.05 0.11,0.18 v 0 0 q 0,0.15 -0.07,0.19 v 0 0 q -0.07,0.05 -0.27,0.05 v 0 0 q -0.16,0 -0.74,-0.06 v 0 0 q -0.57,-0.06 -0.81,-0.06 v 0 0 q -0.17,0 -0.68,0.05 v 0 0 q -0.51,0.05 -0.75,0.05 v 0 0 q -0.52,0 -0.52,-0.22 v 0 0 q 0,-0.14 0.09,-0.19 v 0 0 q 0.08,-0.05 0.33,-0.09 v 0 0 q 0.24,-0.03 0.31,-0.04 v 0 0 q 0.48,-0.12 0.53,-0.56 v 0 0 q 0.14,-1.24 0.14,-5.3 v 0 l -0.01,-2.5 v 0 q 0,-0.27 -0.15,-0.33 v 0 0 q -0.16,-0.06 -0.91,-0.06 v 0 0 q -0.98,0 -1.48,0.05 v 0 0 q -0.5,0.06 -0.58,0.11 v 0 0 q -0.09,0.05 -0.2,0.19 v 0 0 q -0.12,0.16 -0.2,0.37 v 0 0 q -0.08,0.2 -0.1,0.33 v 0 0 q -0.02,0.14 -0.08,0.23 v 0 0 q -0.07,0.09 -0.19,0.09 v 0 0 q -0.16,0 -0.16,-0.24 z"
       id="path10" />
  </g>
</svg>
